<svg xmlns="http://www.w3.org/2000/svg" viewBox="0 0 517.05 136.58"><defs><style>.cls-1{fill:#f2f2f2;}.cls-2{fill:#5ffcff;}</style></defs><g id="Layer_2" data-name="Layer 2"><g id="Layer_1-2" data-name="Layer 1"><path class="cls-1" d="M172.35,112.22l0-8.64,3,0-.13,25.57h-3.64L163.15,116q-3.63-5.85-5.28-8.7.09,5,0,13.24l0,8.64-3,0,.13-25.62,3.67,0,8.43,13.25q3.63,5.85,5.28,8.7Q172.3,120.42,172.35,112.22Z"/><path class="cls-1" d="M197,103.63l0,2.73-13.92-.07,0,8.17,12.49.06v2.74L183,117.19l-.06,12-3,0,.14-25.62Z"/><path class="cls-1" d="M210,130a11,11,0,0,1-8.51-3.68q-3.3-3.64-3.26-9.77t3.36-9.73a11,11,0,0,1,8.55-3.59,11.17,11.17,0,0,1,7,2.28,10.84,10.84,0,0,1,3.82,6.59l-3.06,0q-1.59-6-7.82-6.08a7.85,7.85,0,0,0-6.31,2.77,11.81,11.81,0,0,0-2.41,7.8q0,5,2.33,7.78a7.77,7.77,0,0,0,6.28,2.88,8.16,8.16,0,0,0,5.26-1.81,7.73,7.73,0,0,0,2.8-5.27h3a10.29,10.29,0,0,1-3.68,7.29A11.39,11.39,0,0,1,210,130Z"/><path class="cls-1" d="M250.92,118.92l2.67-8.37,3.09,0L250.4,129.1h-3l-2.68-8.62q-1.4-4.57-1.84-6.3c-.56,2-1.21,4.06-1.94,6.28L238.16,129l-3,0-6.09-18.6,3.09,0,2.59,8.4q.95,3.06,2,6.77,1.19-4.1,2-6.75l2.63-8.37,3,0,2.54,8.39,2,6.7C249.1,124.86,249.77,122.64,250.92,118.92Z"/><path class="cls-1" d="M272.43,127a9.2,9.2,0,0,1-12.95-.07,11.12,11.12,0,0,1,.07-14.11,9.22,9.22,0,0,1,12.95.07,11.12,11.12,0,0,1-.07,14.11Zm-10.82-1.89a5.92,5.92,0,0,0,8.71,0,9.29,9.29,0,0,0,.05-10.47,6,6,0,0,0-8.71,0,7.79,7.79,0,0,0-1.64,5.24A7.66,7.66,0,0,0,261.61,125.1Z"/><path class="cls-1" d="M287.16,110.34a8.26,8.26,0,0,1,1,0v2.77h-.72a6.53,6.53,0,0,0-4.49,1.4,5.14,5.14,0,0,0-1.62,4l-.06,10.58h-2.87l.09-18.57h2.74l0,3.28A6.29,6.29,0,0,1,287.16,110.34Z"/><path class="cls-1" d="M306.53,129.18l-3.35,0-6.21-10-3.32,3.08,0,6.87-2.88,0,.14-25.62,2.87,0-.07,15.36,8.64-8.26,3.81,0L299,117.26Z"/><path class="cls-1" d="M317,106H315.3c-1.65,0-2.49.86-2.5,2.61v2l4,0v2.52l-4,0-.08,16-2.88,0,.08-16.05h-3.06l0-2.52h3.05v-1.9q0-5.22,5.21-5.2c.46,0,1.07,0,1.84.09Z"/><path class="cls-1" d="M333,126.72a9.21,9.21,0,0,1-12.95-.06,11.12,11.12,0,0,1,.07-14.11,9.2,9.2,0,0,1,12.95.07,11.1,11.1,0,0,1-.07,14.1Zm-10.82-1.89a5.93,5.93,0,0,0,8.71,0,9.29,9.29,0,0,0,.05-10.47,6,6,0,0,0-8.71,0,9.29,9.29,0,0,0-.05,10.47Z"/><path class="cls-1" d="M347.72,110.34a9.05,9.05,0,0,1,1,0v2.77H348a6.53,6.53,0,0,0-4.49,1.4,5.14,5.14,0,0,0-1.62,4l-.06,10.58-2.87,0,.09-18.57,2.74,0,0,3.27A6.29,6.29,0,0,1,347.72,110.34Z"/><path class="cls-1" d="M357.91,129.52a7.93,7.93,0,0,1-6.21-2.7,11.69,11.69,0,0,1,.08-14.14,7.83,7.83,0,0,1,6.23-2.59,8.15,8.15,0,0,1,5.43,1.82,7.58,7.58,0,0,1,2.53,5l-3,0a4.68,4.68,0,0,0-1.69-3.07,5.19,5.19,0,0,0-3.29-1.09,5,5,0,0,0-4.08,1.83,8.2,8.2,0,0,0-1.54,5.26,8,8,0,0,0,1.51,5.26,5,5,0,0,0,4,1.9,5.18,5.18,0,0,0,3.31-1.1,4.76,4.76,0,0,0,1.74-3.09l3,0a7.79,7.79,0,0,1-2.67,4.95A8,8,0,0,1,357.91,129.52Z"/><path class="cls-1" d="M385.2,119.94v1l-14.11-.07a7.05,7.05,0,0,0,1.67,4.56,5.36,5.36,0,0,0,4,1.55,4.65,4.65,0,0,0,5-3.43l3,0a8.31,8.31,0,0,1-2.84,4.43,8.83,8.83,0,0,1-11.4-1,10.05,10.05,0,0,1-2.37-7.1,10.26,10.26,0,0,1,2.41-7,7.87,7.87,0,0,1,6.2-2.63A7.65,7.65,0,0,1,383,113,10.56,10.56,0,0,1,385.2,119.94Zm-8.49-7.13a5,5,0,0,0-3.71,1.4,6.8,6.8,0,0,0-1.82,4.08l10.94.06a6.49,6.49,0,0,0-1.64-4A5,5,0,0,0,376.71,112.81Z"/><path class="cls-1" d="M403.64,110.53l0,2.52-3.81,0-.06,12c0,1.06.7,1.59,2.11,1.6h1.69v2.41a19.74,19.74,0,0,1-2.05.09c-3.09,0-4.64-1.3-4.62-3.87l.06-12.31h-3.06l0-2.52,3.05,0,0-5.26,2.88,0,0,5.25Z"/><path class="cls-1" d="M415.4,110.34a9.29,9.29,0,0,1,1,0l0,2.77h-.72a6.55,6.55,0,0,0-4.49,1.4,5.14,5.14,0,0,0-1.62,4l0,10.58-2.88,0,.1-18.56h2.73l0,3.27A6.3,6.3,0,0,1,415.4,110.34Z"/><path class="cls-1" d="M432.91,126.75h1v2.34a11.1,11.1,0,0,1-1.59.1c-1.94,0-3-.9-3.11-2.68a6.74,6.74,0,0,1-6.07,3,7.46,7.46,0,0,1-4.79-1.45,4.9,4.9,0,0,1-1.73-4q0-5,6.91-5.72l2.66-.28c1.95-.2,2.92-1,2.93-2.54a2.57,2.57,0,0,0-.94-2.23,5.66,5.66,0,0,0-3.22-.7,5.77,5.77,0,0,0-3.48.79,3.74,3.74,0,0,0-1.22,2.85h-2.87Q417.82,110,425,110q7,0,7,5.44l-.06,10.36C431.91,126.44,432.24,126.74,432.91,126.75Zm-9.57.27a6.19,6.19,0,0,0,4-1.38,4.71,4.71,0,0,0,1.75-3.91v-2.2a4.91,4.91,0,0,1-2.45.78l-2.7.31a6.84,6.84,0,0,0-3.34,1.06,2.75,2.75,0,0,0-1,2.26,2.83,2.83,0,0,0,.93,2.26A4.15,4.15,0,0,0,423.34,127Z"/><path class="cls-1" d="M444,129.47a7.94,7.94,0,0,1-6.21-2.69,11.71,11.71,0,0,1,.08-14.15,7.83,7.83,0,0,1,6.24-2.59,8.09,8.09,0,0,1,5.42,1.83,7.53,7.53,0,0,1,2.53,4.94h-3a4.63,4.63,0,0,0-1.69-3.07,5.2,5.2,0,0,0-3.29-1.1,5,5,0,0,0-4.07,1.83A9.88,9.88,0,0,0,440,125a5,5,0,0,0,4,1.89,5.12,5.12,0,0,0,3.31-1.1,4.82,4.82,0,0,0,1.75-3.08H452a7.77,7.77,0,0,1-2.67,5A8,8,0,0,1,444,129.47Z"/><path class="cls-1" d="M470.83,129.22h-3.35l-6.21-10L458,122.28l0,6.87H455l.14-25.62H458L458,118.9l8.65-8.27,3.81,0-7.09,6.66Z"/><path class="cls-1" d="M475.69,129.12h-2.88l.1-18.57,2.87,0Zm.18-21.37-3.06,0,0-3.52h3.06Z"/><path class="cls-1" d="M488.67,110.19a6.56,6.56,0,0,1,4.81,1.72,6.32,6.32,0,0,1,1.7,4.76l-.06,12.55h-2.88l.06-12.27q0-4.14-4.22-4.16a4.94,4.94,0,0,0-3.57,1.49,5.84,5.84,0,0,0-1.57,4.38l-.06,10.51-2.87,0,.09-18.56h2.74l0,2.77A6.67,6.67,0,0,1,488.67,110.19Z"/><path class="cls-1" d="M513.62,113.26l0-2.7h2.73l-.09,17.85a8,8,0,0,1-2.26,6,8.78,8.78,0,0,1-6.42,2.17,8.93,8.93,0,0,1-5.53-1.62,6,6,0,0,1-2.35-4.4l2.87,0q.53,3.53,5,3.55,5.76,0,5.79-5.73v-1.8a7.29,7.29,0,0,1-6.24,2.92,7.91,7.91,0,0,1-6.25-2.69,10.27,10.27,0,0,1-2.34-7.07,10.15,10.15,0,0,1,2.42-7.07,7.88,7.88,0,0,1,6.27-2.6A7.32,7.32,0,0,1,513.62,113.26Zm-6.08,13.67a5.41,5.41,0,0,0,4.37-1.88,9.24,9.24,0,0,0,0-10.44,5.87,5.87,0,0,0-8.69,0,9,9,0,0,0,0,10.37A5.37,5.37,0,0,0,507.54,126.93Z"/><path class="cls-1" d="M469.3,18.34h47.75V.16H469.3a26.52,26.52,0,0,0-19.4,8,27.46,27.46,0,0,0-8.32,19.69,26.75,26.75,0,0,0,8,19.46A26.43,26.43,0,0,0,469,55.44h20.31a9.28,9.28,0,0,1,6.56,15.82c-1.81,1.82-3.58,3.08-6.18,3.08H442V92.52h47.75c7.55,0,13.7-3.08,19-8.41a26.56,26.56,0,0,0,8-19.41,26.75,26.75,0,0,0-8-19.46,26.43,26.43,0,0,0-19.41-8.1H469a8.93,8.93,0,0,1-6.51-2.71,8.7,8.7,0,0,1-2.75-6.49,9.81,9.81,0,0,1,3.05-6.84A8.78,8.78,0,0,1,469.3,18.34Z"/><path class="cls-1" d="M348,31.1a53.08,53.08,0,0,1-1.63-6.72c.27,6.49.42,12.36.39,17.46l-.27,50.72-20.09-.12h0L326.8,16C326.83,6.88,336.45.09,345,.09h.09l13.25.09.18.5L377,55.12a82,82,0,0,1,2.8,10.62c1-4,2-7.61,3.1-10.71l15.62-44.74A15.25,15.25,0,0,1,413,.07l19.84.1V1.3l-.47,91.22-21.87-.12.3-54.36c0-4,.15-8.29.41-12.9-.56,2.36-1.09,4.25-1.56,5.64L388,92.52l-17.91-.09Z"/><path class="cls-1" d="M218.34,0l-.27,51.11a98,98,0,0,0,.45,12.6h-.27c-1.38-2.46-2.88-5-4.54-7.49L177.54.09H155.35l-.48,92.33,19.52.09.27-51c0-6.64-.12-11.57-.45-14.82h.27a85.35,85.35,0,0,0,4.57,7.64l37.61,58.2H237.5l.3-78.65v-.09L237.86.09Z"/><path class="cls-1" d="M257.25.09c-6.49,0-11.79,5.74-11.82,12.24l0,5.08,26,.15-.42,75h20.72l.42-74.86,26.13.15s-.82-13.62,10-16.93V.09Z"/><path class="cls-1" d="M237.71,17.44h-.63L237.85.09h6.32V.74C239.77,2,237.71,7.29,237.71,17.44Z"/><path class="cls-1" d="M432.81,18h-1.43L431.53.18,444.29.09V.88C442.67,1,432.81,7.88,432.81,18Z"/><path class="cls-2" d="M77.39,82.47l.84.87-.69.67c0,.51,0,1-.06,1.5a13.88,13.88,0,0,1-1,4.33l-2.68-2.26L61,76.82l5.2-6.13.21-.24A14.17,14.17,0,0,1,77.39,82.47Z"/><path class="cls-2" d="M143.93,11.85l-4,4.75-17,20L84.58,81.87A21.44,21.44,0,0,0,71.47,64.52l37.58-44.35c.24-.27.51-.54.75-.81,6.8-7.21,22.52-14.55,30.91-9.77A20.17,20.17,0,0,1,143.93,11.85Z"/><polygon class="cls-2" points="47.78 114.48 67.68 114.48 61.45 123.7 47.78 114.48"/><path class="cls-2" d="M59.2,63.26A21.46,21.46,0,0,0,43,77L23.15,56a21.23,21.23,0,0,1,30,.85Z"/><path class="cls-2" d="M78.23,83.34l-.69.67-3.79,3.57L62.81,98,49,83.28v-.06a14.31,14.31,0,0,1,15.42-13.1,13.56,13.56,0,0,1,1.54.21l.33.36L77.39,82.47Z"/><path class="cls-2" d="M78.23,83.34l-.69.67c0,.51,0,1-.06,1.5a13.88,13.88,0,0,1-1,4.33A14.3,14.3,0,0,1,49,83.28v-.06a14.31,14.31,0,0,1,15.42-13.1,13.56,13.56,0,0,1,1.54.21,3.49,3.49,0,0,1,.54.12,14.17,14.17,0,0,1,10.94,12Z"/><path class="cls-2" d="M77.54,84c0,.51,0,1-.06,1.5a13.88,13.88,0,0,1-1,4.33A14.3,14.3,0,0,1,49,83.28v-.06a14.31,14.31,0,0,1,15.42-13.1,13.56,13.56,0,0,1,1.54.21,3.49,3.49,0,0,1,.54.12,14.17,14.17,0,0,1,10.94,12A12.56,12.56,0,0,1,77.54,84Z"/><path class="cls-2" d="M128.24,41.91l-13.83,16.5v56.06H14.69V14.78h89.6C110.54,4.36,127.12.87,127.12.87V.09H0V129.17H129.11V41.91Z"/></g></g></svg>