<svg width="535" height="497" viewBox="0 0 535 497" fill="none" xmlns="http://www.w3.org/2000/svg">
<g clip-path="url(#clip0)">
<path d="M9.033 385.234H13.1083C13.846 385.28 14.5771 385.071 15.178 384.64C15.4059 384.44 15.5872 384.193 15.7092 383.916C15.8312 383.639 15.8908 383.338 15.8839 383.035C15.8839 381.494 14.9534 380.724 13.0922 380.724H9.033V385.234ZM12.8355 374.977H9.033V379.279H12.8355C13.529 379.329 14.2161 379.117 14.7608 378.685C14.9792 378.48 15.1509 378.231 15.2644 377.954C15.3779 377.677 15.4305 377.379 15.4187 377.08C15.447 376.777 15.4003 376.473 15.2828 376.193C15.1652 375.913 14.9804 375.666 14.7448 375.475C14.1865 375.09 13.5106 374.914 12.8355 374.977V374.977ZM15.194 379.793C15.8569 379.997 16.4356 380.411 16.8435 380.973C17.2513 381.534 17.4663 382.213 17.4563 382.906C17.4828 383.408 17.3972 383.908 17.2057 384.372C17.0142 384.836 16.7216 385.251 16.3492 385.587C15.4646 386.292 14.349 386.641 13.2206 386.566H7.49274V373.532H12.9157C13.979 373.465 15.0285 373.803 15.8519 374.48C16.1916 374.79 16.4605 375.17 16.6404 375.594C16.8204 376.018 16.9071 376.475 16.8947 376.935C16.9237 377.53 16.7742 378.12 16.4654 378.629C16.1566 379.138 15.7027 379.543 15.162 379.793" fill="black"/>
<path d="M20.4406 373.581H18.9805V386.614H20.4406V373.581Z" fill="black"/>
<path d="M24.5319 384.543C24.8144 384.851 25.1579 385.097 25.5404 385.265C25.9229 385.434 26.3362 385.521 26.754 385.521C27.1719 385.521 27.5852 385.434 27.9677 385.265C28.3502 385.097 28.6936 384.851 28.9762 384.543C29.5639 383.791 29.855 382.848 29.7944 381.895C29.8541 380.932 29.5634 379.98 28.9762 379.214C28.6887 378.915 28.3437 378.676 27.9618 378.514C27.5799 378.351 27.1691 378.267 26.754 378.267C26.3389 378.267 25.9281 378.351 25.5463 378.514C25.1644 378.676 24.8194 378.915 24.5319 379.214C23.9446 379.98 23.654 380.932 23.7136 381.895C23.653 382.848 23.9442 383.791 24.5319 384.543V384.543ZM30.0512 385.49C29.1718 386.356 27.9876 386.841 26.754 386.841C25.5204 386.841 24.3362 386.356 23.4569 385.49C22.628 384.476 22.1752 383.205 22.1752 381.895C22.1752 380.584 22.628 379.314 23.4569 378.299C24.3362 377.434 25.5204 376.949 26.754 376.949C27.9876 376.949 29.1718 377.434 30.0512 378.299C30.88 379.314 31.3328 380.584 31.3328 381.895C31.3328 383.205 30.88 384.476 30.0512 385.49" fill="black"/>
<path d="M37.1909 385.523C37.6104 385.541 38.0284 385.462 38.4125 385.292C38.7965 385.122 39.1362 384.866 39.405 384.543C39.9874 383.788 40.278 382.848 40.2233 381.895C40.2761 380.938 39.986 379.993 39.405 379.23C39.1239 378.923 38.7818 378.677 38.4006 378.509C38.0194 378.341 37.6074 378.254 37.1909 378.254C36.7743 378.254 36.3623 378.341 35.9811 378.509C35.5999 378.677 35.2579 378.923 34.9768 379.23C34.4434 380.005 34.1579 380.923 34.1579 381.863C34.1579 382.803 34.4434 383.721 34.9768 384.495C35.2464 384.818 35.5858 385.075 35.9693 385.248C36.3529 385.42 36.7706 385.503 37.1909 385.491V385.523ZM40.2554 378.508V377.208H41.7154V386.293C41.7472 386.851 41.664 387.41 41.4707 387.935C41.2775 388.459 40.9785 388.939 40.5923 389.343C39.7093 390.12 38.5584 390.523 37.3834 390.466C36.3821 390.517 35.393 390.229 34.5756 389.648C34.2231 389.386 33.9315 389.051 33.721 388.666C33.5105 388.281 33.386 387.855 33.3563 387.417H34.8324C35.0088 388.621 35.8592 389.214 37.3834 389.214C37.768 389.24 38.1533 389.179 38.5114 389.037C38.8694 388.894 39.1909 388.673 39.4525 388.39C39.714 388.106 39.9089 387.768 40.0228 387.4C40.1367 387.032 40.1669 386.642 40.111 386.261V385.33C39.7468 385.832 39.2616 386.233 38.7005 386.497C38.1394 386.761 37.5208 386.879 36.9021 386.839C36.3006 386.867 35.7004 386.761 35.1452 386.528C34.59 386.294 34.094 385.94 33.6932 385.491C32.9134 384.451 32.4919 383.187 32.4919 381.887C32.4919 380.587 32.9134 379.323 33.6932 378.283C34.0962 377.838 34.5931 377.487 35.148 377.256C35.7029 377.026 36.302 376.922 36.9021 376.951C37.5281 376.931 38.1493 377.067 38.7096 377.347C39.2698 377.628 39.7515 378.043 40.111 378.556" fill="black"/>
<path d="M47.1705 386.839C44.6355 386.839 43.3038 385.763 43.1594 383.629H44.6355C44.6479 383.914 44.7166 384.195 44.8378 384.454C44.9589 384.713 45.1301 384.945 45.3415 385.137C45.8857 385.483 46.5281 385.641 47.1705 385.587C48.6787 385.587 49.4328 385.105 49.4328 384.126C49.4476 383.939 49.4123 383.751 49.3306 383.582C49.2488 383.412 49.1235 383.268 48.9675 383.163C48.4497 382.861 47.8771 382.664 47.2828 382.585L46.4004 382.425C44.4269 382.056 43.4482 381.125 43.4482 379.632C43.4341 379.257 43.5114 378.884 43.6736 378.546C43.8357 378.207 44.0777 377.913 44.3788 377.69C45.1129 377.171 46.0007 376.917 46.8978 376.967C49.4007 376.967 50.6842 378.011 50.7324 380.097H49.2723C49.2869 379.824 49.2379 379.552 49.1293 379.301C49.0207 379.051 48.8555 378.829 48.6466 378.653C48.1233 378.33 47.5103 378.184 46.8978 378.235C46.3815 378.203 45.8673 378.326 45.4217 378.588C45.2584 378.704 45.1261 378.859 45.0366 379.038C44.947 379.217 44.903 379.416 44.9083 379.616C44.8974 379.796 44.933 379.977 45.0117 380.14C45.0903 380.303 45.2094 380.443 45.3575 380.547C45.808 380.814 46.3023 380.999 46.8175 381.092L47.6679 381.253C48.5635 381.374 49.4167 381.71 50.1548 382.232C50.4121 382.453 50.6154 382.73 50.7489 383.041C50.8824 383.353 50.9426 383.691 50.9249 384.03C50.9416 384.432 50.8598 384.833 50.6864 385.197C50.513 385.56 50.2534 385.876 49.9302 386.117C49.1136 386.653 48.1458 386.912 47.1705 386.855" fill="black"/>
<path d="M261.411 373.581V374.977H253.886V379.134H260.689V380.515H253.886V385.234H261.347V386.614H252.346V373.581H261.411Z" fill="black"/>
<path d="M267.54 380.788H262.246V382.104H267.54V380.788Z" fill="black"/>
<path d="M273.284 386.839C272.683 386.866 272.083 386.759 271.528 386.526C270.973 386.293 270.477 385.939 270.075 385.49C269.295 384.451 268.874 383.186 268.874 381.887C268.874 380.587 269.295 379.323 270.075 378.283C270.477 377.837 270.974 377.485 271.529 377.255C272.084 377.024 272.684 376.921 273.284 376.951C274.284 376.911 275.265 377.236 276.044 377.866C276.78 378.504 277.245 379.4 277.343 380.37H275.739C275.673 379.741 275.362 379.164 274.872 378.765C274.413 378.41 273.849 378.218 273.268 378.219C272.873 378.206 272.481 378.285 272.122 378.449C271.763 378.613 271.446 378.859 271.198 379.166C270.639 379.944 270.367 380.891 270.428 381.847C270.371 382.802 270.643 383.748 271.198 384.527C271.447 384.834 271.764 385.079 272.122 385.243C272.481 385.407 272.873 385.486 273.268 385.474C273.849 385.465 274.412 385.268 274.872 384.913C275.358 384.51 275.668 383.934 275.739 383.307H277.247C277.132 384.292 276.651 385.197 275.899 385.843C275.14 386.476 274.175 386.807 273.188 386.774" fill="black"/>
<path d="M280.777 384.544C281.058 384.852 281.4 385.097 281.781 385.265C282.162 385.433 282.574 385.52 282.991 385.52C283.407 385.52 283.819 385.433 284.201 385.265C284.582 385.097 284.924 384.852 285.205 384.544C285.793 383.791 286.084 382.849 286.023 381.895C286.083 380.932 285.792 379.98 285.205 379.215C284.919 378.916 284.575 378.678 284.195 378.515C283.814 378.352 283.405 378.269 282.991 378.269C282.577 378.269 282.168 378.352 281.787 378.515C281.406 378.678 281.063 378.916 280.777 379.215C280.184 379.978 279.887 380.93 279.942 381.895C279.886 382.851 280.183 383.793 280.777 384.544V384.544ZM286.28 385.491C285.401 386.357 284.216 386.842 282.983 386.842C281.749 386.842 280.565 386.357 279.686 385.491C278.857 384.476 278.404 383.206 278.404 381.895C278.404 380.585 278.857 379.315 279.686 378.3C280.565 377.434 281.749 376.949 282.983 376.949C284.216 376.949 285.401 377.434 286.28 378.3C287.109 379.315 287.562 380.585 287.562 381.895C287.562 383.206 287.109 384.476 286.28 385.491" fill="black"/>
<path d="M299.276 376.951C299.714 376.927 300.151 376.993 300.563 377.145C300.974 377.297 301.349 377.531 301.667 377.834C302.253 378.482 302.558 379.336 302.517 380.21V386.63H301.057V380.418C301.057 379.022 300.399 378.332 299.067 378.332C298.736 378.325 298.407 378.398 298.109 378.543C297.81 378.688 297.551 378.901 297.351 379.166C296.848 379.846 296.604 380.682 296.661 381.526V386.678H295.217V380.418C295.217 379.022 294.559 378.332 293.243 378.332C292.912 378.329 292.585 378.403 292.287 378.548C291.989 378.693 291.729 378.904 291.526 379.166C291.024 379.846 290.779 380.682 290.837 381.526V386.678H289.36V377.208H290.756V378.604C291.013 378.107 291.406 377.692 291.888 377.408C292.371 377.124 292.924 376.982 293.484 376.999C294.096 376.951 294.708 377.098 295.232 377.418C295.756 377.737 296.166 378.215 296.404 378.781C296.672 378.241 297.087 377.788 297.6 377.473C298.114 377.158 298.706 376.994 299.308 376.999" fill="black"/>
<path d="M314.646 376.951C315.084 376.927 315.522 376.993 315.933 377.145C316.344 377.297 316.72 377.531 317.037 377.834C317.332 378.152 317.559 378.526 317.705 378.935C317.851 379.343 317.913 379.777 317.887 380.21V386.63H316.427V380.418C316.427 379.022 315.77 378.332 314.454 378.332C314.12 378.327 313.79 378.399 313.489 378.544C313.188 378.689 312.925 378.902 312.721 379.166C312.226 379.85 311.982 380.683 312.031 381.526V386.678H310.571V380.418C310.571 379.022 309.913 378.332 308.598 378.332C308.264 378.327 307.934 378.399 307.633 378.544C307.332 378.689 307.069 378.902 306.865 379.166C306.37 379.85 306.126 380.683 306.175 381.526V386.678H304.715V377.208H306.111V378.604C306.366 378.105 306.758 377.69 307.241 377.405C307.724 377.121 308.278 376.98 308.838 376.999C309.452 376.955 310.064 377.107 310.586 377.433C311.108 377.759 311.513 378.242 311.742 378.813C312.01 378.273 312.425 377.82 312.939 377.505C313.452 377.19 314.044 377.026 314.646 377.031" fill="black"/>
<path d="M323.984 378.284C323.639 378.271 323.295 378.329 322.972 378.453C322.649 378.577 322.355 378.765 322.107 379.006C321.569 379.574 321.246 380.312 321.193 381.093H326.76C326.723 380.34 326.422 379.624 325.91 379.07C325.665 378.807 325.366 378.6 325.034 378.464C324.701 378.329 324.343 378.267 323.984 378.284V378.284ZM328.332 381.895V382.409H321.16C321.157 383.257 321.459 384.077 322.011 384.72C322.278 384.989 322.599 385.198 322.953 385.334C323.307 385.47 323.686 385.529 324.064 385.507C324.623 385.559 325.183 385.409 325.641 385.086C326.1 384.762 326.428 384.285 326.567 383.741H328.172C327.958 384.632 327.456 385.428 326.744 386.004C325.988 386.586 325.05 386.882 324.097 386.839C323.497 386.864 322.899 386.758 322.345 386.528C321.791 386.297 321.293 385.949 320.888 385.507C320.035 384.503 319.598 383.211 319.668 381.895C319.606 380.588 320.035 379.306 320.872 378.3C321.271 377.848 321.767 377.493 322.322 377.259C322.878 377.026 323.479 376.921 324.081 376.951C324.689 376.919 325.296 377.029 325.853 377.275C326.411 377.52 326.903 377.893 327.289 378.364C328.082 379.366 328.491 380.618 328.445 381.895" fill="black"/>
<path d="M334.493 377.015C334.659 377.001 334.825 377.001 334.991 377.015V378.412H334.622C333.799 378.361 332.987 378.619 332.343 379.134C332.067 379.4 331.852 379.723 331.713 380.081C331.575 380.438 331.516 380.822 331.541 381.205V386.582H330.065V377.208H331.461V378.813C331.733 378.247 332.166 377.773 332.705 377.451C333.244 377.129 333.866 376.972 334.493 376.999" fill="black"/>
<path d="M339.74 386.839C339.139 386.865 338.539 386.758 337.984 386.525C337.429 386.292 336.933 385.939 336.531 385.491C335.751 384.451 335.33 383.187 335.33 381.887C335.33 380.588 335.751 379.323 336.531 378.284C336.933 377.837 337.43 377.486 337.985 377.255C338.54 377.025 339.14 376.921 339.74 376.951C340.74 376.911 341.721 377.236 342.499 377.866C343.236 378.505 343.701 379.4 343.799 380.37H342.275C342.246 380.058 342.154 379.755 342.005 379.479C341.857 379.204 341.653 378.961 341.408 378.765C340.949 378.41 340.385 378.218 339.804 378.22C339.409 378.206 339.017 378.285 338.658 378.449C338.299 378.614 337.982 378.859 337.734 379.167C337.176 379.944 336.903 380.891 336.964 381.847C336.907 382.802 337.179 383.748 337.734 384.528C337.984 384.833 338.301 385.077 338.659 385.242C339.018 385.406 339.41 385.486 339.804 385.475C340.413 385.483 341.007 385.285 341.489 384.913C341.972 384.507 342.287 383.934 342.371 383.308H343.863C343.748 384.293 343.267 385.198 342.516 385.844C341.756 386.477 340.791 386.808 339.804 386.775" fill="black"/>
<path d="M349.254 378.284C348.909 378.27 348.564 378.326 348.241 378.451C347.918 378.575 347.624 378.764 347.377 379.006C346.839 379.574 346.516 380.312 346.462 381.093H352.014C351.981 380.342 351.686 379.626 351.18 379.07C350.935 378.807 350.636 378.6 350.304 378.464C349.971 378.329 349.613 378.267 349.254 378.284V378.284ZM353.602 381.895V382.409H346.414C346.424 383.257 346.731 384.075 347.281 384.72C347.548 384.989 347.869 385.198 348.223 385.334C348.577 385.47 348.956 385.528 349.334 385.507C349.893 385.555 350.45 385.405 350.908 385.082C351.366 384.758 351.696 384.284 351.837 383.741H353.442C353.228 384.632 352.726 385.428 352.014 386.004C351.144 386.623 350.082 386.912 349.019 386.821C347.955 386.73 346.958 386.264 346.206 385.507C345.353 384.503 344.916 383.211 344.986 381.895C344.924 380.588 345.353 379.306 346.19 378.3C346.588 377.846 347.083 377.489 347.639 377.256C348.195 377.022 348.797 376.918 349.399 376.951C350.007 376.919 350.614 377.029 351.171 377.275C351.729 377.52 352.221 377.893 352.607 378.364C353.4 379.366 353.809 380.618 353.763 381.895" fill="black"/>
<path d="M8.15059 480.146H6.69055V493.18H8.15059V480.146Z" fill="black"/>
<path d="M13.2206 492.169C13.9645 492.18 14.6878 491.924 15.2582 491.446C15.5533 491.209 15.7873 490.904 15.9408 490.558C16.0943 490.212 16.1628 489.834 16.1407 489.456V488.332C15.7717 488.573 15.3453 488.712 14.9053 488.734L13.5254 488.894C12.9198 488.933 12.3342 489.126 11.8247 489.456C11.6552 489.594 11.5215 489.772 11.4349 489.973C11.3484 490.174 11.3115 490.393 11.3274 490.612C11.3171 490.825 11.355 491.039 11.4383 491.236C11.5216 491.433 11.6482 491.609 11.8087 491.751C12.213 492.057 12.7149 492.206 13.2206 492.169ZM18.0339 491.992H18.5634V493.18C18.2966 493.206 18.0279 493.206 17.7612 493.18C16.7664 493.18 16.2369 492.73 16.1567 491.815C15.826 492.322 15.366 492.73 14.8243 492.998C14.2826 493.266 13.679 493.384 13.0762 493.34C12.2039 493.392 11.341 493.137 10.6374 492.618C10.3386 492.372 10.1017 492.06 9.94563 491.706C9.78957 491.352 9.71878 490.966 9.73896 490.579C9.73896 488.862 10.9102 487.883 13.2366 487.642L14.6004 487.498C15.5791 487.385 16.0765 486.952 16.0765 486.197C16.0958 485.983 16.0619 485.766 15.978 485.568C15.8941 485.369 15.7626 485.194 15.5952 485.058C15.1026 484.797 14.5466 484.68 13.9907 484.721C13.3749 484.666 12.7576 484.807 12.2258 485.122C12.022 485.306 11.8605 485.531 11.7524 485.783C11.6444 486.036 11.5924 486.308 11.6001 486.583H10.1722C10.3005 484.496 11.5841 483.453 14.0228 483.453C16.3813 483.453 17.5686 484.368 17.5686 486.197V491.478C17.5686 491.783 17.7451 491.928 18.082 491.928" fill="black"/>
<path d="M24.2591 483.517C24.703 483.49 25.1477 483.553 25.5668 483.702C25.9858 483.85 26.3705 484.082 26.6978 484.384C27.0024 484.703 27.238 485.081 27.3898 485.496C27.5416 485.91 27.6065 486.351 27.5803 486.791V493.212H26.1202V486.968C26.1558 486.678 26.1237 486.383 26.0264 486.107C25.9292 485.831 25.7693 485.582 25.5595 485.378C25.3497 485.174 25.0956 485.022 24.8171 484.933C24.5386 484.844 24.2432 484.821 23.9542 484.865C23.616 484.866 23.2813 484.935 22.9699 485.067C22.6585 485.199 22.3768 485.393 22.1412 485.636C21.8667 485.935 21.6556 486.288 21.5205 486.671C21.3854 487.054 21.3291 487.461 21.3551 487.867V493.212H19.895V483.774H21.2909V485.186C21.6009 484.681 22.0386 484.267 22.5597 483.985C23.0808 483.703 23.667 483.564 24.2591 483.581" fill="black"/>
<path d="M31.6877 491.173C31.9635 491.484 32.3056 491.73 32.6889 491.891C33.0721 492.052 33.4866 492.125 33.9018 492.104C34.3213 492.123 34.7393 492.044 35.1234 491.874C35.5074 491.704 35.8471 491.448 36.1159 491.125C36.7036 490.372 36.9948 489.43 36.9342 488.477C36.9889 487.524 36.6983 486.584 36.1159 485.828C35.8471 485.506 35.5074 485.249 35.1234 485.079C34.7393 484.91 34.3213 484.831 33.9018 484.849C33.4815 484.836 33.0638 484.919 32.6802 485.092C32.2967 485.264 31.9573 485.521 31.6877 485.844C31.1013 486.623 30.8062 487.583 30.8534 488.557C30.8007 489.502 31.0977 490.433 31.6877 491.173V491.173ZM36.9021 485.09V480.146H38.3621V493.18H36.9021V491.719C36.5596 492.255 36.0836 492.692 35.521 492.987C34.9583 493.283 34.3283 493.427 33.6932 493.405C33.0915 493.435 32.4905 493.33 31.935 493.097C31.3795 492.863 30.8836 492.508 30.4843 492.056C29.7046 491.017 29.283 489.752 29.283 488.453C29.283 487.153 29.7046 485.888 30.4843 484.849C30.8866 484.402 31.3834 484.051 31.9385 483.821C32.4935 483.59 33.093 483.486 33.6932 483.517C34.3202 483.491 34.9435 483.624 35.5047 483.905C36.066 484.186 36.5468 484.605 36.9021 485.122" fill="black"/>
<path d="M40.5442 493.18H42.0042V483.741H40.5442V493.18ZM40.5442 482.313H42.1486V480.515H40.5442V482.313Z" fill="black"/>
<path d="M48.5664 483.517C49.0126 483.491 49.4594 483.555 49.8809 483.703C50.3023 483.852 50.6899 484.083 51.0212 484.384C51.3258 484.703 51.5613 485.081 51.7132 485.495C51.865 485.91 51.9298 486.351 51.9036 486.791V493.212H50.4276V486.968C50.466 486.678 50.4364 486.384 50.3411 486.108C50.2459 485.832 50.0876 485.582 49.8789 485.378C49.6702 485.174 49.4168 485.021 49.1389 484.932C48.8609 484.843 48.566 484.82 48.2776 484.865C47.9389 484.863 47.6034 484.931 47.2916 485.063C46.9798 485.196 46.6984 485.39 46.4646 485.636C46.1869 485.933 45.9737 486.285 45.8385 486.669C45.7032 487.053 45.6487 487.461 45.6784 487.867V493.212H44.2023V483.774H45.5982V485.186C45.9094 484.682 46.3473 484.269 46.8682 483.987C47.389 483.706 47.9746 483.565 48.5664 483.581" fill="black"/>
<path d="M58.209 492.088C58.6285 492.106 59.0466 492.027 59.4306 491.857C59.8147 491.688 60.1543 491.431 60.4232 491.109C60.9657 490.332 61.2567 489.408 61.2567 488.46C61.2567 487.513 60.9657 486.588 60.4232 485.812C60.1462 485.5 59.8064 485.251 59.4262 485.08C59.0459 484.909 58.6339 484.821 58.2171 484.821C57.8003 484.821 57.3882 484.909 57.0079 485.08C56.6277 485.251 56.2879 485.5 56.011 485.812C55.4689 486.582 55.178 487.502 55.178 488.444C55.178 489.386 55.4689 490.306 56.011 491.077C56.2765 491.4 56.6129 491.658 56.994 491.831C57.3752 492.003 57.7909 492.086 58.209 492.072V492.088ZM61.2735 485.089V483.725H62.6533V492.778C62.6852 493.336 62.6019 493.895 62.4087 494.42C62.2155 494.944 61.9165 495.424 61.5302 495.828C61.0962 496.218 60.5891 496.518 60.0383 496.711C59.4875 496.904 58.9039 496.986 58.3213 496.951C57.3178 496.999 56.3261 496.717 55.4975 496.149C55.1483 495.882 54.8603 495.543 54.6527 495.156C54.4452 494.768 54.3229 494.34 54.2942 493.902H55.7542C55.9307 495.106 56.7811 495.699 58.3213 495.699C58.7142 495.747 59.1129 495.705 59.4866 495.574C59.8602 495.443 60.1989 495.229 60.4765 494.946C60.754 494.664 60.963 494.322 61.0873 493.946C61.2116 493.57 61.2478 493.17 61.1933 492.778V491.863C60.8253 492.36 60.3389 492.757 59.7784 493.017C59.218 493.278 58.6013 493.394 57.9844 493.356C57.3831 493.383 56.7832 493.276 56.2282 493.043C55.6732 492.81 55.177 492.456 54.7755 492.008C53.9958 490.968 53.5742 489.704 53.5742 488.404C53.5742 487.104 53.9958 485.84 54.7755 484.8C55.1785 484.355 55.6754 484.004 56.2303 483.774C56.7852 483.543 57.3843 483.439 57.9844 483.468C58.6107 483.447 59.2324 483.582 59.7929 483.863C60.3534 484.143 60.8348 484.559 61.1933 485.073" fill="black"/>
<path d="M72.7774 492.088C73.1978 492.102 73.6159 492.019 73.9997 491.847C74.3834 491.674 74.7227 491.417 74.9915 491.093C75.5841 490.317 75.88 489.355 75.8258 488.38C75.882 487.442 75.5907 486.516 75.0075 485.78C74.7301 485.465 74.3857 485.217 73.9998 485.053C73.6139 484.889 73.1962 484.814 72.7774 484.833C72.3615 484.819 71.9476 484.896 71.565 485.06C71.1824 485.223 70.8404 485.469 70.5632 485.78C69.9786 486.546 69.6883 487.498 69.745 488.46C69.6772 489.439 69.9809 490.408 70.5953 491.173C70.8657 491.494 71.2057 491.749 71.5893 491.918C71.973 492.088 72.3903 492.168 72.8095 492.152L72.7774 492.088ZM73.002 483.581C73.6013 483.558 74.1984 483.665 74.7523 483.895C75.3062 484.125 75.8038 484.472 76.2109 484.913C76.9809 485.956 77.3964 487.219 77.3964 488.516C77.3964 489.814 76.9809 491.076 76.2109 492.12C75.8066 492.565 75.3099 492.917 74.7556 493.149C74.2013 493.382 73.6028 493.491 73.002 493.468C72.3753 493.493 71.7525 493.359 71.1915 493.078C70.6305 492.797 70.1495 492.38 69.7931 491.863V496.807H68.3331V483.773H69.7289V485.234C70.081 484.713 70.5611 484.292 71.1232 484.011C71.6852 483.73 72.3102 483.598 72.9378 483.629" fill="black"/>
<path d="M81.8265 492.168C82.5742 492.174 83.3006 491.919 83.8801 491.446C84.1703 491.205 84.3998 490.9 84.5503 490.554C84.7008 490.208 84.768 489.832 84.7465 489.456V488.332C84.3789 488.576 83.9518 488.715 83.5111 488.733L82.1313 488.894C81.5589 488.948 81.0082 489.141 80.5269 489.456C80.3544 489.592 80.2176 489.769 80.1282 489.97C80.0388 490.172 79.9994 490.391 80.0134 490.611C80.0032 490.825 80.0411 491.039 80.1244 491.236C80.2077 491.433 80.3343 491.609 80.4948 491.751C80.9004 492.054 81.4013 492.203 81.9067 492.168H81.8265ZM86.72 491.992H87.2495V493.179C86.9827 493.205 86.714 493.205 86.4472 493.179C85.4685 493.179 84.923 492.73 84.8428 491.815C84.5121 492.321 84.0521 492.73 83.5104 492.998C82.9687 493.266 82.3651 493.384 81.7623 493.34C80.8903 493.389 80.0283 493.134 79.3235 492.618C79.0267 492.371 78.7921 492.058 78.6388 491.704C78.4854 491.35 78.4177 490.964 78.4411 490.579C78.4411 488.862 79.5963 487.883 81.9227 487.642L83.2865 487.497C84.2813 487.385 84.7626 486.952 84.7626 486.197C84.7819 485.982 84.748 485.766 84.6641 485.567C84.5802 485.369 84.4487 485.193 84.2813 485.058C83.7472 484.814 83.1673 484.689 82.5806 484.689C81.9938 484.689 81.4139 484.814 80.8798 485.058C80.6789 485.243 80.5204 485.469 80.4152 485.721C80.3099 485.973 80.2605 486.245 80.2702 486.518H78.7941C78.9224 484.432 80.206 483.388 82.6447 483.388C85.0032 483.388 86.1905 484.303 86.1905 486.133V491.414C86.1905 491.719 86.367 491.863 86.704 491.863" fill="black"/>
<path d="M92.3997 492.088C92.8216 492.12 93.2451 492.053 93.6374 491.895C94.0296 491.736 94.3802 491.489 94.6619 491.173C95.1959 490.394 95.4816 489.47 95.4816 488.525C95.4816 487.58 95.1959 486.656 94.6619 485.876C94.3821 485.567 94.0405 485.319 93.6591 485.15C93.2778 484.98 92.8651 484.893 92.4478 484.893C92.0305 484.893 91.6178 484.98 91.2365 485.15C90.8551 485.319 90.5135 485.567 90.2337 485.876C89.6916 486.647 89.4007 487.567 89.4007 488.509C89.4007 489.451 89.6916 490.371 90.2337 491.141C90.5033 491.464 90.8427 491.722 91.2262 491.894C91.6098 492.066 92.0275 492.149 92.4478 492.137L92.3997 492.088ZM95.4962 485.154V483.79H96.8921V492.779C96.9209 493.338 96.8346 493.897 96.6387 494.422C96.4427 494.946 96.1413 495.425 95.7529 495.828C95.3189 496.219 94.8118 496.519 94.261 496.712C93.7102 496.905 93.1266 496.986 92.5441 496.952C91.5405 497 90.5488 496.718 89.7203 496.149C89.371 495.882 89.083 495.544 88.8754 495.156C88.6679 494.768 88.5456 494.341 88.5169 493.902H89.8486C90.0411 495.106 90.8915 495.7 92.4157 495.7C92.8159 495.765 93.2257 495.734 93.6119 495.611C93.9982 495.488 94.35 495.275 94.639 494.991C94.928 494.707 95.146 494.358 95.2754 493.974C95.4048 493.589 95.442 493.18 95.3839 492.779V491.864C95.0129 492.357 94.526 492.752 93.9663 493.012C93.4066 493.272 92.7914 493.391 92.175 493.356C91.5733 493.387 90.9723 493.282 90.4168 493.049C89.8613 492.815 89.3655 492.46 88.9662 492.008C88.1764 490.973 87.7485 489.707 87.7485 488.405C87.7485 487.102 88.1764 485.836 88.9662 484.801C89.3663 484.352 89.8626 483.998 90.4183 483.768C90.9739 483.537 91.5744 483.435 92.175 483.469C92.8015 483.446 93.4238 483.581 93.9845 483.861C94.5453 484.142 95.0265 484.559 95.3839 485.074" fill="black"/>
<path d="M102.941 484.849C102.593 484.836 102.246 484.894 101.921 485.018C101.596 485.142 101.299 485.33 101.048 485.571C100.525 486.149 100.204 486.882 100.133 487.658H105.7C105.668 486.907 105.372 486.191 104.866 485.635C104.62 485.375 104.32 485.17 103.988 485.034C103.656 484.899 103.299 484.835 102.941 484.849ZM107.273 488.461V488.974H100.101C100.104 489.824 100.411 490.644 100.967 491.286C101.232 491.554 101.55 491.763 101.901 491.899C102.253 492.034 102.629 492.094 103.005 492.072C103.566 492.125 104.127 491.976 104.589 491.652C105.05 491.329 105.382 490.852 105.524 490.306H107.032C106.823 491.031 106.426 491.688 105.882 492.211C105.338 492.733 104.666 493.102 103.933 493.282C103.201 493.461 102.434 493.443 101.71 493.231C100.987 493.018 100.332 492.619 99.8122 492.072C99.0172 491.039 98.5862 489.772 98.5862 488.469C98.5862 487.165 99.0172 485.898 99.8122 484.865C100.209 484.411 100.705 484.053 101.261 483.82C101.817 483.586 102.419 483.482 103.021 483.517C103.629 483.483 104.237 483.593 104.795 483.838C105.352 484.084 105.844 484.457 106.23 484.929C107.022 485.932 107.432 487.183 107.385 488.461" fill="black"/>
<path d="M112.311 493.404C109.776 493.404 108.444 492.329 108.3 490.194H109.776C109.788 490.48 109.857 490.76 109.978 491.019C110.099 491.278 110.27 491.51 110.482 491.703C111.026 492.049 111.668 492.206 112.311 492.152C113.819 492.152 114.573 491.671 114.573 490.692C114.585 490.505 114.548 490.318 114.466 490.149C114.385 489.981 114.261 489.836 114.108 489.729C113.613 489.438 113.069 489.243 112.503 489.151L111.621 488.99C109.647 488.621 108.669 487.69 108.669 486.213C108.655 485.836 108.732 485.461 108.894 485.12C109.056 484.779 109.298 484.482 109.599 484.255C110.332 483.734 111.221 483.48 112.118 483.533C114.605 483.533 115.889 484.576 115.953 486.663H114.493C114.506 486.39 114.457 486.118 114.348 485.868C114.24 485.617 114.075 485.395 113.867 485.218C113.313 484.853 112.65 484.689 111.99 484.753C111.471 484.716 110.954 484.846 110.514 485.122C110.35 485.233 110.216 485.384 110.127 485.561C110.037 485.738 109.993 485.935 110 486.133C109.988 486.316 110.023 486.499 110.102 486.665C110.18 486.831 110.3 486.974 110.45 487.08C110.897 487.351 111.393 487.531 111.91 487.61L112.744 487.77C113.649 487.886 114.509 488.229 115.247 488.766C115.505 488.982 115.709 489.256 115.842 489.565C115.976 489.875 116.036 490.211 116.017 490.547C116.035 490.952 115.952 491.354 115.775 491.718C115.599 492.083 115.334 492.397 115.006 492.634C114.197 493.173 113.233 493.432 112.263 493.372" fill="black"/>
<path d="M118.071 493.18H116.643L121.312 480.146H122.74L118.071 493.18Z" fill="black"/>
<path d="M125.387 480.146V491.799H131.933V493.18H123.847V480.146H125.387Z" fill="black"/>
<path d="M136.746 484.849C136.401 484.837 136.057 484.895 135.734 485.019C135.412 485.143 135.117 485.331 134.869 485.571C134.334 486.141 134.011 486.878 133.955 487.658H139.586C139.549 486.905 139.248 486.189 138.736 485.636C138.491 485.372 138.192 485.166 137.86 485.03C137.527 484.894 137.169 484.832 136.81 484.849H136.746ZM141.159 488.461V488.974H133.923C133.92 489.822 134.221 490.642 134.773 491.286C135.04 491.555 135.361 491.764 135.715 491.899C136.069 492.035 136.448 492.094 136.827 492.072C137.386 492.124 137.945 491.975 138.403 491.651C138.862 491.327 139.191 490.851 139.329 490.307H140.934C140.72 491.198 140.218 491.994 139.506 492.57C138.754 493.148 137.822 493.444 136.875 493.405C136.275 493.429 135.677 493.323 135.123 493.093C134.569 492.863 134.072 492.515 133.666 492.072C132.813 491.069 132.376 489.776 132.446 488.461C132.384 487.154 132.813 485.871 133.65 484.865C134.049 484.414 134.545 484.058 135.1 483.825C135.656 483.591 136.257 483.486 136.859 483.517C137.467 483.484 138.074 483.595 138.631 483.84C139.189 484.086 139.681 484.459 140.068 484.929C140.86 485.932 141.269 487.184 141.223 488.461" fill="black"/>
<path d="M145.603 492.169C146.347 492.181 147.07 491.924 147.64 491.446C147.935 491.209 148.169 490.905 148.323 490.558C148.476 490.212 148.545 489.834 148.523 489.456V488.333C148.154 488.573 147.728 488.712 147.287 488.734L145.908 488.894C145.302 488.933 144.716 489.126 144.207 489.456C144.037 489.595 143.904 489.772 143.817 489.973C143.731 490.174 143.694 490.393 143.71 490.612C143.699 490.826 143.737 491.039 143.821 491.236C143.904 491.434 144.03 491.61 144.191 491.751C144.595 492.058 145.097 492.206 145.603 492.169V492.169ZM150.416 491.992H150.946V493.18C150.679 493.206 150.41 493.206 150.143 493.18C149.149 493.18 148.539 492.731 148.539 491.816C148.208 492.322 147.748 492.73 147.206 492.998C146.665 493.266 146.061 493.385 145.458 493.341C144.586 493.392 143.723 493.137 143.02 492.618C142.721 492.372 142.484 492.06 142.328 491.706C142.172 491.352 142.101 490.966 142.121 490.58C142.121 488.862 143.292 487.883 145.619 487.642L146.983 487.498C147.961 487.385 148.459 486.952 148.459 486.198C148.478 485.983 148.444 485.766 148.36 485.568C148.276 485.369 148.145 485.194 147.977 485.058C147.443 484.815 146.863 484.689 146.277 484.689C145.69 484.689 145.11 484.815 144.576 485.058C144.372 485.242 144.211 485.467 144.103 485.72C143.995 485.972 143.943 486.244 143.95 486.519H142.49C142.619 484.432 143.902 483.389 146.341 483.389C148.699 483.389 149.887 484.304 149.887 486.133V491.414C149.887 491.719 150.063 491.864 150.4 491.864" fill="black"/>
<path d="M154.026 491.173C154.302 491.485 154.644 491.73 155.027 491.891C155.411 492.052 155.825 492.125 156.24 492.104C156.666 492.139 157.095 492.072 157.49 491.911C157.886 491.749 158.238 491.496 158.519 491.173C159.106 490.421 159.397 489.478 159.337 488.525C159.392 487.572 159.101 486.632 158.519 485.876C158.242 485.565 157.902 485.315 157.522 485.145C157.141 484.974 156.729 484.886 156.312 484.886C155.896 484.886 155.484 484.974 155.103 485.145C154.723 485.315 154.383 485.565 154.106 485.876C153.514 486.652 153.218 487.614 153.272 488.589C153.203 489.513 153.471 490.431 154.026 491.173V491.173ZM159.225 485.106V480.162H160.685V493.196H159.305V491.735C158.959 492.267 158.482 492.702 157.92 492.997C157.358 493.292 156.73 493.438 156.096 493.421C155.494 493.449 154.894 493.343 154.339 493.109C153.784 492.876 153.288 492.522 152.887 492.072C152.107 491.033 151.686 489.768 151.686 488.469C151.686 487.169 152.107 485.905 152.887 484.865C153.29 484.419 153.787 484.069 154.342 483.838C154.897 483.608 155.496 483.504 156.096 483.533C156.723 483.505 157.347 483.638 157.908 483.919C158.47 484.2 158.951 484.619 159.305 485.138" fill="black"/>
<path d="M166.284 493.404C163.765 493.404 162.417 492.329 162.273 490.194H163.765C163.772 490.479 163.836 490.76 163.955 491.019C164.074 491.279 164.244 491.511 164.455 491.703C164.999 492.048 165.642 492.206 166.284 492.152C167.792 492.152 168.546 491.671 168.546 490.692C168.561 490.504 168.526 490.316 168.444 490.147C168.362 489.978 168.237 489.833 168.081 489.729C167.563 489.426 166.991 489.23 166.396 489.151L165.514 488.99C163.557 488.621 162.562 487.69 162.562 486.213C162.55 485.836 162.629 485.462 162.791 485.122C162.953 484.781 163.193 484.484 163.492 484.255C164.226 483.737 165.114 483.482 166.011 483.533C168.514 483.533 169.798 484.576 169.846 486.663H168.466C168.479 486.39 168.43 486.118 168.321 485.868C168.213 485.617 168.048 485.395 167.84 485.218C167.317 484.895 166.704 484.749 166.092 484.801C165.578 484.762 165.065 484.892 164.631 485.17C164.465 485.279 164.33 485.43 164.24 485.607C164.15 485.785 164.108 485.982 164.118 486.181C164.106 486.363 164.139 486.544 164.214 486.71C164.29 486.875 164.406 487.019 164.551 487.128C165 487.396 165.495 487.575 166.011 487.658L166.862 487.818C167.765 487.941 168.624 488.283 169.365 488.814C169.618 489.033 169.817 489.308 169.948 489.617C170.079 489.926 170.137 490.26 170.119 490.595C170.135 490.998 170.054 491.398 169.88 491.762C169.707 492.126 169.447 492.442 169.124 492.682C168.307 493.219 167.34 493.478 166.364 493.42" fill="black"/>
<path d="M172.108 493.18H170.68L175.349 480.146H176.777L172.108 493.18Z" fill="black"/>
<path d="M182.986 493.485C182.171 493.509 181.361 493.357 180.61 493.039C179.859 492.72 179.187 492.242 178.638 491.639C177.547 490.213 176.955 488.467 176.955 486.671C176.955 484.875 177.547 483.129 178.638 481.703C179.185 481.097 179.857 480.618 180.608 480.299C181.359 479.98 182.171 479.829 182.986 479.857C184.273 479.823 185.534 480.224 186.564 480.997C187.602 481.833 188.299 483.021 188.522 484.336H186.917C186.749 483.423 186.25 482.605 185.515 482.039C184.781 481.473 183.863 481.199 182.938 481.27C182.329 481.245 181.723 481.361 181.167 481.609C180.61 481.857 180.118 482.23 179.729 482.698C178.944 483.871 178.525 485.251 178.525 486.663C178.525 488.075 178.944 489.455 179.729 490.628C180.118 491.099 180.609 491.474 181.165 491.724C181.722 491.975 182.328 492.094 182.938 492.072C183.906 492.076 184.846 491.747 185.601 491.141C186.406 490.462 186.913 489.494 187.013 488.445H188.618C188.576 489.158 188.391 489.855 188.074 490.495C187.757 491.135 187.315 491.704 186.773 492.169C185.709 493.036 184.374 493.502 183.002 493.485" fill="black"/>
<path d="M191.875 486.775H195.741C196.109 486.803 196.478 486.757 196.828 486.642C197.177 486.526 197.501 486.342 197.779 486.101C198.024 485.843 198.211 485.537 198.33 485.203C198.449 484.868 198.496 484.513 198.469 484.159C198.495 483.802 198.447 483.444 198.328 483.108C198.209 482.771 198.022 482.462 197.779 482.2C197.211 481.725 196.48 481.489 195.741 481.542H191.859L191.875 486.775ZM190.27 480.146H195.741C196.321 480.105 196.902 480.179 197.453 480.363C198.004 480.548 198.513 480.839 198.95 481.221C199.333 481.605 199.63 482.064 199.824 482.57C200.017 483.076 200.102 483.618 200.073 484.159C200.104 484.697 200.02 485.236 199.826 485.74C199.633 486.244 199.334 486.7 198.95 487.08C198.513 487.464 198.005 487.758 197.454 487.945C196.904 488.132 196.322 488.209 195.741 488.171H191.859V493.179H190.254L190.27 480.146Z" fill="black"/>
<path d="M202.496 487.851V488.011H207.31L207.229 487.835C206.924 487.096 206.138 485.09 204.855 481.815C203.988 484.127 203.25 486.149 202.528 487.851H202.496ZM211 493.18H209.395L207.871 489.392H201.935L200.442 493.18H198.838L204.036 480.146H205.769L211 493.18Z" fill="black"/>
<path d="M260.096 493.485C258.681 493.57 257.28 493.161 256.133 492.329C255.639 491.907 255.251 491.375 255.001 490.775C254.75 490.176 254.643 489.526 254.689 488.878H256.293C256.293 491.013 257.609 492.088 260.112 492.088C260.975 492.144 261.834 491.924 262.566 491.462C262.847 491.254 263.071 490.979 263.219 490.662C263.368 490.346 263.436 489.998 263.417 489.648C263.427 489.366 263.368 489.085 263.245 488.83C263.122 488.576 262.939 488.355 262.711 488.188C261.95 487.737 261.112 487.432 260.24 487.289L259.085 487.032C258.007 486.834 256.994 486.377 256.133 485.7C255.797 485.392 255.533 485.014 255.361 484.592C255.189 484.17 255.113 483.715 255.138 483.26C255.123 482.779 255.225 482.301 255.434 481.868C255.644 481.435 255.955 481.059 256.341 480.772C257.283 480.126 258.409 479.805 259.55 479.857C260.358 479.845 261.164 479.953 261.941 480.178C262.544 480.352 263.094 480.672 263.545 481.109C263.903 481.48 264.186 481.916 264.379 482.393C264.571 482.906 264.664 483.451 264.652 483.998H263.048C263.049 483.615 262.969 483.235 262.814 482.884C262.66 482.533 262.433 482.218 262.149 481.96C261.375 481.455 260.455 481.223 259.534 481.302C258.788 481.252 258.046 481.444 257.416 481.847C257.18 482.013 256.989 482.234 256.86 482.492C256.731 482.75 256.669 483.036 256.678 483.324C256.667 483.603 256.718 483.88 256.83 484.136C256.941 484.392 257.108 484.619 257.32 484.801C258.049 485.288 258.876 485.611 259.743 485.748L260.898 486.005C262.036 486.181 263.109 486.651 264.01 487.369C264.326 487.669 264.574 488.034 264.738 488.438C264.901 488.842 264.976 489.277 264.957 489.713C264.979 490.251 264.873 490.786 264.647 491.274C264.421 491.763 264.082 492.19 263.657 492.522C262.608 493.257 261.343 493.618 260.063 493.549" fill="black"/>
<path d="M268.727 491.173C269.009 491.481 269.351 491.726 269.732 491.895C270.113 492.063 270.525 492.149 270.942 492.149C271.358 492.149 271.77 492.063 272.151 491.895C272.532 491.726 272.875 491.481 273.156 491.173C273.743 490.42 274.035 489.478 273.974 488.525C274.031 487.562 273.74 486.611 273.156 485.844C272.87 485.545 272.526 485.307 272.145 485.144C271.765 484.982 271.355 484.898 270.942 484.898C270.528 484.898 270.118 484.982 269.738 485.144C269.357 485.307 269.013 485.545 268.727 485.844C268.137 486.609 267.841 487.56 267.893 488.525C267.837 489.48 268.134 490.423 268.727 491.173ZM274.231 492.12C273.351 492.986 272.167 493.471 270.934 493.471C269.7 493.471 268.516 492.986 267.636 492.12C266.816 491.102 266.369 489.833 266.369 488.525C266.369 487.217 266.816 485.948 267.636 484.929C268.516 484.064 269.7 483.579 270.934 483.579C272.167 483.579 273.351 484.064 274.231 484.929C275.06 485.944 275.512 487.214 275.512 488.525C275.512 489.835 275.06 491.106 274.231 492.12Z" fill="black"/>
<path d="M281.178 493.405C280.577 493.431 279.977 493.323 279.422 493.09C278.867 492.857 278.371 492.504 277.969 492.056C277.189 491.017 276.768 489.752 276.768 488.453C276.768 487.153 277.189 485.889 277.969 484.849C278.371 484.402 278.868 484.051 279.423 483.821C279.978 483.59 280.578 483.486 281.178 483.517C282.178 483.477 283.159 483.802 283.937 484.432C284.674 485.07 285.139 485.966 285.237 486.936H283.713C283.684 486.624 283.592 486.321 283.443 486.045C283.295 485.769 283.091 485.526 282.846 485.331C282.384 484.981 281.822 484.79 281.242 484.785C280.847 484.772 280.455 484.85 280.096 485.015C279.737 485.179 279.42 485.425 279.172 485.732C278.67 486.536 278.404 487.465 278.404 488.413C278.404 489.361 278.67 490.289 279.172 491.093C279.422 491.399 279.739 491.643 280.097 491.807C280.456 491.971 280.848 492.051 281.242 492.04C281.851 492.049 282.445 491.851 282.927 491.478C283.41 491.072 283.725 490.5 283.809 489.873H285.301C285.186 490.858 284.705 491.763 283.954 492.409C283.194 493.042 282.229 493.373 281.242 493.34" fill="black"/>
<path d="M286.793 493.18H288.253V483.741H286.793V493.18ZM286.793 482.313H288.398V480.515H286.793V482.313Z" fill="black"/>
<path d="M293.307 492.169C294.057 492.183 294.786 491.926 295.361 491.446C295.656 491.209 295.89 490.904 296.044 490.558C296.197 490.212 296.266 489.834 296.244 489.456V488.332C295.869 488.573 295.437 488.711 294.992 488.734L293.628 488.894C293.023 488.933 292.437 489.126 291.928 489.456C291.758 489.594 291.624 489.772 291.538 489.973C291.451 490.174 291.414 490.393 291.43 490.612C291.42 490.824 291.457 491.036 291.537 491.233C291.617 491.43 291.74 491.607 291.896 491.751C292.301 492.055 292.802 492.203 293.307 492.169V492.169ZM298.121 491.992H298.65V493.18C298.383 493.206 298.115 493.206 297.848 493.18C297.65 493.212 297.448 493.202 297.255 493.148C297.062 493.094 296.882 492.999 296.73 492.87C296.577 492.74 296.454 492.578 296.37 492.396C296.287 492.214 296.243 492.016 296.244 491.815C295.915 492.32 295.458 492.728 294.919 492.996C294.38 493.264 293.779 493.383 293.179 493.34C292.302 493.392 291.434 493.136 290.724 492.618C290.427 492.371 290.193 492.058 290.039 491.704C289.886 491.35 289.818 490.965 289.842 490.579C289.842 488.862 291.013 487.899 293.34 487.642L294.687 487.498C295.682 487.38 296.179 486.946 296.179 486.197C296.199 485.983 296.165 485.766 296.081 485.568C295.997 485.369 295.865 485.194 295.698 485.058C295.204 484.802 294.649 484.685 294.094 484.721C293.478 484.668 292.861 484.809 292.329 485.122C292.13 485.309 291.973 485.536 291.868 485.787C291.763 486.039 291.712 486.31 291.719 486.583H290.259C290.371 484.496 291.655 483.453 294.094 483.453C296.532 483.453 297.655 484.368 297.655 486.197V491.478C297.655 491.783 297.816 491.928 298.169 491.928" fill="black"/>
<path d="M301.362 480.146H299.902V493.18H301.362V480.146Z" fill="black"/>
<path d="M316.989 483.517C317.427 483.493 317.864 483.559 318.276 483.711C318.687 483.863 319.062 484.097 319.38 484.4C319.966 485.048 320.271 485.902 320.23 486.775V493.196H318.754V486.936C318.754 485.539 318.096 484.849 316.78 484.849C316.447 484.844 316.116 484.917 315.815 485.062C315.515 485.207 315.252 485.42 315.048 485.684C314.558 486.369 314.32 487.203 314.374 488.043V493.196H312.866V486.936C312.866 485.539 312.208 484.849 310.892 484.849C310.561 484.844 310.233 484.917 309.934 485.062C309.636 485.207 309.376 485.42 309.175 485.684C308.667 486.361 308.417 487.198 308.469 488.043V493.196H307.009V483.758H308.405V485.138C308.662 484.64 309.055 484.226 309.537 483.942C310.02 483.658 310.573 483.516 311.133 483.533C311.743 483.484 312.353 483.63 312.875 483.95C313.397 484.27 313.804 484.748 314.037 485.315C314.306 484.773 314.723 484.317 315.24 484.002C315.756 483.687 316.352 483.524 316.957 483.533" fill="black"/>
<path d="M326.327 484.849C325.979 484.836 325.632 484.893 325.306 485.017C324.981 485.141 324.684 485.33 324.434 485.571C323.911 486.149 323.59 486.882 323.519 487.658H329.086C329.049 486.905 328.748 486.189 328.236 485.636C327.994 485.374 327.698 485.168 327.368 485.032C327.038 484.896 326.683 484.834 326.327 484.849V484.849ZM330.659 488.461V488.974H323.487C323.484 489.822 323.786 490.642 324.337 491.286C324.606 491.553 324.927 491.761 325.281 491.897C325.635 492.032 326.013 492.092 326.391 492.072C326.952 492.125 327.513 491.976 327.975 491.653C328.436 491.329 328.768 490.852 328.91 490.307H330.418C330.215 491.219 329.696 492.03 328.954 492.597C328.211 493.163 327.292 493.45 326.359 493.405C325.759 493.428 325.162 493.321 324.608 493.091C324.054 492.861 323.556 492.514 323.15 492.072C322.365 491.035 321.941 489.77 321.941 488.469C321.941 487.168 322.365 485.902 323.15 484.865C323.55 484.415 324.046 484.06 324.601 483.826C325.157 483.593 325.757 483.487 326.359 483.517C326.967 483.483 327.575 483.593 328.132 483.838C328.69 484.084 329.182 484.458 329.568 484.929C330.36 485.932 330.77 487.184 330.723 488.461" fill="black"/>
<path d="M334.301 491.173C334.577 491.484 334.919 491.73 335.302 491.891C335.685 492.052 336.1 492.125 336.515 492.104C336.934 492.123 337.352 492.044 337.737 491.874C338.121 491.704 338.46 491.448 338.729 491.125C339.323 490.375 339.619 489.432 339.563 488.477C339.614 487.522 339.317 486.582 338.729 485.828C338.452 485.517 338.112 485.267 337.732 485.096C337.352 484.926 336.94 484.837 336.523 484.837C336.106 484.837 335.694 484.926 335.314 485.096C334.934 485.267 334.594 485.517 334.317 485.828C333.724 486.604 333.428 487.566 333.483 488.541C333.424 489.484 333.715 490.416 334.301 491.157V491.173ZM339.499 485.09V480.146H340.959V493.18H339.579V491.719C339.235 492.252 338.758 492.688 338.196 492.983C337.634 493.278 337.005 493.423 336.371 493.405C335.769 493.432 335.169 493.325 334.614 493.092C334.059 492.859 333.563 492.505 333.162 492.056C332.382 491.017 331.96 489.752 331.96 488.453C331.96 487.153 332.382 485.888 333.162 484.849C333.565 484.403 334.062 484.053 334.616 483.822C335.171 483.592 335.77 483.487 336.371 483.517C336.998 483.489 337.622 483.622 338.183 483.903C338.745 484.184 339.225 484.603 339.579 485.122" fill="black"/>
<path d="M343.157 493.18H344.633V483.741H343.157V493.18ZM343.157 482.313H344.762V480.515H343.157V482.313Z" fill="black"/>
<path d="M349.768 492.169C350.511 492.181 351.235 491.924 351.805 491.446C352.1 491.209 352.334 490.905 352.488 490.558C352.641 490.212 352.71 489.834 352.688 489.456V488.333C352.319 488.573 351.892 488.712 351.452 488.734L350.072 488.894C349.467 488.936 348.882 489.129 348.372 489.456C348.204 489.596 348.072 489.774 347.986 489.975C347.899 490.175 347.861 490.394 347.874 490.612C347.864 490.826 347.902 491.039 347.985 491.236C348.069 491.434 348.195 491.61 348.356 491.751C348.761 492.055 349.262 492.203 349.768 492.169V492.169ZM354.581 491.992H355.11V493.18C354.844 493.206 354.575 493.206 354.308 493.18C353.313 493.18 352.784 492.731 352.704 491.816C352.373 492.322 351.913 492.73 351.371 492.998C350.83 493.266 350.226 493.385 349.623 493.341C348.751 493.392 347.888 493.137 347.184 492.618C346.886 492.372 346.649 492.06 346.493 491.706C346.337 491.352 346.266 490.966 346.286 490.58C346.286 488.862 347.457 487.899 349.784 487.642L351.147 487.498C352.126 487.385 352.624 486.952 352.624 486.198C352.643 485.983 352.609 485.766 352.525 485.568C352.441 485.369 352.31 485.194 352.142 485.058C351.608 484.815 351.028 484.689 350.441 484.689C349.855 484.689 349.275 484.815 348.741 485.058C348.54 485.243 348.381 485.469 348.276 485.722C348.171 485.974 348.121 486.246 348.131 486.519H346.655C346.783 484.432 348.067 483.389 350.506 483.389C352.864 483.389 354.051 484.304 354.051 486.133V491.414C354.051 491.719 354.228 491.864 354.565 491.864" fill="black"/>
<path d="M363.967 492.089C364.386 492.106 364.804 492.026 365.188 491.857C365.572 491.687 365.911 491.431 366.181 491.109C366.715 490.329 367.001 489.406 367.001 488.461C367.001 487.516 366.715 486.592 366.181 485.812C365.911 485.491 365.572 485.235 365.188 485.065C364.804 484.896 364.386 484.816 363.967 484.833C363.547 484.821 363.129 484.904 362.745 485.076C362.362 485.248 362.022 485.506 361.753 485.829C361.211 486.599 360.92 487.519 360.92 488.461C360.92 489.403 361.211 490.323 361.753 491.093C362.022 491.416 362.362 491.674 362.745 491.846C363.129 492.018 363.547 492.101 363.967 492.089V492.089ZM367.015 485.106V483.742H368.411V492.779C368.44 493.338 368.354 493.897 368.158 494.422C367.962 494.946 367.66 495.425 367.272 495.828C366.838 496.219 366.331 496.519 365.78 496.712C365.229 496.905 364.646 496.986 364.063 496.952C363.06 497 362.068 496.718 361.239 496.15C360.89 495.883 360.602 495.544 360.395 495.156C360.187 494.769 360.065 494.341 360.036 493.902H361.496C361.689 495.106 362.539 495.7 364.063 495.7C364.461 495.759 364.867 495.724 365.249 495.599C365.631 495.473 365.978 495.26 366.264 494.976C366.549 494.692 366.764 494.346 366.891 493.965C367.019 493.583 367.056 493.177 366.999 492.779V491.864C366.628 492.357 366.141 492.752 365.582 493.012C365.022 493.273 364.407 493.391 363.79 493.357C363.189 493.387 362.588 493.282 362.032 493.049C361.477 492.815 360.981 492.46 360.582 492.008C359.792 490.973 359.364 489.707 359.364 488.405C359.364 487.102 359.792 485.836 360.582 484.801C360.983 484.354 361.48 484.002 362.035 483.771C362.59 483.541 363.19 483.437 363.79 483.469C364.417 483.446 365.039 483.581 365.6 483.861C366.161 484.142 366.642 484.559 366.999 485.074" fill="black"/>
<path d="M375.038 483.597H375.535V485.01H375.166C374.343 484.959 373.531 485.217 372.888 485.732C372.608 485.992 372.389 486.312 372.248 486.667C372.106 487.022 372.045 487.405 372.069 487.786V493.164H370.625V483.725H372.021V485.331C372.294 484.765 372.726 484.291 373.265 483.969C373.804 483.646 374.426 483.489 375.054 483.517" fill="black"/>
<path d="M378.262 491.173C378.544 491.481 378.886 491.726 379.267 491.895C379.648 492.063 380.06 492.149 380.477 492.149C380.893 492.149 381.305 492.063 381.686 491.895C382.068 491.726 382.41 491.481 382.691 491.173C383.278 490.421 383.57 489.478 383.509 488.525C383.566 487.562 383.275 486.611 382.691 485.844C382.405 485.545 382.061 485.307 381.68 485.144C381.3 484.982 380.89 484.898 380.477 484.898C380.063 484.898 379.653 484.982 379.273 485.144C378.892 485.307 378.549 485.545 378.262 485.844C377.672 486.609 377.376 487.56 377.428 488.525C377.372 489.48 377.669 490.423 378.262 491.173V491.173ZM383.766 492.12C382.886 492.986 381.702 493.471 380.469 493.471C379.235 493.471 378.051 492.986 377.171 492.12C376.351 491.102 375.904 489.833 375.904 488.525C375.904 487.217 376.351 485.948 377.171 484.929C378.051 484.064 379.235 483.579 380.469 483.579C381.702 483.579 382.886 484.064 383.766 484.929C384.595 485.944 385.047 487.214 385.047 488.525C385.047 489.835 384.595 491.106 383.766 492.12" fill="black"/>
<path d="M392.734 489.087V483.742H394.211V493.18H392.815V491.784C392.524 492.21 392.148 492.571 391.711 492.843C391.273 493.116 390.784 493.294 390.273 493.367C389.763 493.439 389.243 493.404 388.747 493.264C388.251 493.125 387.789 492.883 387.392 492.554C387.085 492.233 386.848 491.852 386.696 491.435C386.545 491.018 386.481 490.574 386.509 490.131V483.71H387.985V489.954C387.947 490.243 387.977 490.538 388.072 490.814C388.167 491.09 388.325 491.34 388.534 491.544C388.743 491.748 388.996 491.901 389.274 491.99C389.552 492.079 389.847 492.102 390.135 492.057C390.474 492.059 390.81 491.991 391.121 491.859C391.433 491.726 391.714 491.531 391.948 491.286C392.226 490.989 392.439 490.637 392.574 490.253C392.71 489.869 392.764 489.461 392.734 489.055" fill="black"/>
<path d="M400.853 492.088C401.271 492.102 401.687 492.02 402.068 491.847C402.449 491.675 402.785 491.417 403.051 491.093C403.644 490.317 403.94 489.355 403.885 488.381C403.941 487.443 403.65 486.517 403.067 485.78C402.781 485.481 402.437 485.243 402.057 485.08C401.676 484.918 401.267 484.834 400.853 484.834C400.439 484.834 400.03 484.918 399.649 485.08C399.269 485.243 398.925 485.481 398.639 485.78C398.048 486.545 397.752 487.496 397.805 488.461C397.748 489.416 398.045 490.359 398.639 491.109C398.908 491.432 399.247 491.688 399.631 491.858C400.015 492.028 400.433 492.107 400.853 492.088V492.088ZM401.029 483.517C401.629 483.493 402.226 483.6 402.78 483.83C403.334 484.06 403.832 484.408 404.238 484.849C405.008 485.893 405.424 487.156 405.424 488.453C405.424 489.75 405.008 491.013 404.238 492.056C403.835 492.503 403.339 492.856 402.784 493.089C402.23 493.322 401.63 493.43 401.029 493.405C400.402 493.432 399.778 493.299 399.217 493.018C398.655 492.738 398.175 492.318 397.821 491.799V496.743H396.361V483.71H397.74V485.17C398.095 484.652 398.575 484.232 399.137 483.951C399.698 483.67 400.322 483.537 400.949 483.565" fill="black"/>
<path d="M410.319 493.404C407.784 493.404 406.452 492.329 406.308 490.194H407.784C407.796 490.48 407.865 490.76 407.986 491.019C408.108 491.278 408.279 491.51 408.49 491.703C409.034 492.049 409.677 492.206 410.319 492.152C411.827 492.152 412.581 491.671 412.581 490.692C412.596 490.504 412.561 490.316 412.479 490.147C412.397 489.978 412.272 489.833 412.116 489.729C411.598 489.426 411.026 489.23 410.431 489.151L409.549 488.99C407.576 488.621 406.597 487.69 406.597 486.213C406.583 485.836 406.66 485.461 406.822 485.12C406.984 484.779 407.226 484.482 407.527 484.255C408.26 483.734 409.149 483.48 410.046 483.533C412.549 483.533 413.817 484.576 413.881 486.663H412.421C412.434 486.39 412.385 486.118 412.276 485.868C412.168 485.617 412.003 485.395 411.795 485.218C411.272 484.895 410.659 484.749 410.046 484.801C409.53 484.768 409.016 484.891 408.57 485.154C408.407 485.27 408.275 485.424 408.185 485.603C408.096 485.783 408.052 485.981 408.057 486.181C408.048 486.364 408.084 486.546 408.162 486.711C408.241 486.877 408.359 487.02 408.506 487.128C408.953 487.399 409.45 487.579 409.966 487.658L410.816 487.819C411.716 487.937 412.571 488.279 413.303 488.814C413.561 489.03 413.765 489.304 413.899 489.613C414.033 489.923 414.092 490.259 414.073 490.595C414.091 491 414.008 491.402 413.832 491.767C413.655 492.131 413.391 492.445 413.063 492.682C412.253 493.221 411.29 493.48 410.319 493.42" fill="black"/>
<path d="M6.32152 278.412C3.54584 278.412 2.14998 280.82 2.14998 285.667C2.14998 290.515 3.54584 292.906 6.32152 292.906C9.0972 292.906 10.477 290.531 10.477 285.715C10.477 280.9 9.0972 278.46 6.32152 278.46V278.412ZM11.0386 292.473C10.5216 293.238 9.8154 293.856 8.98873 294.267C8.16206 294.677 7.24314 294.867 6.32152 294.817C5.39518 294.863 4.47271 294.667 3.64538 294.248C2.81805 293.828 2.11454 293.2 1.60447 292.425C0.560014 290.323 0.0164795 288.007 0.0164795 285.659C0.0164795 283.312 0.560014 280.996 1.60447 278.894C2.12866 278.113 2.8501 277.485 3.6955 277.073C4.5409 276.661 5.48013 276.481 6.41778 276.55C7.33941 276.5 8.25833 276.689 9.085 277.1C9.91167 277.511 10.6179 278.129 11.1348 278.894C12.3194 280.946 12.8772 283.301 12.7393 285.667C12.875 288.028 12.3172 290.377 11.1348 292.425" fill="black"/>
<path d="M72.7292 276.936H74.3336V294.383H72.3281V281.382H68.3651V279.777H68.7662C69.7321 279.771 70.6811 279.523 71.5259 279.054C71.8531 278.806 72.1279 278.495 72.3345 278.139C72.541 277.784 72.6752 277.391 72.7292 276.984" fill="black"/>
<path d="M133.65 292.521H142.795V294.383H131.355V293.42C131.41 292.133 131.744 290.873 132.334 289.728C133.002 288.586 133.974 287.652 135.142 287.032L137.356 285.764C138.253 285.277 139.052 284.63 139.714 283.853C140.188 283.196 140.43 282.4 140.404 281.59C140.434 281.172 140.377 280.752 140.236 280.357C140.095 279.962 139.874 279.6 139.586 279.295C138.887 278.685 137.977 278.374 137.051 278.428C136.547 278.351 136.031 278.396 135.547 278.558C135.063 278.72 134.625 278.996 134.269 279.361C133.913 279.727 133.649 280.173 133.5 280.661C133.35 281.149 133.319 281.665 133.409 282.168H131.323C131.27 281.412 131.375 280.653 131.632 279.94C131.889 279.227 132.292 278.575 132.815 278.027C133.994 277.101 135.449 276.598 136.947 276.598C138.445 276.598 139.9 277.101 141.078 278.027C141.59 278.485 141.998 279.046 142.275 279.675C142.551 280.303 142.69 280.984 142.683 281.67C142.683 283.939 141.356 285.833 138.704 287.353L136.843 288.428C135.965 288.922 135.182 289.569 134.532 290.338C134.034 290.991 133.749 291.781 133.714 292.601" fill="black"/>
<path d="M205.464 285.106C206.321 285.476 207.051 286.087 207.567 286.865C208.083 287.643 208.361 288.554 208.368 289.488C208.402 290.204 208.276 290.918 207.998 291.579C207.72 292.24 207.299 292.831 206.764 293.308C205.489 294.271 203.934 294.793 202.336 294.793C200.738 294.793 199.183 294.271 197.907 293.308C197.359 292.773 196.932 292.126 196.655 291.412C196.378 290.697 196.258 289.932 196.303 289.167H198.341C198.32 289.689 198.407 290.209 198.598 290.695C198.788 291.182 199.078 291.623 199.448 291.992C200.274 292.676 201.329 293.021 202.4 292.955C203.42 293.014 204.424 292.681 205.208 292.024C205.552 291.71 205.823 291.324 206.003 290.895C206.183 290.465 206.268 290.001 206.251 289.536C206.273 289.061 206.189 288.587 206.006 288.149C205.823 287.71 205.545 287.318 205.192 287C204.374 286.336 203.339 285.999 202.288 286.053H200.988V284.335H202.159C203.117 284.4 204.067 284.121 204.839 283.549C205.137 283.274 205.374 282.94 205.537 282.568C205.7 282.197 205.784 281.795 205.784 281.39C205.784 280.984 205.7 280.583 205.537 280.211C205.374 279.84 205.137 279.506 204.839 279.231C204.105 278.682 203.202 278.409 202.288 278.46C201.34 278.404 200.406 278.708 199.672 279.311C199.335 279.627 199.069 280.011 198.889 280.436C198.709 280.862 198.621 281.321 198.629 281.783H196.544C196.528 281.076 196.663 280.374 196.94 279.724C197.216 279.074 197.628 278.49 198.148 278.011C199.299 277.02 200.788 276.514 202.304 276.598C203.757 276.524 205.19 276.967 206.347 277.85C206.865 278.264 207.28 278.793 207.558 279.394C207.837 279.996 207.971 280.655 207.951 281.317C207.961 282.117 207.742 282.902 207.322 283.581C206.901 284.261 206.296 284.806 205.577 285.154" fill="black"/>
<path d="M269.722 288.155V279.632L263.144 288.155H269.722ZM271.792 288.155H274.134V290.017H271.792V294.383H269.722V290.017H260.994V288.043L269.562 276.935H271.792V288.155Z" fill="black"/>
<path d="M332.985 283.018C333.782 282.968 334.58 283.085 335.329 283.361C336.077 283.638 336.76 284.068 337.333 284.624C337.867 285.189 338.284 285.855 338.559 286.582C338.834 287.309 338.963 288.084 338.938 288.861C338.969 289.637 338.843 290.411 338.567 291.136C338.292 291.862 337.872 292.524 337.333 293.083C336.156 294.111 334.657 294.695 333.095 294.733C331.533 294.771 330.007 294.261 328.782 293.291C328.239 292.817 327.801 292.236 327.495 291.584C327.188 290.932 327.02 290.223 327.001 289.503H329.054C329.08 289.976 329.201 290.439 329.41 290.864C329.62 291.289 329.914 291.667 330.274 291.975C331.017 292.588 331.959 292.908 332.921 292.874C333.44 292.891 333.957 292.801 334.439 292.611C334.922 292.42 335.361 292.133 335.729 291.766C336.432 290.962 336.819 289.93 336.819 288.861C336.819 287.793 336.432 286.76 335.729 285.956C335.361 285.589 334.922 285.302 334.439 285.111C333.957 284.921 333.44 284.831 332.921 284.848C332.182 284.793 331.443 284.964 330.803 285.34C330.164 285.716 329.655 286.278 329.343 286.951H327.305L328.782 276.903H337.782V278.765H330.514L329.696 284.254C330.597 283.427 331.779 282.974 333.001 282.986" fill="black"/>
<path d="M395.574 291.783C395.936 292.153 396.372 292.445 396.852 292.638C397.333 292.831 397.848 292.923 398.366 292.906C398.882 292.929 399.397 292.84 399.876 292.646C400.355 292.452 400.786 292.158 401.142 291.783C401.836 290.98 402.218 289.955 402.218 288.893C402.218 287.832 401.836 286.807 401.142 286.004C400.786 285.629 400.355 285.335 399.876 285.141C399.397 284.947 398.882 284.858 398.366 284.881C397.851 284.866 397.339 284.955 396.859 285.142C396.38 285.33 395.943 285.612 395.574 285.972C394.843 286.766 394.451 287.814 394.483 288.893C394.463 289.424 394.549 289.953 394.736 290.449C394.923 290.945 395.208 291.399 395.574 291.783V291.783ZM398.414 283.019C399.213 282.968 400.014 283.085 400.765 283.361C401.517 283.637 402.202 284.068 402.778 284.624C403.81 285.785 404.38 287.284 404.38 288.837C404.38 290.391 403.81 291.89 402.778 293.051C402.195 293.601 401.506 294.027 400.753 294.303C400 294.579 399.199 294.699 398.398 294.656C397.018 294.7 395.665 294.27 394.564 293.436C393.6 292.647 392.901 291.583 392.558 290.386C392.117 288.821 391.917 287.197 391.964 285.571C391.812 283.209 392.371 280.855 393.569 278.813C394.096 278.03 394.816 277.396 395.659 276.972C396.502 276.547 397.439 276.347 398.382 276.389C399.758 276.34 401.107 276.784 402.185 277.641C403.224 278.517 403.904 279.746 404.094 281.092H402.088C401.942 280.258 401.49 279.508 400.821 278.99C400.115 278.475 399.255 278.215 398.382 278.251C395.473 278.251 393.997 280.579 393.954 285.234C394.454 284.514 395.12 283.924 395.895 283.516C396.658 283.098 397.512 282.872 398.382 282.858" fill="black"/>
<path d="M457.794 278.797V276.935H469.025V278.54C465.077 282.875 462.847 288.503 462.752 294.367H460.634C460.693 291.529 461.236 288.723 462.239 286.068C463.309 283.411 464.811 280.949 466.683 278.781L457.794 278.797Z" fill="black"/>
<path d="M531.246 279.166C530.477 278.681 529.587 278.424 528.679 278.424C527.77 278.424 526.88 278.681 526.111 279.166C525.782 279.42 525.518 279.749 525.342 280.126C525.166 280.503 525.084 280.917 525.101 281.333C525.085 281.746 525.168 282.157 525.344 282.532C525.52 282.906 525.783 283.232 526.111 283.484C526.88 283.969 527.77 284.226 528.679 284.226C529.587 284.226 530.477 283.969 531.246 283.484C531.574 283.232 531.837 282.906 532.013 282.532C532.189 282.157 532.272 281.746 532.256 281.333C532.273 280.917 532.191 280.503 532.015 280.126C531.839 279.749 531.575 279.42 531.246 279.166V279.166ZM525.646 292.007C526.517 292.663 527.59 292.993 528.679 292.938C529.768 292.997 530.842 292.667 531.711 292.007C532.088 291.705 532.388 291.318 532.586 290.877C532.784 290.436 532.875 289.954 532.85 289.471C532.87 288.982 532.777 288.495 532.58 288.047C532.382 287.599 532.085 287.202 531.711 286.887C530.834 286.247 529.763 285.929 528.679 285.988C527.595 285.937 526.527 286.254 525.646 286.887C525.269 287.199 524.971 287.596 524.776 288.045C524.581 288.494 524.494 288.982 524.523 289.471C524.495 289.953 524.583 290.434 524.778 290.875C524.973 291.316 525.271 291.704 525.646 292.007V292.007ZM531.759 285.057C532.706 285.385 533.533 285.989 534.134 286.79C534.716 287.561 535.021 288.505 535 289.471C535.028 290.208 534.886 290.942 534.586 291.615C534.285 292.289 533.834 292.884 533.267 293.356C531.957 294.366 530.331 294.878 528.679 294.8C527.031 294.88 525.409 294.367 524.106 293.356C523.536 292.886 523.082 292.291 522.779 291.617C522.475 290.944 522.331 290.209 522.357 289.471C522.336 288.505 522.641 287.561 523.223 286.79C523.828 285.992 524.654 285.389 525.598 285.057C524.841 284.788 524.189 284.286 523.736 283.622C523.283 282.959 523.053 282.168 523.079 281.365C523.053 280.692 523.184 280.022 523.463 279.409C523.741 278.796 524.159 278.256 524.683 277.834C525.863 277.019 527.262 276.583 528.695 276.583C530.127 276.583 531.526 277.019 532.706 277.834C533.232 278.255 533.651 278.794 533.93 279.407C534.209 280.021 534.339 280.692 534.31 281.365C534.332 282.17 534.099 282.96 533.643 283.624C533.188 284.287 532.534 284.789 531.775 285.057" fill="black"/>
<path d="M6.88306 271.269H528.085M6.88306 135.586H19.9111H6.88306ZM6.88306 271.269V0V271.269ZM528.085 271.269V264.479V271.269ZM462.945 271.269V264.479V271.269ZM397.788 271.269V264.479V271.269ZM332.632 271.269V264.479V271.269ZM267.492 271.269V264.479V271.269ZM202.336 271.269V264.479V271.269ZM137.179 271.269V264.479V271.269ZM72.0393 271.269V264.479V271.269ZM6.88306 271.269V264.479V271.269Z" stroke="#231F20" stroke-width="1.3" stroke-miterlimit="10"/>
<path d="M332.777 199.744H6.30548V248.668H332.777V199.744Z" fill="#A1FAED"/>
<path d="M71.6061 138.604H6.30548V187.529H71.6061V138.604Z" fill="#BD08FA"/>
<path d="M202.191 84.2539H6.30548V133.179H202.191V84.2539Z" fill="#8299F5"/>
<path d="M283.809 414.929H251.159V440.403H283.809V414.929Z" fill="#A1FAED"/>
<path d="M38.2498 414.929H5.59949V440.403H38.2498V414.929Z" fill="#BD08FA"/>
<path d="M283.809 330.852H251.159V356.326H283.809V330.852Z" fill="#8299F5"/>
<path d="M38.9558 330.852H6.30548V356.326H38.9558V330.852Z" fill="#0533ED"/>
<path d="M463.378 29.8877H6.30548V78.8124H463.378V29.8877Z" fill="#0533ED"/>
</g>
<defs>
<clipPath id="clip0">
<rect width="535" height="497" fill="white"/>
</clipPath>
</defs>
</svg>
