<svg xmlns="http://www.w3.org/2000/svg" viewBox="0 0 192.71 57.15"><defs><style>.cls-1{font-size:13.54px;font-family:ArminSoft-Normal, Armin Soft;}.cls-1,.cls-2{fill:#252528;}.cls-3{fill:#0533ed;}</style></defs><g id="Layer_2" data-name="Layer 2"><g id="Layer_1-2" data-name="Layer 1"><text class="cls-1" transform="translate(29.85 54.15)">Digital assets managed</text><path class="cls-2" d="M17.36,0H0V.26C3.72.82,4.66,4.48,4.85,6.43c.75,7.27,0,29.22,0,29.22h7.59V23.16h4.19c4.28,0,7.75-1.11,10.31-3.3a10.84,10.84,0,0,0,3.82-8.61C30.76,3.67,26.37,0,17.36,0ZM15.93,17.57H12.44V5.68h3.49c4.53,0,6.82,2,6.82,5.87S20.46,17.57,15.93,17.57Z"/><path class="cls-2" d="M43,9.72a24,24,0,0,0-5.2.65,16.63,16.63,0,0,0-3.94,1.43s-.4,3.89-1.3,5.39l0,.13S39,14.58,42,14.58c3.23,0,4.88,1.52,4.88,4.53v.26l-7.27,1c-5.84.76-8.67,3.51-8.67,8.42A7.35,7.35,0,0,0,33,34.23a7.8,7.8,0,0,0,5.71,2.05,8.2,8.2,0,0,0,7.47-4.2l.08-.15h.56v3.72h7V20.48C53.81,13.25,50.28,9.72,43,9.72Zm3.85,15.71a6,6,0,0,1-1.48,4.13,5.09,5.09,0,0,1-3.89,1.64,3.93,3.93,0,0,1-2.76-.94,3.25,3.25,0,0,1-1-2.46c0-2.16,1.38-3.44,4.13-3.8l5-.64Z"/><path class="cls-2" d="M137.2,13a9.94,9.94,0,0,0-15.61,1l-.09.13H121V10.34H108.38v.26c2.92.64,5.51,5.2,5.48,10.08,0,5.8-.31,21.9-.31,21.9l7.4,0V32.35h.55l.08.12a7.85,7.85,0,0,0,6.89,3.47,10.25,10.25,0,0,0,8.27-3.76c2.09-2.51,3.14-5.9,3.14-10.06C139.88,18.29,139,15.22,137.2,13Zm-6.49,15.25a5.17,5.17,0,0,1-4.46,2.21,4.92,4.92,0,0,1-3.94-1.77,6.83,6.83,0,0,1-1.49-4.51V22.15a7.53,7.53,0,0,1,1.62-5,5.36,5.36,0,0,1,4.24-1.95c3.71,0,5.6,2.38,5.6,7A10.12,10.12,0,0,1,130.71,28.27Z"/><path class="cls-2" d="M87.26,35.39v.26H74.47V21.56a10.76,10.76,0,0,0-.39-3.09,4,4,0,0,0-4.19-3.22,4.48,4.48,0,0,0-2.08.47A4.64,4.64,0,0,0,66.25,17a6.4,6.4,0,0,0-1.41,4.24V35.65H57.45s0-1.62.11-3.94c.1-4.55.2-11.81-.11-14.92,0-.19-.05-.39-.08-.61-.33-2-1.43-5-4.77-5.56v-.27H64.84v4.1h.56l.08-.14a9.12,9.12,0,0,1,4.35-3.89,9.52,9.52,0,0,1,3.72-.7c.39,0,.77,0,1.13,0,4.55.42,6.9,3.45,7.16,9.22,0,1.18,0,2.29,0,3.31v.41c0,1,0,1.88,0,2.61,0,.27,0,.53,0,.8v-.27C81.94,30.52,84.44,34.77,87.26,35.39Z"/><path class="cls-2" d="M174.33,35.39v.26H161.59V9.76h.24c4.49.38,6.94,1.36,7,8.94a2.45,2.45,0,0,1,0,.27c0,.15,0,.3,0,.44,0,.3,0,.59,0,.87v6C169.17,30.79,171.6,34.79,174.33,35.39Z"/><path class="cls-2" d="M152.33,2.59,144.94,4.7v5.65h-6.2v.31a8.11,8.11,0,0,1,3,5h3.17V27.8c0,5.71,2.67,8.48,8.16,8.48a12,12,0,0,0,5-.82V30.2a5.5,5.5,0,0,1-2.31.55c-2.32,0-3.49-1.46-3.49-4.34V15.66h5.8V10.35h-5.8Z"/><path class="cls-2" d="M187.41,15.25a9.32,9.32,0,0,1,5.3,1.61v-6c-1.32-.73-3.45-1.09-6.32-1.09-4.32,0-7.82,1.25-10.38,3.72s-3.86,5.9-3.86,10.2a12.28,12.28,0,0,0,3.59,9.11,13,13,0,0,0,9.46,3.53,15.75,15.75,0,0,0,7.51-1.45V29.12a10.69,10.69,0,0,1-5.54,1.63,7.35,7.35,0,0,1-5.49-2.05,7.68,7.68,0,0,1-2-5.6,7.8,7.8,0,0,1,2.1-5.75A7.66,7.66,0,0,1,187.41,15.25Z"/><path class="cls-2" d="M169,1.16l-7.45,2.38V6.59s5.72.27,7.23,3H169Z"/><path class="cls-3" d="M109.41,28.62h.22a12.92,12.92,0,0,1-6.06,6,13.13,13.13,0,0,1-10.37.48,12,12,0,0,1-3.28-1.81A13.2,13.2,0,0,1,85,25.75a10.22,10.22,0,0,1-.34-3.08,5.17,5.17,0,0,1,1.7-3.58,6.28,6.28,0,0,1,5.82-1.32,7.55,7.55,0,0,0,3,12.13,8.27,8.27,0,0,0,2.34.48,7.16,7.16,0,0,0,2.19-.23S105.93,32.3,109.41,28.62Z"/><path class="cls-3" d="M86.29,16.93h-.21A12.82,12.82,0,0,1,92.18,11a13.14,13.14,0,0,1,10.38-.4,12.45,12.45,0,0,1,3.27,1.83A13.29,13.29,0,0,1,110.66,20,10.16,10.16,0,0,1,111,23.1a5.19,5.19,0,0,1-1.73,3.56,6.28,6.28,0,0,1-5.83,1.27A7.64,7.64,0,0,0,105,25.37a7.54,7.54,0,0,0-2-8.15,7.7,7.7,0,0,0-2.35-1.45,8,8,0,0,0-2.35-.5,7.66,7.66,0,0,0-2.19.21S89.8,13.28,86.29,16.93Z"/><path class="cls-3" d="M93.39,23.6a4.5,4.5,0,1,1,5.21,3.66A4.5,4.5,0,0,1,93.39,23.6Z"/><path class="cls-2" d="M168.9,19.43c0,.3,0,.59,0,.87v-.87Z"/></g></g></svg>