<svg width="728" height="497" viewBox="0 0 728 497" fill="none" xmlns="http://www.w3.org/2000/svg">
<g clip-path="url(#clip0)">
<path d="M358.511 66.3496V159.384C339.915 159.36 321.56 163.58 304.844 171.722C288.129 179.865 273.496 191.715 262.062 206.368L188.687 149.1C230.52 95.5849 290.511 66.3496 358.511 66.3496Z" fill="#8299F5"/>
<path d="M306.759 392.54L267.332 476.825C215.566 452.679 175.516 408.979 155.989 355.333C136.462 301.687 139.058 242.489 163.205 190.755C170.049 175.985 178.601 162.067 188.687 149.286L262.041 206.554C250.703 221.055 242.786 237.925 238.878 255.908C234.97 273.89 235.173 292.522 239.471 310.415C243.769 328.309 252.051 345.003 263.701 359.254C275.352 373.506 290.07 384.947 306.759 392.727" fill="#A1FAED"/>
<path d="M574.008 281.675C574.003 338.785 551.294 393.553 510.877 433.934C470.46 474.315 415.646 497 358.491 497C326.978 497.552 295.78 490.661 267.436 476.888L306.863 392.603C323.478 400.338 341.619 404.247 359.948 404.041C378.276 403.834 396.325 399.518 412.761 391.411C429.198 383.304 443.603 371.613 454.913 357.2C466.223 342.787 474.15 326.02 478.109 308.137C482.068 290.254 481.957 271.711 477.786 253.876C473.614 236.041 465.488 219.37 454.007 205.093C442.526 190.815 427.983 179.296 411.451 171.385C394.919 163.474 376.821 159.373 358.491 159.384V66.3496C415.646 66.3496 470.46 89.0349 510.877 129.416C551.294 169.796 574.003 224.565 574.008 281.675Z" fill="#0533ED"/>
<path d="M633.791 342.488L636.157 338.715H638.232L632.007 348.397V354.887H630.098V348.335L623.873 338.652H625.948L628.334 342.447C629.371 344.064 630.222 345.453 630.928 346.594C631.903 344.956 632.754 343.546 633.522 342.447" fill="black"/>
<path d="M641.448 344.562C641.018 344.546 640.588 344.616 640.186 344.77C639.783 344.923 639.415 345.155 639.104 345.453C638.453 346.161 638.058 347.066 637.983 348.024H644.893C644.833 347.093 644.46 346.209 643.835 345.516C643.529 345.195 643.157 344.944 642.746 344.779C642.334 344.615 641.891 344.54 641.448 344.562V344.562ZM646.844 349.04V349.662H637.921C637.932 350.72 638.314 351.739 639 352.544C639.336 352.872 639.736 353.125 640.176 353.289C640.615 353.454 641.084 353.525 641.552 353.498C642.245 353.561 642.937 353.376 643.507 352.978C644.076 352.579 644.487 351.993 644.665 351.321H646.553C646.274 352.427 645.649 353.415 644.769 354.141C643.827 354.851 642.668 355.21 641.49 355.157C640.754 355.187 640.021 355.054 639.343 354.768C638.664 354.481 638.058 354.047 637.568 353.498C636.579 352.222 636.042 350.654 636.042 349.04C636.042 347.426 636.579 345.858 637.568 344.582C638.051 344.029 638.653 343.591 639.328 343.3C640.003 343.01 640.735 342.874 641.469 342.903C642.22 342.867 642.968 343.006 643.656 343.308C644.344 343.61 644.952 344.068 645.433 344.645C646.415 345.895 646.923 347.452 646.864 349.04" fill="black"/>
<path d="M653.027 355.157C649.901 355.157 648.241 353.83 648.047 351.176H649.894C649.908 351.529 649.992 351.876 650.141 352.197C650.291 352.517 650.503 352.805 650.766 353.042C651.438 353.47 652.233 353.667 653.027 353.602C654.916 353.602 655.85 353.001 655.85 351.777C655.864 351.544 655.817 351.311 655.716 351.1C655.614 350.89 655.46 350.709 655.268 350.575C654.624 350.219 653.921 349.98 653.193 349.87L652.114 349.662C649.666 349.206 648.462 348.066 648.462 346.22C648.445 345.754 648.54 345.291 648.738 344.869C648.937 344.447 649.233 344.079 649.603 343.795C650.517 343.152 651.622 342.838 652.737 342.903C655.829 342.903 657.427 344.189 657.51 346.78H655.725C655.741 346.444 655.68 346.109 655.547 345.8C655.414 345.491 655.212 345.217 654.957 344.997C654.335 344.614 653.612 344.426 652.882 344.458C652.241 344.421 651.604 344.58 651.056 344.914C650.848 345.056 650.679 345.248 650.567 345.473C650.454 345.698 650.401 345.948 650.413 346.2C650.401 346.42 650.444 346.639 650.538 346.838C650.632 347.037 650.775 347.21 650.952 347.34C651.509 347.685 652.13 347.911 652.778 348.004L653.816 348.211C654.936 348.367 656.002 348.787 656.929 349.434C657.245 349.713 657.495 350.058 657.66 350.446C657.825 350.833 657.901 351.253 657.883 351.674C657.903 352.171 657.8 352.667 657.583 353.115C657.366 353.564 657.041 353.952 656.638 354.245C655.626 354.912 654.424 355.233 653.214 355.157" fill="black"/>
<path d="M71.4034 458.227L75.0141 449.311H77.5249V465.484H75.6573V460.3C75.6573 456.9 75.6573 454.08 75.6573 452.006C75.3046 453.022 74.8273 454.246 74.2255 455.697L70.2206 465.442H68.5813L64.5557 455.697C63.9746 454.246 63.4974 453.022 63.1239 452.006C63.1239 454.08 63.1239 456.858 63.1239 460.3V465.484H61.2563V449.311H63.7464L67.5023 458.517C68.0625 459.885 68.6851 461.441 69.3491 463.162C70.2621 460.715 70.9054 459.015 71.2582 458.227" fill="black"/>
<path d="M83.7916 464.219C84.7204 464.228 85.6232 463.913 86.344 463.328C86.7076 463.027 86.9949 462.645 87.1825 462.213C87.37 461.78 87.4525 461.31 87.423 460.839V459.45C86.9678 459.759 86.4369 459.938 85.8875 459.969L84.1859 460.155C83.4471 460.203 82.7327 460.438 82.1108 460.839C81.9016 461.012 81.7362 461.232 81.628 461.48C81.5198 461.729 81.4719 461.999 81.4883 462.27C81.4757 462.538 81.5232 462.806 81.6273 463.053C81.7314 463.301 81.8895 463.522 82.0901 463.701C82.5919 464.073 83.2092 464.257 83.8331 464.219H83.7916ZM89.8924 464.012H90.5356V465.484C90.204 465.507 89.8712 465.507 89.5396 465.484C88.3153 465.484 87.6513 464.924 87.4645 463.804C87.0581 464.434 86.4885 464.942 85.8162 465.275C85.1439 465.607 84.394 465.751 83.6464 465.691C82.5571 465.754 81.4795 465.439 80.596 464.8C80.2304 464.491 79.9409 464.102 79.7502 463.663C79.5594 463.225 79.4725 462.748 79.4962 462.27C79.4962 460.197 80.9488 458.932 83.8539 458.621L85.5347 458.434C86.759 458.31 87.3608 457.771 87.3608 456.838C87.3888 456.571 87.3483 456.301 87.243 456.055C87.1377 455.808 86.9711 455.592 86.759 455.428C86.1274 455.076 85.4038 454.924 84.6839 454.992C83.9551 454.945 83.2296 455.126 82.6088 455.511C82.3559 455.736 82.1559 456.015 82.0231 456.327C81.8904 456.639 81.8282 456.976 81.8411 457.315H80.015C80.1602 454.723 81.7581 453.417 84.7877 453.417C87.8173 453.417 89.2076 454.557 89.2076 456.838V463.369C89.2076 463.763 89.4151 463.95 89.8509 463.95" fill="black"/>
<path d="M97.3004 458.621L98.9605 453.748H101.036L96.0761 467.329C95.8491 468.163 95.344 468.894 94.6443 469.402C93.9251 469.832 93.0952 470.041 92.258 470.004H91.1789V468.469H92.2372C92.6949 468.49 93.1467 468.359 93.5221 468.097C93.8975 467.834 94.1753 467.455 94.3123 467.018L94.7273 465.94L90.3074 453.81H92.3825L94.0425 458.704C94.6236 460.424 95.1838 462.125 95.7234 463.763C96.1591 462.353 96.7194 460.673 97.4042 458.683" fill="black"/>
<path d="M107.717 464.115C108.239 464.135 108.758 464.032 109.234 463.816C109.709 463.6 110.128 463.277 110.456 462.871C111.191 461.918 111.56 460.734 111.494 459.533C111.571 458.366 111.208 457.212 110.477 456.298C110.121 455.926 109.692 455.629 109.218 455.427C108.744 455.224 108.233 455.119 107.717 455.119C107.201 455.119 106.691 455.224 106.217 455.427C105.742 455.629 105.314 455.926 104.957 456.298C104.226 457.244 103.865 458.423 103.941 459.616C103.866 460.802 104.227 461.974 104.957 462.912C105.294 463.311 105.718 463.627 106.197 463.835C106.676 464.044 107.196 464.14 107.717 464.115V464.115ZM107.946 453.478C108.69 453.453 109.431 453.588 110.118 453.874C110.806 454.16 111.424 454.591 111.93 455.137C112.885 456.431 113.401 457.997 113.401 459.605C113.401 461.214 112.885 462.779 111.93 464.074C111.428 464.627 110.812 465.064 110.124 465.354C109.435 465.644 108.692 465.78 107.946 465.753C107.151 465.791 106.361 465.62 105.654 465.256C104.948 464.892 104.349 464.348 103.92 463.68V465.504H102.198V449.332H104.003V455.552C104.443 454.92 105.034 454.409 105.723 454.065C106.412 453.721 107.176 453.555 107.946 453.582" fill="black"/>
<path d="M120.355 455.137C119.922 455.124 119.492 455.198 119.089 455.355C118.686 455.511 118.319 455.748 118.01 456.049C117.349 456.75 116.953 457.659 116.889 458.62H123.799C123.739 457.689 123.366 456.805 122.741 456.112C122.436 455.788 122.065 455.534 121.653 455.366C121.242 455.198 120.799 455.12 120.355 455.137V455.137ZM125.75 459.616V460.3H116.827C116.843 461.35 117.225 462.362 117.906 463.161C118.238 463.495 118.637 463.755 119.077 463.923C119.517 464.091 119.988 464.164 120.458 464.136C121.151 464.198 121.843 464.014 122.413 463.615C122.982 463.217 123.393 462.63 123.571 461.959H125.459C125.185 463.061 124.558 464.043 123.675 464.758C122.597 465.528 121.28 465.889 119.96 465.775C118.639 465.661 117.403 465.08 116.474 464.136C115.403 462.897 114.853 461.292 114.939 459.657C114.867 458.034 115.408 456.443 116.453 455.199C116.937 454.646 117.538 454.208 118.213 453.917C118.888 453.626 119.62 453.491 120.355 453.52C121.107 453.483 121.858 453.624 122.546 453.93C123.235 454.236 123.841 454.699 124.318 455.282C125.301 456.524 125.808 458.075 125.75 459.657" fill="black"/>
<path d="M186.425 68.6094V63.1562H188.313V79.3497H185.989L180.615 71.056C179.079 68.6094 177.959 66.7847 177.253 65.5822C177.253 67.6556 177.253 70.4962 177.253 73.8759V79.329H175.365V63.1562H177.689L183.063 71.45C184.599 73.8966 185.72 75.7212 186.425 76.9238C186.425 74.8504 186.425 72.0098 186.425 68.6301" fill="black"/>
<path d="M193.501 76.7163C193.853 77.097 194.28 77.4009 194.755 77.6087C195.23 77.8165 195.742 77.9237 196.261 77.9237C196.779 77.9237 197.292 77.8165 197.767 77.6087C198.242 77.4009 198.669 77.097 199.021 76.7163C199.684 75.7406 200.038 74.5885 200.038 73.4092C200.038 72.23 199.684 71.0778 199.021 70.1021C198.664 69.7295 198.236 69.433 197.762 69.2304C197.287 69.0278 196.777 68.9234 196.261 68.9234C195.745 68.9234 195.235 69.0278 194.76 69.2304C194.286 69.433 193.858 69.7295 193.501 70.1021C192.838 71.0778 192.484 72.23 192.484 73.4092C192.484 74.5885 192.838 75.7406 193.501 76.7163V76.7163ZM200.349 77.8775C199.261 78.9537 197.792 79.5575 196.261 79.5575C194.73 79.5575 193.261 78.9537 192.173 77.8775C191.141 76.6206 190.577 75.0452 190.577 73.4196C190.577 71.794 191.141 70.2186 192.173 68.9617C193.261 67.8855 194.73 67.2817 196.261 67.2817C197.792 67.2817 199.261 67.8855 200.349 68.9617C201.381 70.2186 201.945 71.794 201.945 73.4196C201.945 75.0452 201.381 76.6206 200.349 77.8775" fill="black"/>
<path d="M634.974 278.315C636.501 278.238 638.027 278.478 639.455 279.021C640.884 279.563 642.185 280.396 643.274 281.467C644.281 282.556 645.063 283.832 645.576 285.223C646.089 286.614 646.322 288.093 646.263 289.574C646.32 291.061 646.071 292.544 645.532 293.931C644.993 295.319 644.175 296.581 643.129 297.64C642.013 298.718 640.688 299.557 639.236 300.106C637.784 300.655 636.235 300.903 634.684 300.833C631.782 300.942 628.946 299.958 626.736 298.075C625.695 297.163 624.854 296.045 624.264 294.793C623.675 293.541 623.351 292.181 623.312 290.797H627.255C627.307 291.706 627.541 292.594 627.944 293.41C628.347 294.225 628.91 294.952 629.6 295.546C631.029 296.717 632.836 297.328 634.684 297.267C635.674 297.311 636.663 297.149 637.588 296.792C638.513 296.435 639.354 295.891 640.058 295.193C641.397 293.651 642.134 291.678 642.134 289.636C642.134 287.595 641.397 285.622 640.058 284.08C639.351 283.386 638.51 282.844 637.585 282.488C636.661 282.131 635.674 281.967 634.684 282.006C633.25 281.903 631.82 282.247 630.59 282.989C629.36 283.732 628.391 284.837 627.815 286.153H624.184L626.985 266.912H644.271V270.478H630.181L628.583 280.99C630.31 279.395 632.581 278.519 634.933 278.544" fill="black"/>
<path d="M646.719 270.25V266.684H668.175V269.773C660.61 278.078 656.338 288.857 656.161 300.086H652.011C652.091 294.657 653.117 289.283 655.04 284.204C657.072 279.108 659.948 274.391 663.548 270.25H646.719Z" fill="black"/>
<path d="M671.226 295.4H666.474V300.086H671.226V295.4Z" fill="black"/>
<path d="M680.999 266.684H684.174V300.086H680.232V275.205H672.637V272.095H673.384C675.247 272.094 677.078 271.608 678.696 270.685C679.324 270.216 679.851 269.625 680.247 268.948C680.642 268.272 680.898 267.523 680.999 266.746" fill="black"/>
<path d="M715.902 290.424C715.902 295.172 717.313 297.557 720.053 297.557C722.792 297.557 724.327 295.172 724.327 290.424C724.327 285.676 722.916 283.25 720.053 283.25C717.189 283.25 715.902 285.635 715.902 290.424ZM726.091 297.785C725.405 298.695 724.504 299.421 723.468 299.899C722.432 300.376 721.295 300.59 720.156 300.522C719.029 300.593 717.903 300.38 716.88 299.902C715.857 299.423 714.971 298.695 714.305 297.785C712.816 295.629 712.086 293.04 712.229 290.424C712.081 287.769 712.811 285.14 714.305 282.939C715.037 282.106 715.938 281.439 716.949 280.982C717.96 280.524 719.057 280.288 720.167 280.288C721.276 280.288 722.373 280.524 723.384 280.982C724.395 281.439 725.297 282.106 726.029 282.939C727.341 285.193 728.032 287.754 728.032 290.362C728.032 292.97 727.341 295.531 726.029 297.785H726.091ZM700.941 300.086H697.33L715.176 266.684H718.787L700.941 300.086ZM691.748 276.387C691.748 281.156 693.16 283.52 696.023 283.52C698.887 283.52 700.298 281.156 700.298 276.387C700.298 271.618 698.866 269.213 696.023 269.213C693.18 269.213 691.748 271.618 691.748 276.387ZM701.937 283.769C701.249 284.671 700.35 285.39 699.319 285.864C698.288 286.337 697.156 286.55 696.023 286.485C694.895 286.556 693.767 286.346 692.742 285.871C691.716 285.397 690.826 284.674 690.151 283.769C688.662 281.605 687.932 279.009 688.076 276.387C687.927 273.739 688.657 271.115 690.151 268.923C690.885 268.089 691.788 267.422 692.801 266.964C693.813 266.507 694.912 266.271 696.023 266.271C697.134 266.271 698.233 266.507 699.245 266.964C700.258 267.422 701.161 268.089 701.896 268.923C703.2 271.18 703.886 273.74 703.886 276.346C703.886 278.952 703.2 281.512 701.896 283.769" fill="black"/>
<path d="M94.4576 0.746094H97.6532V34.149H93.7106V9.26787H86.1158V6.21994H86.8628C88.7195 6.21909 90.5437 5.73303 92.1543 4.81001C92.7962 4.32625 93.3318 3.71594 93.728 3.01689C94.1242 2.31785 94.3725 1.54495 94.4576 0.746094" fill="black"/>
<path d="M118.134 5.90892V22.2268H105.497L118.134 5.90892ZM117.802 0.746094L101.368 21.9987V25.7931H118.134V34.0868H122.077V25.7931H126.58V22.2268H122.077V0.746094H117.802Z" fill="black"/>
<path d="M133.386 29.4634H128.634V34.1493H133.386V29.4634Z" fill="black"/>
<path d="M154.241 16.38C155.904 17.0876 157.319 18.2739 158.306 19.7878C159.293 21.3016 159.806 23.0746 159.781 24.881C159.833 26.2625 159.572 27.6378 159.019 28.9049C158.466 30.1719 157.634 31.2983 156.585 32.2002C154.132 34.0353 151.145 35.0184 148.081 34.9996C145.016 34.9809 142.042 33.9614 139.611 32.0965C138.576 31.0642 137.771 29.825 137.249 28.4599C136.727 27.0949 136.499 25.6351 136.582 24.1761H140.483C140.437 25.1723 140.597 26.1672 140.955 27.0985C141.312 28.0298 141.857 28.8772 142.558 29.5877C144.146 30.9091 146.182 31.5698 148.244 31.4331C150.197 31.5404 152.117 30.9031 153.618 29.6499C154.284 29.0522 154.81 28.3147 155.158 27.4904C155.506 26.666 155.668 25.775 155.631 24.881C155.681 23.9492 155.52 23.018 155.161 22.1566C154.802 21.2952 154.253 20.5256 153.556 19.9048C151.994 18.6284 150.009 17.9847 147.995 18.1009H145.505V14.8249H147.766C149.604 14.9428 151.424 14.4147 152.913 13.332C153.507 12.822 153.979 12.1839 154.292 11.4657C154.604 10.7475 154.75 9.96778 154.718 9.1852C154.761 8.40123 154.62 7.61801 154.307 6.89802C153.994 6.17804 153.516 5.54121 152.913 5.03835C151.494 3.9921 149.755 3.47164 147.995 3.56622C146.249 3.51802 144.543 4.0912 143.18 5.18349C142.524 5.79247 142.001 6.53049 141.644 7.35118C141.287 8.17186 141.104 9.05747 141.105 9.95237H137.163C137.12 8.60052 137.364 7.25491 137.879 6.00411C138.394 4.75331 139.168 3.62566 140.151 2.69538C142.347 0.810961 145.187 -0.154501 148.078 -7.62963e-05C150.874 -0.136999 153.629 0.714549 155.859 2.4051C156.821 3.21967 157.584 4.24236 158.091 5.39557C158.598 6.54878 158.835 7.80223 158.785 9.06079C158.807 10.5873 158.391 12.0881 157.586 13.3854C156.78 14.6826 155.619 15.7219 154.241 16.38" fill="black"/>
<path d="M190.056 24.4871C190.056 29.2353 191.488 31.6197 194.331 31.6197C197.174 31.6197 198.606 29.2353 198.606 24.4871C198.606 19.739 197.133 17.3131 194.331 17.3131C191.53 17.3131 190.056 19.6975 190.056 24.4871V24.4871ZM200.245 31.8478C199.562 32.7563 198.664 33.4817 197.633 33.9592C196.601 34.4368 195.466 34.6517 194.331 34.5847C193.202 34.654 192.073 34.44 191.047 33.9619C190.021 33.4839 189.131 32.7571 188.459 31.8478C186.967 29.6932 186.237 27.103 186.384 24.4871C186.236 21.8323 186.965 19.2024 188.459 17.0021C189.193 16.1686 190.096 15.5009 191.109 15.0436C192.121 14.5862 193.22 14.3497 194.331 14.3497C195.442 14.3497 196.541 14.5862 197.553 15.0436C198.566 15.5009 199.469 16.1686 200.204 17.0021C201.698 19.2024 202.427 21.8323 202.279 24.4871C202.404 27.1006 201.676 29.6839 200.204 31.8478H200.245ZM175.178 34.1493H171.568L189.413 0.74641H192.982L175.178 34.1493ZM166.006 10.4708C166.006 15.2189 167.438 17.6034 170.281 17.6034C173.124 17.6034 174.514 15.2189 174.514 10.4708C174.514 5.72263 173.103 3.27599 170.156 3.27599C167.21 3.27599 166.006 5.68116 166.006 10.4708ZM176.153 17.8314C175.46 18.7484 174.548 19.4773 173.501 19.9517C172.453 20.4262 171.304 20.631 170.156 20.5476C169.046 20.6037 167.938 20.3851 166.932 19.9114C165.925 19.4376 165.052 18.7232 164.388 17.8314C162.902 15.6741 162.172 13.086 162.313 10.4708C162.162 7.8156 162.891 5.18471 164.388 2.98571C165.12 2.1527 166.022 1.48533 167.033 1.02814C168.043 0.570957 169.14 0.334473 170.25 0.334473C171.359 0.334473 172.456 0.570957 173.467 1.02814C174.478 1.48533 175.38 2.1527 176.112 2.98571C177.609 5.18471 178.338 7.8156 178.187 10.4708C178.309 13.0839 177.581 15.6663 176.112 17.8314" fill="black"/>
<path d="M4.46139 400.171H22.1203V403.737H-2.64329e-05L0.103728 401.913C0.213059 399.443 0.849828 397.025 1.9713 394.822C3.26438 392.633 5.13909 390.846 7.38726 389.659L11.5374 387.212C13.3066 386.314 14.8851 385.081 16.1856 383.584C17.0948 382.333 17.562 380.816 17.5136 379.271C17.5526 378.448 17.4154 377.627 17.1112 376.862C16.807 376.097 16.3429 375.405 15.7498 374.834C15.0892 374.252 14.3203 373.806 13.4871 373.522C12.654 373.237 11.7729 373.119 10.8941 373.175C6.23213 373.175 3.90112 375.566 3.90112 380.349H-2.64329e-05C-0.0990794 378.899 0.104309 377.445 0.59725 376.078C1.09019 374.711 1.86194 373.461 2.86358 372.408C5.09778 370.436 8.02266 369.43 10.9979 369.609C13.8017 369.486 16.5471 370.435 18.6757 372.263C19.6384 373.149 20.3997 374.231 20.908 375.437C21.4163 376.642 21.6599 377.943 21.6223 379.25C21.6223 383.563 19.0907 387.191 14.0275 390.136L10.4584 392.209C8.76311 393.147 7.25162 394.383 5.99695 395.858C5.06245 397.109 4.52727 398.612 4.46139 400.171" fill="black"/>
<path d="M42.2071 374.606C40.7895 373.613 39.0799 373.124 37.3514 373.216C35.5882 373.128 33.8472 373.64 32.4127 374.668C31.7999 375.172 31.3064 375.805 30.9676 376.522C30.6288 377.239 30.4531 378.022 30.4531 378.815C30.4531 379.608 30.6288 380.391 30.9676 381.108C31.3064 381.825 31.7999 382.458 32.4127 382.961C33.8472 383.99 35.5882 384.501 37.3514 384.413C39.1081 384.501 40.8427 383.99 42.2693 382.961C42.8821 382.458 43.3756 381.825 43.7144 381.108C44.0532 380.391 44.229 379.608 44.229 378.815C44.229 378.022 44.0532 377.239 43.7144 376.522C43.3756 375.805 42.8821 375.172 42.2693 374.668L42.2071 374.606ZM31.4582 399.134C33.1352 400.388 35.1971 401.019 37.2891 400.917C39.3744 401.015 41.4287 400.385 43.0994 399.134C43.8032 398.541 44.3578 397.792 44.7183 396.945C45.0787 396.099 45.235 395.179 45.1744 394.262C45.24 393.334 45.0863 392.404 44.7258 391.547C44.3654 390.69 43.8082 389.929 43.0994 389.327C41.4232 388.091 39.3694 387.475 37.2891 387.585C35.2021 387.472 33.1407 388.088 31.4582 389.327C30.7531 389.932 30.1987 390.693 29.8385 391.55C29.4784 392.406 29.3225 393.335 29.3831 394.262C29.3275 395.179 29.486 396.097 29.8461 396.942C30.2062 397.788 30.7581 398.538 31.4582 399.134V399.134ZM43.2031 385.802C44.9949 386.468 46.5675 387.616 47.7475 389.12C48.8524 390.603 49.4294 392.413 49.3868 394.262C49.4456 395.677 49.1765 397.087 48.6007 398.382C48.0248 399.677 47.1576 400.821 46.0667 401.726C43.5798 403.647 40.4916 404.624 37.3514 404.484C34.1901 404.639 31.0773 403.661 28.5738 401.726C27.4754 400.826 26.6017 399.683 26.0218 398.388C25.4419 397.092 25.1719 395.68 25.2329 394.262C25.1904 392.413 25.7674 390.603 26.8722 389.12C28.0522 387.616 29.6249 386.468 31.4167 385.802C29.9626 385.291 28.7097 384.33 27.8401 383.058C26.9706 381.787 26.5297 380.271 26.5817 378.732C26.5329 377.444 26.7851 376.163 27.3182 374.99C27.8513 373.816 28.6506 372.783 29.6528 371.972C31.8693 370.319 34.5874 369.477 37.3514 369.588C40.1149 369.48 42.8319 370.322 45.0499 371.972C46.0484 372.785 46.8437 373.819 47.3732 374.992C47.9026 376.166 48.1515 377.446 48.1003 378.732C48.1523 380.271 47.7114 381.787 46.8419 383.058C45.9723 384.33 44.7194 385.291 43.2654 385.802" fill="black"/>
<path d="M56.9194 399.051H52.1674V403.737H56.9194V399.051Z" fill="black"/>
<path d="M65.9667 398.761C66.6691 399.455 67.5068 399.997 68.4278 400.354C69.3488 400.711 70.3334 400.874 71.3204 400.835C72.3023 400.884 73.2834 400.725 74.1991 400.367C75.1148 400.01 75.9443 399.462 76.6326 398.761C77.9563 397.22 78.684 395.256 78.684 393.225C78.684 391.194 77.9563 389.23 76.6326 387.689C75.9443 386.988 75.1148 386.44 74.1991 386.083C73.2834 385.725 72.3023 385.566 71.3204 385.616C70.3339 385.579 69.3503 385.745 68.4298 386.101C67.5093 386.458 66.6712 386.998 65.9667 387.689C65.2685 388.435 64.7255 389.312 64.3692 390.27C64.013 391.227 63.8507 392.246 63.8917 393.266C63.8433 394.282 64.0023 395.296 64.359 396.248C64.7158 397.2 65.2628 398.069 65.9667 398.803V398.761ZM71.4242 382.008C72.9538 381.934 74.482 382.181 75.9111 382.73C77.3402 383.28 78.639 384.122 79.7245 385.201C80.7449 386.275 81.5418 387.542 82.069 388.926C82.5962 390.311 82.8432 391.786 82.7956 393.266C82.8459 394.751 82.5961 396.23 82.0613 397.616C81.5265 399.002 80.7176 400.266 79.683 401.332C78.5758 402.411 77.2585 403.252 75.8129 403.801C74.3672 404.35 72.8239 404.597 71.2789 404.525C68.6495 404.614 66.0675 403.81 63.9539 402.244C62.1217 400.688 60.8049 398.613 60.1773 396.294C59.3602 393.324 58.9826 390.25 59.0567 387.171C58.7911 382.634 59.9051 378.124 62.2523 374.232C63.2598 372.728 64.6396 371.51 66.2577 370.696C67.8758 369.882 69.6771 369.5 71.4864 369.588C74.1146 369.491 76.6907 370.337 78.7492 371.972C80.7478 373.649 82.0559 376.005 82.4221 378.587H78.5002C78.2412 376.954 77.3831 375.475 76.0931 374.44C74.735 373.468 73.0935 372.973 71.4242 373.03C65.8422 373.03 63.0201 377.488 62.9164 386.403C63.8774 385.025 65.1592 383.901 66.6515 383.127C68.1109 382.312 69.7523 381.877 71.4242 381.863" fill="black"/>
<path d="M113.528 394.075C113.528 398.823 114.959 401.208 117.802 401.208C120.645 401.208 122.077 398.823 122.077 394.075C122.077 389.327 120.645 386.88 117.802 386.88C114.959 386.88 113.528 389.286 113.528 394.075ZM123.716 401.436C123.028 402.338 122.129 403.057 121.098 403.531C120.067 404.004 118.935 404.218 117.802 404.152C116.675 404.22 115.548 404.007 114.523 403.533C113.499 403.059 112.607 402.339 111.93 401.436C110.444 399.279 109.714 396.69 109.855 394.075C109.703 391.42 110.433 388.789 111.93 386.59C112.664 385.757 113.567 385.089 114.58 384.632C115.593 384.174 116.691 383.938 117.802 383.938C118.913 383.938 120.012 384.174 121.025 384.632C122.037 385.089 122.941 385.757 123.675 386.59C124.979 388.847 125.665 391.407 125.665 394.013C125.665 396.619 124.979 399.179 123.675 401.436H123.716ZM98.6078 403.737H95.0386L112.884 370.335H116.495L98.6078 403.737ZM89.4359 380.038C89.4359 384.786 90.8677 387.171 93.7106 387.171C96.5534 387.171 97.9852 384.786 97.9852 380.038C97.9852 375.29 96.5742 372.864 93.7106 372.864C90.847 372.864 89.4359 375.29 89.4359 380.038ZM99.6038 387.399C98.9232 388.31 98.0261 389.038 96.9936 389.515C95.961 389.993 94.8255 390.206 93.6898 390.136C92.5629 390.207 91.4361 389.994 90.4134 389.516C89.3906 389.037 88.505 388.309 87.8381 387.399C86.3492 385.243 85.6192 382.654 85.763 380.038C85.6149 377.383 86.344 374.753 87.8381 372.553C88.5704 371.72 89.472 371.053 90.4829 370.596C91.4937 370.138 92.5906 369.902 93.7002 369.902C94.8098 369.902 95.9066 370.138 96.9175 370.596C97.9284 371.053 98.83 371.72 99.5623 372.553C100.881 374.805 101.576 377.367 101.576 379.976C101.576 382.585 100.881 385.147 99.5623 387.399" fill="black"/>
<path d="M201.947 49.9902H149.8M126.58 428.826H74.4539H126.58ZM675.459 321.381H623.333H675.459Z" stroke="#241F21" stroke-width="0.72" stroke-miterlimit="10"/>
</g>
<defs>
<clipPath id="clip0">
<rect width="728" height="497" fill="white"/>
</clipPath>
</defs>
</svg>
