<svg width="668" height="399" viewBox="0 0 668 399" fill="none" xmlns="http://www.w3.org/2000/svg">
<g clip-path="url(#clip0)">
<path d="M42.7971 309.051H666.898M666.898 309.087V302.246V309.087ZM42.7971 309.087V302.246V309.087Z" stroke="#231F20" stroke-width="1.31" stroke-miterlimit="10"/>
<path d="M23.7662 301.992C20.6214 301.992 19.0491 304.767 19.0491 310.317C19.0491 315.855 20.6214 318.643 23.7662 318.643C26.9109 318.643 28.5013 315.855 28.5013 310.317C28.5013 304.779 26.929 301.992 23.7662 301.992V301.992ZM29.1881 318.081C28.5988 318.967 27.788 319.681 26.8366 320.155C25.8852 320.628 24.8265 320.843 23.7662 320.778C22.7053 320.847 21.6453 320.633 20.6932 320.16C19.7412 319.686 18.9308 318.969 18.3442 318.081C17.155 315.666 16.5365 313.01 16.5365 310.317C16.5365 307.625 17.155 304.968 18.3442 302.553C18.9308 301.665 19.7412 300.948 20.6932 300.475C21.6453 300.001 22.7053 299.788 23.7662 299.856C24.8265 299.792 25.8852 300.007 26.8366 300.48C27.788 300.953 28.5988 301.668 29.1881 302.553C30.3773 304.968 30.9958 307.625 30.9958 310.317C30.9958 313.01 30.3773 315.666 29.1881 318.081" fill="black"/>
<path d="M11.5307 262.827H13.338V282.844H11.0788V267.858H6.57863V266.048H7.01238C8.11658 266.043 9.20034 265.75 10.1571 265.198C10.9036 264.622 11.3964 263.778 11.5307 262.845" fill="black"/>
<path d="M23.7662 264.51C20.6214 264.51 19.0491 267.285 19.0491 272.835C19.0491 278.373 20.6214 281.161 23.7662 281.161C26.9109 281.161 28.5013 278.373 28.5013 272.835C28.5013 267.297 26.929 264.51 23.7662 264.51V264.51ZM29.1881 280.6C28.5988 281.485 27.788 282.2 26.8366 282.673C25.8852 283.146 24.8265 283.361 23.7662 283.296C22.7053 283.365 21.6453 283.151 20.6932 282.678C19.7412 282.204 18.9308 281.487 18.3442 280.6C17.155 278.184 16.5365 275.528 16.5365 272.835C16.5365 270.143 17.155 267.486 18.3442 265.071C18.9308 264.183 19.7412 263.466 20.6932 262.993C21.6453 262.519 22.7053 262.306 23.7662 262.374C24.8265 262.31 25.8852 262.525 26.8366 262.998C27.788 263.471 28.5988 264.186 29.1881 265.071C30.3773 267.486 30.9958 270.143 30.9958 272.835C30.9958 275.528 30.3773 278.184 29.1881 280.6" fill="black"/>
<path d="M4.31948 243.226H14.7838V245.362H1.69888L1.80731 244.33C1.8726 242.854 2.25479 241.41 2.92785 240.095C3.6855 238.785 4.79344 237.713 6.12679 237L8.62087 235.534C9.65131 234.985 10.5658 234.242 11.3138 233.344C11.8545 232.592 12.1339 231.683 12.109 230.756C12.1326 230.251 12.0462 229.746 11.8558 229.278C11.6655 228.809 11.3757 228.387 11.0065 228.042C10.2162 227.345 9.18409 226.988 8.1329 227.046C7.55713 226.974 6.97257 227.038 6.42543 227.231C5.87829 227.424 5.38357 227.743 4.98036 228.16C4.57716 228.578 4.27653 229.084 4.10223 229.638C3.92793 230.193 3.88475 230.78 3.97609 231.354H1.66273C1.60336 230.486 1.72362 229.615 2.01596 228.796C2.30829 227.977 2.76641 227.227 3.3616 226.594C4.01541 226.008 4.77834 225.558 5.6065 225.27C6.43466 224.981 7.31169 224.859 8.18712 224.911C9.85626 224.837 11.4889 225.414 12.7415 226.521C13.3272 227.046 13.7922 227.691 14.1042 228.413C14.4163 229.135 14.568 229.916 14.5489 230.702C14.5489 233.284 13.0488 235.456 10.0486 237.218L7.93409 238.466C6.90119 239.035 5.98698 239.797 5.2412 240.711C4.68029 241.467 4.35918 242.375 4.31948 243.317" fill="black"/>
<path d="M23.7662 227.028C20.6214 227.028 19.0491 229.803 19.0491 235.353C19.0491 240.891 20.6214 243.678 23.7662 243.678C26.9109 243.678 28.5013 240.891 28.5013 235.353C28.5013 229.815 26.929 227.028 23.7662 227.028V227.028ZM29.1881 243.117C28.5988 244.002 27.788 244.717 26.8366 245.191C25.8852 245.664 24.8265 245.879 23.7662 245.814C22.7053 245.882 21.6453 245.669 20.6932 245.196C19.7412 244.722 18.9308 244.005 18.3442 243.117C17.155 240.702 16.5365 238.046 16.5365 235.353C16.5365 232.66 17.155 230.004 18.3442 227.589C18.9308 226.701 19.7412 225.984 20.6932 225.511C21.6453 225.037 22.7053 224.824 23.7662 224.892C24.8265 224.827 25.8852 225.042 26.8366 225.516C27.788 225.989 28.5988 226.704 29.1881 227.589C30.3773 230.004 30.9958 232.66 30.9958 235.353C30.9958 238.046 30.3773 240.702 29.1881 243.117" fill="black"/>
<path d="M11.2234 197.274C12.0811 197.667 12.8273 198.269 13.3945 199.023C13.9617 199.778 14.332 200.663 14.4719 201.597C14.6119 202.532 14.517 203.486 14.196 204.374C13.8749 205.263 13.3377 206.057 12.6331 206.685C11.2747 207.865 9.51359 208.475 7.71723 208.386C6.78199 208.439 5.84562 208.306 4.96175 207.995C4.07788 207.685 3.26389 207.202 2.56639 206.576C1.94572 205.96 1.46346 205.218 1.1518 204.401C0.840143 203.583 0.706257 202.708 0.759084 201.835H3.09051C3.06582 202.431 3.16376 203.027 3.37827 203.584C3.59278 204.141 3.91929 204.648 4.33756 205.074C5.27825 205.869 6.48853 206.271 7.71723 206.196C8.8554 206.239 9.96923 205.859 10.8439 205.128C11.2264 204.75 11.5301 204.299 11.7373 203.802C11.9446 203.305 12.0513 202.771 12.0513 202.233C12.0513 201.694 11.9446 201.161 11.7373 200.664C11.5301 200.167 11.2264 199.716 10.8439 199.337C9.91764 198.585 8.74531 198.204 7.55457 198.269H6.09065V196.296H7.42806C8.51197 196.384 9.59239 196.09 10.4824 195.464C10.8381 195.156 11.119 194.771 11.3038 194.338C11.4886 193.906 11.5724 193.436 11.5487 192.966C11.5695 192.502 11.4842 192.039 11.2995 191.612C11.1147 191.186 10.8353 190.807 10.4824 190.505C9.6482 189.873 8.6169 189.559 7.57264 189.618C6.49732 189.561 5.43966 189.91 4.60865 190.595C4.22446 190.961 3.9201 191.402 3.71478 191.891C3.50947 192.38 3.40768 192.906 3.41583 193.437H1.0844C1.06306 192.626 1.21304 191.82 1.5245 191.072C1.83596 190.323 2.30188 189.649 2.89171 189.093C4.19806 187.968 5.88791 187.391 7.60879 187.482C9.26796 187.402 10.9017 187.915 12.2174 188.93C12.8058 189.409 13.2752 190.017 13.5888 190.708C13.9024 191.399 14.0517 192.153 14.0247 192.912C14.0244 193.831 13.7602 194.731 13.2635 195.505C12.7669 196.278 12.0587 196.892 11.2234 197.274" fill="black"/>
<path d="M23.7662 189.546C20.6214 189.546 19.0491 192.321 19.0491 197.871C19.0491 203.409 20.6214 206.196 23.7662 206.196C26.9109 206.196 28.5013 203.409 28.5013 197.871C28.5013 192.333 26.929 189.546 23.7662 189.546V189.546ZM29.1881 205.635C28.5988 206.521 27.788 207.235 26.8366 207.709C25.8852 208.182 24.8265 208.397 23.7662 208.332C22.7053 208.4 21.6453 208.187 20.6932 207.714C19.7412 207.24 18.9308 206.523 18.3442 205.635C17.155 203.22 16.5365 200.564 16.5365 197.871C16.5365 195.178 17.155 192.522 18.3442 190.107C18.9308 189.219 19.7412 188.502 20.6932 188.029C21.6453 187.555 22.7053 187.342 23.7662 187.41C24.8265 187.346 25.8852 187.56 26.8366 188.034C27.788 188.507 28.5988 189.222 29.1881 190.107C30.3773 192.522 30.9958 195.178 30.9958 197.871C30.9958 200.564 30.3773 203.22 29.1881 205.635" fill="black"/>
<path d="M9.94021 153.475V163.248H2.45794L9.94021 153.475ZM9.7414 150.38L0 163.122V165.384H9.94021V170.397H12.2716V165.384H14.9465V163.248H12.2716V150.38H9.7414Z" fill="black"/>
<path d="M23.7661 152.028C20.6214 152.028 19.0491 154.803 19.0491 160.353C19.0491 165.891 20.6214 168.678 23.7661 168.678C26.9109 168.678 28.5013 165.891 28.5013 160.353C28.5013 154.815 26.9289 152.028 23.7661 152.028ZM29.1881 168.117C28.5988 169.002 27.788 169.717 26.8366 170.19C25.8852 170.663 24.8265 170.878 23.7661 170.814C22.7053 170.882 21.6453 170.669 20.6932 170.195C19.7411 169.722 18.9308 169.005 18.3442 168.117C17.0026 165.759 16.3746 163.062 16.5369 160.353C16.3746 157.644 17.0026 154.946 18.3442 152.589C18.9308 151.701 19.7411 150.984 20.6932 150.51C21.6453 150.037 22.7053 149.823 23.7661 149.892C24.8265 149.827 25.8852 150.042 26.8366 150.515C27.788 150.989 28.5988 151.703 29.1881 152.589C30.3773 155.004 30.9958 157.66 30.9958 160.353C30.9958 163.045 30.3773 165.702 29.1881 168.117" fill="black"/>
<path d="M7.51842 119.866C8.42416 119.806 9.3324 119.937 10.1851 120.248C11.0378 120.56 11.8162 121.046 12.4705 121.676C13.6937 122.995 14.3438 124.746 14.2778 126.545C14.3189 127.431 14.1798 128.316 13.8692 129.147C13.5585 129.977 13.0827 130.736 12.4705 131.377C11.8139 132.026 11.03 132.532 10.1683 132.862C9.30656 133.192 8.38579 133.34 7.4642 133.295C5.74408 133.355 4.0653 132.76 2.76519 131.63C2.13736 131.098 1.62446 130.443 1.25779 129.706C0.891127 128.968 0.678389 128.164 0.632568 127.341H2.98207C3.00986 127.884 3.14753 128.416 3.38674 128.905C3.62596 129.393 3.96173 129.828 4.3737 130.183C5.21299 130.886 6.27959 131.259 7.37384 131.232C7.96684 131.252 8.5574 131.147 9.10807 130.926C9.65874 130.705 10.1575 130.372 10.5728 129.947C11.3657 129.019 11.8014 127.838 11.8014 126.617C11.8014 125.396 11.3657 124.215 10.5728 123.287C10.1575 122.863 9.65874 122.529 9.10807 122.308C8.5574 122.087 7.96684 121.983 7.37384 122.002C6.52931 121.939 5.68585 122.138 4.95823 122.572C4.23061 123.006 3.65419 123.654 3.30739 124.427H1.13862L2.81941 112.898H13.0488V115.034H4.69902L3.75922 121.26C4.77734 120.305 6.1237 119.78 7.51842 119.794" fill="black"/>
<path d="M23.7661 114.582C20.6214 114.582 19.0491 117.357 19.0491 122.907C19.0491 128.445 20.6214 131.232 23.7661 131.232C26.9109 131.232 28.5013 128.445 28.5013 122.907C28.5013 117.369 26.9289 114.582 23.7661 114.582V114.582ZM29.1881 130.671C28.5988 131.556 27.788 132.271 26.8366 132.744C25.8852 133.218 24.8265 133.433 23.7661 133.368C22.7053 133.436 21.6453 133.223 20.6932 132.749C19.7411 132.276 18.9308 131.559 18.3442 130.671C17.0026 128.313 16.3746 125.616 16.5369 122.907C16.3746 120.198 17.0026 117.501 18.3442 115.143C18.9308 114.255 19.7411 113.538 20.6932 113.065C21.6453 112.591 22.7053 112.378 23.7661 112.446C24.8265 112.381 25.8852 112.596 26.8366 113.07C27.788 113.543 28.5988 114.258 29.1881 115.143C30.521 117.504 31.1484 120.199 30.9954 122.907C31.1484 125.615 30.521 128.31 29.1881 130.671" fill="black"/>
<path d="M4.26525 92.4474C4.67069 92.8759 5.16215 93.2135 5.70728 93.4381C6.25242 93.6627 6.83887 93.7692 7.42804 93.7505C8.0151 93.7737 8.6002 93.6692 9.14308 93.4442C9.68595 93.2193 10.1737 92.8792 10.5728 92.4474C11.3664 91.527 11.8031 90.3514 11.8031 89.1354C11.8031 87.9193 11.3664 86.7437 10.5728 85.8233C10.1737 85.3915 9.68595 85.0514 9.14308 84.8265C8.6002 84.6015 8.0151 84.4971 7.42804 84.5202C6.84236 84.5036 6.25948 84.6074 5.71547 84.8253C5.17146 85.0432 4.67787 85.3706 4.26525 85.7871C3.84231 86.2327 3.51254 86.7584 3.29529 87.3334C3.07804 87.9084 2.97769 88.521 3.00013 89.1354C2.971 89.745 3.06838 90.3541 3.28613 90.9241C3.50388 91.4942 3.83726 92.0128 4.26525 92.4474V92.4474ZM7.48226 82.3846C8.3986 82.3386 9.31439 82.4855 10.1705 82.816C11.0266 83.1464 11.8039 83.653 12.4524 84.3031C13.6683 85.6117 14.318 87.3488 14.2597 89.1354C14.2956 90.0208 14.1542 90.9045 13.8438 91.7344C13.5334 92.5644 13.0603 93.3237 12.4524 93.9677C11.7936 94.6212 11.0075 95.1319 10.1432 95.4682C9.27882 95.8045 8.35461 95.959 7.42804 95.9223C5.85152 95.9686 4.30712 95.4701 3.05435 94.5106C1.96355 93.5855 1.1711 92.3574 0.777137 90.9814C0.299271 89.2123 0.0741317 87.3843 0.108432 85.5519C-0.0467047 82.8412 0.621165 80.1471 2.02418 77.8238C2.61171 76.9309 3.41957 76.2052 4.36949 75.7169C5.31941 75.2286 6.37918 74.9942 7.44611 75.0366C9.00946 74.9868 10.5399 75.4934 11.7656 76.4664C12.9506 77.4756 13.7227 78.8867 13.9344 80.43H11.6933C11.5288 79.4792 11.0206 78.6224 10.2655 78.0229C9.45806 77.4372 8.47866 77.1379 7.48226 77.1722C4.19295 77.124 2.51818 79.7543 2.45794 85.0632C3.01229 84.2276 3.77147 83.5483 4.66285 83.0905C5.52408 82.6042 6.49365 82.3428 7.48226 82.3303" fill="black"/>
<path d="M23.7842 77.0998C20.6274 77.0998 19.049 79.8749 19.049 85.4251C19.049 90.9632 20.6214 93.7504 23.7842 93.7504C26.947 93.7504 28.5013 90.9632 28.5013 85.4251C28.5013 79.887 26.9289 77.0998 23.7842 77.0998ZM29.2061 93.1894C28.6169 94.0745 27.8061 94.7893 26.8547 95.2625C25.9033 95.7357 24.8445 95.9507 23.7842 95.886C22.7234 95.9544 21.6633 95.7411 20.7112 95.2675C19.7592 94.794 18.9489 94.0771 18.3623 93.1894C17.0206 90.8316 16.3927 88.1339 16.555 85.4251C16.3927 82.7163 17.0206 80.0186 18.3623 77.6608C18.9489 76.7731 19.7592 76.0562 20.7112 75.5826C21.6633 75.1091 22.7234 74.8958 23.7842 74.9641C24.8445 74.8995 25.9033 75.1145 26.8547 75.5877C27.8061 76.0609 28.6169 76.7757 29.2061 77.6608C30.5478 80.0186 31.1757 82.7163 31.0134 85.4251C31.1757 88.1339 30.5478 90.8316 29.2061 93.1894" fill="black"/>
<path d="M3.61462 40.0701V38.0068H16.2658V39.8167C11.8193 44.8044 9.31693 51.2298 9.21729 57.9152H6.79549C6.84988 54.6618 7.46118 51.4418 8.6028 48.3954C9.81436 45.3462 11.5246 42.5204 13.6633 40.0339L3.61462 40.0701Z" fill="black"/>
<path d="M23.7661 39.6176C20.6214 39.6176 19.0491 42.3927 19.0491 47.9429C19.0491 53.4811 20.6214 56.2682 23.7661 56.2682C26.9109 56.2682 28.5013 53.4811 28.5013 47.9429C28.5013 42.4048 26.9289 39.6176 23.7661 39.6176V39.6176ZM29.1881 55.7072C28.5988 56.5923 27.788 57.3072 26.8366 57.7804C25.8852 58.2536 24.8265 58.4685 23.7661 58.4039C22.7053 58.4723 21.6453 58.2589 20.6932 57.7854C19.7411 57.3118 18.9308 56.5949 18.3442 55.7072C17.0026 53.3494 16.3746 50.6518 16.5369 47.9429C16.3746 45.2341 17.0026 42.5364 18.3442 40.1787C18.9308 39.2909 19.7411 38.574 20.6932 38.1005C21.6453 37.6269 22.7053 37.4136 23.7661 37.482C24.8265 37.4173 25.8852 37.6323 26.8366 38.1055C27.788 38.5787 28.5988 39.2935 29.1881 40.1787C30.521 42.5398 31.1484 45.2349 30.9954 47.9429C31.1484 50.651 30.521 53.346 29.1881 55.7072" fill="black"/>
<path d="M10.139 3.00439C9.29428 2.39527 8.26912 2.08921 7.22923 2.13566C6.18323 2.08508 5.15103 2.39134 4.30139 3.00439C3.93274 3.28999 3.63608 3.65814 3.4352 4.07932C3.23433 4.50049 3.13483 4.96295 3.14471 5.42959C3.11523 5.91272 3.20346 6.39578 3.40181 6.83717C3.60016 7.27857 3.90268 7.66507 4.28331 7.96338C5.13788 8.58038 6.17713 8.88685 7.22923 8.83211C8.26912 8.87856 9.29428 8.5725 10.139 7.96338C10.5196 7.66507 10.8222 7.27857 11.0205 6.83717C11.2188 6.39578 11.3071 5.91272 11.2776 5.42959C11.2982 4.95543 11.2057 4.48317 11.0077 4.05197C10.8097 3.62077 10.5119 3.24304 10.139 2.95009V3.00439ZM3.75919 17.7185C4.75482 18.4713 5.98324 18.8493 7.22923 18.7863C8.463 18.8408 9.67719 18.4632 10.6631 17.7185C11.0872 17.361 11.4235 16.9107 11.646 16.4023C11.8685 15.8939 11.9712 15.341 11.9463 14.7865C11.9741 14.229 11.8727 13.6726 11.6501 13.1609C11.4275 12.6491 11.0897 12.1958 10.6631 11.8365C9.66147 11.1319 8.45121 10.7874 7.22923 10.8591C5.99479 10.799 4.77688 11.163 3.77727 11.8908C3.35071 12.2501 3.01293 12.7034 2.79033 13.2152C2.56772 13.7269 2.46633 14.2833 2.49408 14.8408C2.46915 15.3953 2.57191 15.9482 2.79442 16.4566C3.01692 16.965 3.35321 17.4153 3.77727 17.7728L3.75919 17.7185ZM10.7173 9.71894C11.7883 10.1079 12.7237 10.7994 13.4102 11.7098C14.0925 12.5896 14.4614 13.6726 14.4585 14.7865C14.5018 15.634 14.3461 16.4798 14.004 17.2561C13.6619 18.0325 13.1429 18.7177 12.4885 19.2569C10.9938 20.4297 9.1256 21.0212 7.22923 20.9219C5.35122 21.008 3.50458 20.4172 2.02418 19.2569C1.35992 18.7233 0.830511 18.0405 0.478839 17.2638C0.127167 16.4872 -0.0368793 15.6385 -1.24376e-05 14.7865C-0.0303153 13.6829 0.30665 12.6006 0.957862 11.7098C1.65573 10.8032 2.59562 10.113 3.66883 9.71894C2.7996 9.4024 2.05479 8.81483 1.544 8.04267C1.0332 7.27051 0.783402 6.35456 0.83135 5.42959C0.801501 4.66024 0.949007 3.89434 1.26243 3.19129C1.57585 2.48823 2.04677 1.86692 2.63866 1.37552C3.96423 0.399747 5.58631 -0.0862815 7.22923 3.2796e-05C8.86642 -0.0622465 10.475 0.442731 11.7837 1.42982C12.3682 1.91554 12.8346 2.52808 13.1478 3.22106C13.4609 3.91403 13.6124 4.66928 13.591 5.42959C13.6364 6.35897 13.3813 7.27824 12.8637 8.05094C12.346 8.82365 11.5933 9.40859 10.7173 9.71894" fill="black"/>
<path d="M23.7842 2.13566C20.6274 2.13566 19.049 4.91077 19.049 10.461C19.049 15.9991 20.6214 18.7863 23.7842 18.7863C26.947 18.7863 28.5013 15.9991 28.5013 10.461C28.5013 4.92284 26.9289 2.13566 23.7842 2.13566V2.13566ZM29.2061 18.2252C28.6169 19.1104 27.8061 19.8252 26.8547 20.2984C25.9033 20.7716 24.8445 20.9866 23.7842 20.9219C22.7234 20.9903 21.6633 20.777 20.7112 20.3034C19.7592 19.8299 18.9489 19.113 18.3623 18.2252C17.0206 15.8675 16.3927 13.1698 16.555 10.461C16.3927 7.75214 17.0206 5.0545 18.3623 2.69672C18.9489 1.80895 19.7592 1.09205 20.7112 0.618529C21.6633 0.145005 22.7234 -0.0683516 23.7842 3.8124e-05C24.8445 -0.0646454 25.9033 0.150345 26.8547 0.623543C27.8061 1.09674 28.6169 1.81159 29.2061 2.69672C30.5478 5.0545 31.1757 7.75214 31.0134 10.461C31.1757 13.1698 30.5478 15.8675 29.2061 18.2252" fill="black"/>
<path d="M42.7971 309.087V10.624M42.7971 10.624H57.7255H42.7971ZM42.7971 47.9251H57.7255H42.7971ZM42.7971 85.2442H57.7255H42.7971ZM42.7971 122.545H57.7255H42.7971ZM42.7971 159.846H57.7255H42.7971ZM42.7971 197.165H57.7255H42.7971ZM42.7971 234.467H57.7255H42.7971ZM42.7971 271.768H57.7255H42.7971ZM42.7971 309.087H57.7255H42.7971Z" stroke="#231F20" stroke-width="1.31" stroke-miterlimit="10"/>
<path d="M596.629 122.364H446.532V309.774H596.629V122.364Z" fill="#A1FAED"/>
<path d="M429.851 197.328H279.754V309.774H429.851V197.328Z" fill="#8299F5"/>
<path d="M263.072 77.3894H112.975V309.774H263.072V77.3894Z" fill="#0533ED"/>
<path d="M524.716 369.011H446.532V399H524.716V369.011Z" fill="#A1FAED"/>
<path d="M545.121 387.417V377.625L537.639 387.417H545.121ZM547.471 387.417H550.127V389.552H547.471V394.548H545.121V389.552H535.181V387.308L544.922 374.639H547.471V387.417Z" fill="black"/>
<path d="M555.784 374.531H557.682V394.548H555.332V379.616H550.832V377.807H551.284C552.386 377.806 553.47 377.519 554.429 376.974C555.172 376.391 555.659 375.54 555.784 374.603" fill="black"/>
<path d="M568.616 385.607H560.574V387.634H568.616V385.607Z" fill="black"/>
<path d="M577.978 381.499C578.884 381.439 579.792 381.569 580.645 381.881C581.497 382.192 582.276 382.679 582.93 383.309C584.153 384.627 584.803 386.379 584.737 388.177C584.778 389.063 584.639 389.948 584.329 390.779C584.018 391.61 583.542 392.368 582.93 393.009C582.272 393.657 581.488 394.161 580.627 394.491C579.765 394.822 578.845 394.97 577.924 394.928C576.203 394.989 574.524 394.394 573.225 393.263C572.601 392.717 572.098 392.047 571.746 391.297C571.395 390.546 571.203 389.73 571.182 388.901H573.532C573.555 389.445 573.691 389.979 573.931 390.468C574.17 390.957 574.508 391.391 574.923 391.743C575.758 392.454 576.828 392.828 577.924 392.792C578.514 392.812 579.102 392.709 579.65 392.487C580.198 392.266 580.693 391.932 581.105 391.507C581.908 390.584 582.351 389.402 582.351 388.177C582.351 386.953 581.908 385.77 581.105 384.847C580.693 384.422 580.198 384.088 579.65 383.867C579.102 383.646 578.514 383.542 577.924 383.562C577.079 383.499 576.236 383.698 575.508 384.132C574.78 384.566 574.204 385.214 573.857 385.987H571.688L573.351 374.458H583.599V376.594H575.249L574.309 382.892C575.327 381.938 576.674 381.413 578.068 381.426" fill="black"/>
<path d="M594.226 376.214C591.081 376.214 589.49 379.001 589.49 384.539C589.49 390.078 591.081 392.865 594.226 392.865C597.37 392.865 598.961 390.096 598.961 384.539C598.961 378.983 597.388 376.214 594.226 376.214ZM599.648 392.304C599.021 393.139 598.209 393.817 597.276 394.284C596.343 394.751 595.314 394.994 594.271 394.994C593.228 394.994 592.199 394.751 591.265 394.284C590.332 393.817 589.52 393.139 588.894 392.304C587.705 389.889 587.086 387.232 587.086 384.539C587.086 381.847 587.705 379.19 588.894 376.775C589.52 375.94 590.332 375.262 591.265 374.795C592.199 374.328 593.228 374.084 594.271 374.084C595.314 374.084 596.343 374.328 597.276 374.795C598.209 375.262 599.021 375.94 599.648 376.775C600.837 379.19 601.455 381.847 601.455 384.539C601.455 387.232 600.837 389.889 599.648 392.304" fill="black"/>
<path d="M354.847 369.011H276.663V399H354.847V369.011Z" fill="#8299F5"/>
<path d="M376.318 383.888C377.304 384.306 378.144 385.007 378.733 385.902C379.321 386.797 379.632 387.847 379.626 388.919C379.658 389.748 379.505 390.573 379.176 391.334C378.848 392.095 378.353 392.773 377.728 393.317C376.363 394.484 374.605 395.086 372.812 395C370.925 395.094 369.076 394.445 367.661 393.19C367.042 392.569 366.561 391.824 366.249 391.004C365.938 390.184 365.803 389.307 365.854 388.43H368.167C368.14 389.027 368.237 389.623 368.452 390.181C368.667 390.739 368.994 391.246 369.414 391.67C370.355 392.465 371.565 392.867 372.794 392.792C373.951 392.849 375.086 392.468 375.975 391.724C376.737 390.958 377.166 389.92 377.166 388.838C377.166 387.756 376.737 386.718 375.975 385.951C375.056 385.184 373.88 384.796 372.686 384.865H371.203V382.965H372.541C373.634 383.039 374.718 382.718 375.595 382.06C375.951 381.752 376.232 381.367 376.417 380.934C376.601 380.502 376.685 380.032 376.662 379.562C376.682 379.098 376.597 378.635 376.412 378.208C376.228 377.782 375.948 377.403 375.595 377.101C374.758 376.476 373.729 376.162 372.686 376.214C371.61 376.155 370.552 376.504 369.722 377.191C369.334 377.558 369.028 378.002 368.822 378.494C368.617 378.987 368.517 379.517 368.529 380.051H366.197C366.172 379.24 366.321 378.433 366.632 377.684C366.944 376.934 367.412 376.261 368.005 375.707C369.304 374.568 370.997 373.984 372.722 374.078C374.381 373.998 376.015 374.511 377.33 375.526C377.918 376.005 378.386 376.614 378.7 377.305C379.013 377.996 379.163 378.75 379.138 379.508C379.153 380.419 378.907 381.316 378.43 382.092C377.953 382.868 377.264 383.491 376.445 383.888" fill="black"/>
<path d="M386.53 374.531H388.337V394.548H385.987V379.616H381.487V377.807H381.921C383.023 377.806 384.107 377.519 385.066 376.974C385.816 376.395 386.309 375.543 386.439 374.603" fill="black"/>
<path d="M399.361 385.607H391.319V387.634H399.361V385.607Z" fill="black"/>
<path d="M411.091 387.417V377.625L403.59 387.417H411.091ZM413.422 387.417H416.097V389.552H413.422V394.548H411.091V389.552H401.223V387.308L410.964 374.639H413.495L413.422 387.417Z" fill="black"/>
<path d="M424.917 376.214C421.772 376.214 420.182 379.001 420.182 384.539C420.182 390.078 421.772 392.865 424.917 392.865C428.061 392.865 429.652 390.096 429.652 384.539C429.652 378.983 428.08 376.214 424.917 376.214ZM430.339 392.304C429.714 393.139 428.904 393.817 427.972 394.284C427.041 394.751 426.013 394.994 424.971 394.994C423.929 394.994 422.901 394.751 421.97 394.284C421.038 393.817 420.228 393.139 419.603 392.304C418.414 389.889 417.796 387.232 417.796 384.539C417.796 381.847 418.414 379.19 419.603 376.775C420.228 375.94 421.038 375.262 421.97 374.795C422.901 374.328 423.929 374.084 424.971 374.084C426.013 374.084 427.041 374.328 427.972 374.795C428.904 375.262 429.714 375.94 430.339 376.775C431.539 379.187 432.163 381.845 432.163 384.539C432.163 387.234 431.539 389.892 430.339 392.304Z" fill="black"/>
<path d="M191.159 369.011H112.975V399H191.159V369.011Z" fill="#0533ED"/>
<path d="M207.154 374.531H208.961V394.548H206.63V379.616H202.112V377.807H202.563C203.666 377.806 204.749 377.519 205.708 376.974C206.452 376.391 206.938 375.54 207.064 374.603" fill="black"/>
<path d="M216.371 391.561C216.782 391.988 217.276 392.325 217.824 392.549C218.372 392.774 218.961 392.881 219.552 392.864C220.139 392.887 220.724 392.783 221.267 392.558C221.81 392.333 222.298 391.993 222.697 391.561C223.526 390.662 223.967 389.472 223.926 388.249C223.959 387.027 223.519 385.84 222.697 384.937C222.298 384.505 221.81 384.165 221.267 383.94C220.724 383.715 220.139 383.611 219.552 383.634C218.964 383.619 218.379 383.724 217.832 383.941C217.285 384.159 216.789 384.486 216.371 384.901C215.532 385.809 215.084 387.012 215.124 388.249C215.096 388.857 215.192 389.464 215.406 390.034C215.621 390.604 215.949 391.123 216.371 391.561V391.561ZM219.606 381.498C220.519 381.457 221.431 381.606 222.284 381.937C223.136 382.267 223.911 382.771 224.558 383.417C225.529 384.375 226.187 385.605 226.447 386.945C226.707 388.285 226.557 389.672 226.015 390.925C225.474 392.177 224.567 393.237 223.413 393.964C222.26 394.691 220.914 395.052 219.552 395C217.975 395.049 216.43 394.55 215.178 393.588C214.083 392.682 213.288 391.464 212.901 390.095C212.413 388.328 212.188 386.499 212.233 384.666C212.05 381.955 212.679 379.252 214.04 376.901C214.634 376.015 215.443 375.294 216.391 374.806C217.34 374.319 218.396 374.081 219.462 374.114C221.025 374.064 222.555 374.571 223.781 375.544C224.963 376.563 225.734 377.979 225.95 379.526H223.673C223.501 378.568 222.987 377.706 222.227 377.1C221.428 376.512 220.453 376.213 219.462 376.25C216.16 376.25 214.48 378.922 214.419 384.267C214.99 383.44 215.753 382.763 216.642 382.295C217.504 381.808 218.473 381.547 219.462 381.535" fill="black"/>
<path d="M236.197 385.607H228.155V387.634H236.197V385.607Z" fill="black"/>
<path d="M248.415 383.888C249.404 384.303 250.248 385.003 250.84 385.898C251.432 386.794 251.745 387.845 251.74 388.919C251.784 389.741 251.645 390.562 251.332 391.322C251.019 392.083 250.541 392.764 249.933 393.317C248.488 394.425 246.719 395.026 244.9 395.026C243.08 395.026 241.311 394.425 239.866 393.317C239.247 392.696 238.766 391.951 238.454 391.131C238.143 390.31 238.008 389.433 238.059 388.557H240.372C240.345 389.154 240.442 389.75 240.657 390.308C240.872 390.865 241.199 391.372 241.619 391.797C242.554 392.591 243.758 392.993 244.981 392.919C246.143 392.977 247.285 392.596 248.18 391.851C248.571 391.484 248.878 391.037 249.081 390.541C249.284 390.044 249.377 389.509 249.355 388.973C249.383 388.431 249.289 387.889 249.079 387.387C248.869 386.886 248.55 386.438 248.144 386.078C247.223 385.314 246.048 384.927 244.854 384.992H243.372V382.965H244.71C245.803 383.039 246.887 382.718 247.764 382.06C248.12 381.752 248.401 381.367 248.586 380.934C248.77 380.502 248.854 380.032 248.83 379.562C248.851 379.098 248.766 378.635 248.581 378.208C248.396 377.782 248.117 377.403 247.764 377.101C246.925 376.479 245.897 376.165 244.854 376.214C243.779 376.155 242.721 376.504 241.89 377.191C241.503 377.558 241.197 378.002 240.991 378.494C240.786 378.987 240.686 379.517 240.698 380.051H238.366C238.341 379.24 238.49 378.433 238.801 377.684C239.113 376.934 239.581 376.261 240.173 375.707C241.483 374.572 243.179 373.989 244.909 374.078C246.562 374 248.189 374.514 249.499 375.526C250.089 376.004 250.559 376.612 250.873 377.303C251.186 377.994 251.335 378.749 251.307 379.508C251.322 380.421 251.075 381.32 250.594 382.097C250.113 382.874 249.42 383.495 248.596 383.888" fill="black"/>
<path d="M260.976 376.214C257.813 376.214 256.24 379.001 256.24 384.539C256.24 390.078 257.813 392.865 260.976 392.865C264.138 392.865 265.711 390.096 265.711 384.539C265.711 378.983 264.138 376.214 260.976 376.214ZM266.398 392.304C265.773 393.139 264.963 393.817 264.031 394.284C263.099 394.751 262.072 394.994 261.03 394.994C259.988 394.994 258.96 394.751 258.029 394.284C257.097 393.817 256.287 393.139 255.662 392.304C254.473 389.889 253.854 387.232 253.854 384.539C253.854 381.847 254.473 379.19 255.662 376.775C256.287 375.94 257.097 375.262 258.029 374.795C258.96 374.328 259.988 374.084 261.03 374.084C262.072 374.084 263.099 374.328 264.031 374.795C264.963 375.262 265.773 375.94 266.398 376.775C267.587 379.19 268.205 381.847 268.205 384.539C268.205 387.232 267.587 389.889 266.398 392.304" fill="black"/>
</g>
<defs>
<clipPath id="clip0">
<rect width="668" height="399" fill="white"/>
</clipPath>
</defs>
</svg>
