<svg width="790" height="613" viewBox="0 0 790 613" fill="none" xmlns="http://www.w3.org/2000/svg">
<g clip-path="url(#clip0)">
<path d="M352.374 109.65V195.526C334.121 195.499 316.153 200.044 300.111 208.747L260.387 132.918C288.539 117.389 320.221 109.375 352.374 109.65" fill="#BD08FA"/>
<path d="M279.359 393.66L223.819 458.471C142.127 386.443 133.49 260.883 204.483 178.039C220.064 159.569 239.041 144.253 260.387 132.918L300.111 208.747C284.122 217.532 270.479 230.028 260.329 245.182C250.179 260.336 243.819 277.705 241.786 295.828C239.752 313.95 242.103 332.296 248.642 349.321C255.18 366.346 265.715 381.552 279.359 393.66" fill="#A1FAED"/>
<path d="M327.314 418.464L308.282 502.117C276.854 495.024 247.772 479.989 223.819 458.451L279.359 393.64C293.041 405.756 309.519 414.286 327.314 418.464" fill="#8299F5"/>
<path d="M548.322 308.451C548.322 418.242 460.602 507.232 352.374 507.232C337.519 507.43 322.7 505.718 308.282 502.137L327.314 418.465C335.53 420.378 343.938 421.341 352.374 421.335C413.84 421.335 463.616 370.796 463.616 308.431C463.616 246.065 413.78 195.506 352.374 195.506V109.65C460.602 109.65 548.322 198.599 548.322 308.451Z" fill="#0533ED"/>
<path d="M589.866 373.101H601.677V374.698H596.682V388.04H594.882V374.698H589.866V373.101Z" fill="black"/>
<path d="M606.471 377.063H607.037V378.68H606.633C605.699 378.62 604.777 378.908 604.044 379.489C603.733 379.796 603.49 380.165 603.334 380.573C603.177 380.981 603.108 381.418 603.134 381.854V387.919H601.475V377.224H603.053V379.125C603.359 378.488 603.847 377.956 604.456 377.597C605.064 377.237 605.765 377.065 606.471 377.103" fill="black"/>
<path d="M611.082 386.868C611.93 386.885 612.755 386.598 613.408 386.059C613.741 385.782 614.003 385.431 614.175 385.034C614.347 384.638 614.424 384.206 614.399 383.775V382.481C613.982 382.768 613.49 382.929 612.984 382.946L611.447 383.128C610.759 383.165 610.095 383.388 609.525 383.775C609.334 383.934 609.183 384.135 609.084 384.364C608.986 384.592 608.943 384.841 608.959 385.089C608.946 385.335 608.989 385.58 609.084 385.807C609.178 386.035 609.322 386.238 609.505 386.403C609.958 386.741 610.518 386.906 611.082 386.868ZM616.584 386.686H617.191V388.141C616.888 388.163 616.584 388.163 616.281 388.141C615.168 388.141 614.561 387.636 614.48 386.605C614.106 387.176 613.587 387.638 612.976 387.944C612.365 388.249 611.683 388.387 611.002 388.343C610.016 388.398 609.042 388.105 608.251 387.515C607.914 387.227 607.647 386.866 607.472 386.46C607.297 386.053 607.217 385.612 607.24 385.17C607.24 383.148 608.554 382.097 611.184 381.814L612.721 381.652C613.833 381.511 614.399 381.025 614.399 380.156C614.423 379.912 614.386 379.666 614.29 379.44C614.195 379.214 614.045 379.016 613.853 378.862C613.286 378.548 612.639 378.407 611.993 378.458C611.286 378.396 610.578 378.558 609.97 378.923C609.738 379.135 609.555 379.395 609.433 379.685C609.311 379.974 609.252 380.287 609.262 380.601H607.624C607.745 378.215 609.201 377.002 611.952 377.002C614.703 377.002 615.997 378.054 615.997 380.156V386.221C615.997 386.564 616.179 386.746 616.564 386.746" fill="black"/>
<path d="M622.955 388.303C622.28 388.325 621.609 388.197 620.99 387.928C620.37 387.659 619.819 387.255 619.375 386.746C618.495 385.552 618.02 384.106 618.02 382.622C618.02 381.138 618.495 379.693 619.375 378.498C619.821 377.993 620.373 377.594 620.992 377.328C621.611 377.062 622.282 376.937 622.955 376.962C624.093 376.924 625.205 377.298 626.09 378.013C626.919 378.754 627.438 379.778 627.546 380.884H625.827C625.744 380.188 625.396 379.551 624.856 379.105C624.309 378.693 623.641 378.472 622.955 378.478C622.508 378.462 622.064 378.553 621.66 378.743C621.255 378.933 620.902 379.216 620.629 379.57C620.072 380.483 619.777 381.532 619.777 382.602C619.777 383.672 620.072 384.721 620.629 385.635C620.903 385.987 621.257 386.27 621.661 386.459C622.065 386.649 622.509 386.741 622.955 386.726C623.645 386.738 624.317 386.509 624.856 386.079C625.405 385.629 625.76 384.985 625.847 384.28H627.546C627.448 385.415 626.917 386.468 626.061 387.221C625.206 387.974 624.094 388.369 622.955 388.323" fill="black"/>
<path d="M638.387 388.04H636.466L632.866 382.238L630.964 384.037V388.04H629.306V373.101H630.964V382.076L635.9 377.225H638.104L634.039 381.126L638.387 388.04Z" fill="black"/>
<path d="M639.52 388.141H641.158V377.225H639.5L639.52 388.141ZM639.52 375.689H641.158V373.667H639.399L639.52 375.689Z" fill="black"/>
<path d="M648.581 376.962C649.088 376.912 649.599 376.974 650.078 377.145C650.558 377.317 650.993 377.592 651.353 377.952C651.713 378.311 651.988 378.747 652.16 379.226C652.331 379.705 652.393 380.216 652.343 380.722V388.141H650.685V380.985C650.729 380.655 650.696 380.319 650.589 380.004C650.481 379.689 650.301 379.403 650.063 379.17C649.826 378.936 649.537 378.761 649.22 378.659C648.903 378.556 648.567 378.529 648.237 378.579C647.858 378.584 647.483 378.666 647.136 378.819C646.788 378.971 646.475 379.193 646.215 379.469C645.903 379.812 645.664 380.214 645.511 380.652C645.358 381.09 645.295 381.553 645.325 382.016V388.081H643.666V377.225H645.203V378.842C645.545 378.258 646.036 377.777 646.627 377.446C647.217 377.116 647.885 376.948 648.561 376.962" fill="black"/>
<path d="M659.483 386.787C659.955 386.806 660.426 386.716 660.858 386.523C661.289 386.33 661.67 386.04 661.971 385.675C662.573 384.778 662.895 383.723 662.895 382.642C662.895 381.562 662.573 380.507 661.971 379.61C661.67 379.245 661.289 378.954 660.858 378.761C660.426 378.568 659.955 378.478 659.483 378.498C659.006 378.482 658.532 378.576 658.097 378.772C657.662 378.969 657.278 379.262 656.975 379.63C656.316 380.499 655.986 381.574 656.044 382.663C655.985 383.745 656.315 384.814 656.975 385.675C657.278 386.043 657.662 386.336 658.097 386.533C658.532 386.729 659.006 386.823 659.483 386.807V386.787ZM662.921 378.721V377.144H664.499V387.535C664.536 388.177 664.442 388.819 664.223 389.424C664.004 390.029 663.664 390.583 663.225 391.052C662.256 391.815 661.073 392.258 659.841 392.32C658.609 392.382 657.388 392.059 656.348 391.396C655.953 391.093 655.627 390.709 655.393 390.269C655.16 389.83 655.023 389.345 654.993 388.849H656.651C656.854 390.223 657.804 390.87 659.544 390.87C659.998 390.929 660.459 390.881 660.891 390.731C661.324 390.581 661.715 390.332 662.035 390.005C662.355 389.677 662.594 389.28 662.734 388.844C662.873 388.409 662.91 387.946 662.84 387.494V386.463C662.433 387.023 661.892 387.474 661.267 387.774C660.642 388.074 659.953 388.214 659.26 388.182C658.582 388.205 657.907 388.078 657.285 387.809C656.662 387.54 656.107 387.135 655.66 386.625C654.78 385.43 654.305 383.985 654.305 382.501C654.305 381.017 654.78 379.572 655.66 378.377C656.108 377.869 656.664 377.468 657.287 377.202C657.909 376.936 658.584 376.813 659.26 376.841C659.977 376.81 660.689 376.963 661.33 377.285C661.971 377.607 662.519 378.087 662.921 378.68" fill="black"/>
<path d="M674.126 386.868C674.973 386.885 675.799 386.598 676.452 386.059C676.784 385.782 677.047 385.431 677.219 385.034C677.391 384.638 677.468 384.206 677.443 383.775V382.481C677.026 382.768 676.534 382.929 676.028 382.946L674.49 383.128C673.768 383.146 673.066 383.37 672.468 383.775C672.276 383.934 672.125 384.135 672.027 384.364C671.928 384.592 671.886 384.841 671.901 385.089C671.889 385.335 671.932 385.58 672.026 385.807C672.121 386.035 672.265 386.238 672.448 386.403C672.901 386.741 673.461 386.906 674.025 386.868H674.126ZM679.527 386.686H680.133V388.141C679.83 388.163 679.526 388.163 679.223 388.141C678.111 388.141 677.504 387.636 677.423 386.605C677.049 387.176 676.53 387.638 675.919 387.944C675.307 388.249 674.626 388.387 673.944 388.343C672.958 388.398 671.985 388.105 671.194 387.515C670.857 387.227 670.59 386.866 670.415 386.46C670.239 386.053 670.16 385.612 670.182 385.17C670.182 383.148 671.497 382.097 674.227 381.814L675.744 381.652C676.857 381.511 677.423 381.025 677.423 380.156C677.447 379.912 677.409 379.666 677.314 379.44C677.219 379.214 677.068 379.016 676.877 378.862C676.31 378.548 675.663 378.407 675.016 378.458C674.31 378.396 673.602 378.558 672.994 378.923C672.765 379.138 672.584 379.398 672.462 379.687C672.34 379.976 672.28 380.287 672.286 380.601H670.647C670.769 378.215 672.225 377.002 674.976 377.002C677.727 377.002 679.021 378.054 679.021 380.156V386.221C679.021 386.564 679.203 386.746 679.587 386.746" fill="black"/>
<path d="M686.606 376.962C687.11 376.937 687.614 377.011 688.09 377.181C688.565 377.351 689.002 377.613 689.377 377.952C689.721 378.322 689.987 378.759 690.158 379.235C690.328 379.711 690.399 380.217 690.368 380.722V388.141H688.709V380.985C688.754 380.655 688.721 380.319 688.613 380.004C688.505 379.689 688.325 379.403 688.088 379.17C687.85 378.936 687.562 378.761 687.245 378.659C686.928 378.556 686.591 378.529 686.262 378.579C685.882 378.585 685.508 378.667 685.161 378.82C684.813 378.973 684.5 379.193 684.239 379.468C683.928 379.812 683.688 380.214 683.535 380.652C683.382 381.089 683.319 381.553 683.349 382.016V388.08H681.61V377.225H683.187V378.842C683.529 378.258 684.02 377.776 684.611 377.446C685.201 377.115 685.869 376.948 686.545 376.962" fill="black"/>
<path d="M694.999 385.715C695.307 386.068 695.691 386.348 696.122 386.533C696.552 386.719 697.019 386.805 697.487 386.786C697.963 386.81 698.438 386.721 698.873 386.528C699.309 386.335 699.693 386.043 699.995 385.675C700.664 384.811 700.995 383.733 700.926 382.642C700.991 381.546 700.661 380.463 699.995 379.59C699.684 379.234 699.3 378.948 698.869 378.753C698.438 378.557 697.97 378.456 697.497 378.456C697.024 378.456 696.556 378.557 696.126 378.753C695.695 378.948 695.311 379.234 694.999 379.59C694.331 380.477 694.001 381.574 694.069 382.683C694 383.76 694.331 384.826 694.999 385.675V385.715ZM700.865 378.741V373.06H702.523V388.141H700.946V386.463C700.578 387.101 700.042 387.627 699.397 387.983C698.752 388.34 698.021 388.513 697.285 388.485C696.607 388.508 695.932 388.381 695.309 388.112C694.687 387.843 694.132 387.438 693.685 386.928C692.804 385.733 692.329 384.288 692.329 382.804C692.329 381.32 692.804 379.875 693.685 378.68C694.133 378.172 694.688 377.771 695.311 377.505C695.934 377.239 696.608 377.116 697.285 377.144C697.988 377.109 698.689 377.259 699.317 377.578C699.945 377.897 700.478 378.374 700.865 378.963" fill="black"/>
<path d="M712.151 386.868C712.998 386.885 713.823 386.598 714.477 386.059C714.809 385.782 715.072 385.431 715.244 385.034C715.416 384.638 715.493 384.206 715.468 383.775V382.481C715.05 382.768 714.559 382.929 714.052 382.946L712.515 383.128C711.827 383.165 711.163 383.388 710.593 383.775C710.402 383.934 710.251 384.135 710.153 384.364C710.054 384.592 710.011 384.841 710.027 385.089C710.015 385.335 710.058 385.58 710.152 385.807C710.246 386.035 710.39 386.238 710.573 386.403C711.027 386.741 711.586 386.906 712.151 386.868ZM717.652 386.686H718.259V388.141C717.956 388.163 717.652 388.163 717.349 388.141C716.236 388.141 715.63 387.636 715.549 386.605C715.175 387.176 714.655 387.638 714.044 387.944C713.433 388.249 712.752 388.387 712.07 388.343C711.084 388.398 710.11 388.105 709.319 387.515C708.982 387.227 708.716 386.866 708.54 386.46C708.365 386.053 708.286 385.612 708.308 385.17C708.308 383.148 709.623 382.097 712.353 381.814L713.87 381.652C714.982 381.511 715.549 381.025 715.549 380.156C715.572 379.912 715.535 379.666 715.44 379.44C715.344 379.214 715.194 379.016 715.003 378.862C714.436 378.548 713.788 378.407 713.142 378.458C712.435 378.396 711.727 378.558 711.119 378.923C710.891 379.138 710.709 379.398 710.587 379.687C710.465 379.976 710.406 380.287 710.411 380.601H708.773C708.894 378.215 710.351 377.002 713.101 377.002C715.852 377.002 717.147 378.054 717.147 380.156V386.221C717.147 386.564 717.329 386.746 717.713 386.746" fill="black"/>
<path d="M724.63 376.962C725.135 376.937 725.639 377.011 726.114 377.181C726.59 377.351 727.027 377.613 727.401 377.952C727.746 378.322 728.012 378.759 728.182 379.235C728.353 379.711 728.424 380.217 728.392 380.722V388.141H726.734V380.985C726.778 380.655 726.745 380.319 726.638 380.004C726.53 379.689 726.35 379.403 726.112 379.17C725.875 378.936 725.586 378.761 725.269 378.659C724.952 378.556 724.616 378.529 724.286 378.579C723.907 378.585 723.533 378.667 723.185 378.82C722.838 378.973 722.525 379.193 722.264 379.468C721.952 379.812 721.713 380.214 721.56 380.652C721.407 381.089 721.344 381.553 721.374 382.016V388.08H719.736V377.225H721.293V378.842C721.635 378.258 722.126 377.776 722.716 377.446C723.306 377.115 723.974 376.948 724.65 376.962" fill="black"/>
<path d="M734.197 386.868C735.044 386.885 735.869 386.598 736.523 386.059C736.851 385.779 737.112 385.428 737.283 385.032C737.455 384.636 737.534 384.206 737.514 383.775V382.481C737.095 382.765 736.604 382.926 736.098 382.946L734.541 383.128C733.86 383.168 733.203 383.392 732.64 383.775C732.448 383.934 732.297 384.135 732.199 384.364C732.1 384.592 732.057 384.841 732.073 385.089C732.061 385.333 732.102 385.576 732.193 385.803C732.283 386.03 732.422 386.234 732.599 386.403C733.06 386.741 733.626 386.906 734.197 386.868V386.868ZM739.698 386.686H740.305V388.141C740.002 388.163 739.698 388.163 739.395 388.141C738.262 388.141 737.676 387.636 737.595 386.605C737.221 387.176 736.701 387.638 736.09 387.944C735.479 388.249 734.798 388.387 734.116 388.343C733.13 388.398 732.157 388.105 731.365 387.515C731.025 387.23 730.756 386.87 730.58 386.463C730.404 386.055 730.327 385.612 730.354 385.17C730.354 383.148 731.669 382.097 734.298 381.814L735.835 381.652C736.948 381.511 737.514 381.025 737.514 380.156C737.538 379.912 737.5 379.666 737.405 379.44C737.309 379.214 737.159 379.016 736.968 378.862C736.401 378.548 735.754 378.407 735.107 378.458C734.401 378.401 733.695 378.563 733.085 378.923C732.859 379.139 732.682 379.4 732.564 379.689C732.445 379.978 732.388 380.289 732.397 380.601H730.738C730.88 378.215 732.336 377.002 735.087 377.002C737.838 377.002 739.132 378.054 739.132 380.156V386.221C739.132 386.564 739.334 386.746 739.719 386.746" fill="black"/>
<path d="M743.198 373.121H741.539V388.06H743.198V373.121Z" fill="black"/>
<path d="M750.722 381.712L752.238 377.225H754.039L749.528 389.738C749.334 390.542 748.87 391.256 748.213 391.76C747.568 392.167 746.812 392.365 746.049 392.326H745.058V390.911H746.029C746.465 390.936 746.898 390.82 747.262 390.58C747.627 390.339 747.904 389.987 748.052 389.576L748.416 388.566L744.371 377.386H746.191L747.708 381.894C748.234 383.485 748.739 385.041 749.225 386.564C749.629 385.27 750.135 383.714 750.762 381.874" fill="black"/>
<path d="M758.994 386.585H763.282V388.141H754.645V386.888L759.52 380.52L760.349 379.469L760.915 378.741C760.228 378.741 759.459 378.741 758.65 378.741H754.848V377.265H762.938V378.519L758.063 384.907L757.234 385.938L756.668 386.665C757.376 386.665 758.124 386.665 758.953 386.665" fill="black"/>
<path d="M765.021 388.141H766.68V377.225H765.021V388.141ZM765.021 375.689H766.781V373.667H765.021V375.689Z" fill="black"/>
<path d="M774.082 376.962C774.587 376.935 775.092 377.008 775.568 377.179C776.043 377.349 776.48 377.612 776.853 377.953C777.198 378.323 777.464 378.759 777.634 379.235C777.805 379.712 777.876 380.217 777.844 380.722V388.141H776.186V380.985C776.23 380.657 776.197 380.323 776.09 380.01C775.984 379.697 775.806 379.412 775.57 379.179C775.335 378.946 775.049 378.771 774.735 378.667C774.421 378.563 774.087 378.533 773.759 378.579C773.379 378.585 773.005 378.666 772.657 378.819C772.31 378.972 771.996 379.193 771.736 379.469C771.421 379.809 771.179 380.211 771.026 380.65C770.872 381.088 770.811 381.553 770.846 382.016V388.081H769.188V377.225H770.765V378.842C771.104 378.26 771.591 377.779 772.178 377.449C772.765 377.118 773.429 376.95 774.103 376.962" fill="black"/>
<path d="M784.984 386.787C785.459 386.807 785.933 386.717 786.368 386.524C786.803 386.331 787.188 386.041 787.492 385.675C788.095 384.778 788.416 383.723 788.416 382.643C788.416 381.563 788.095 380.507 787.492 379.61C787.179 379.257 786.794 378.974 786.364 378.781C785.933 378.587 785.466 378.487 784.994 378.487C784.522 378.487 784.055 378.587 783.624 378.781C783.194 378.974 782.809 379.257 782.496 379.61C781.83 380.477 781.493 381.551 781.546 382.643C781.492 383.728 781.83 384.797 782.496 385.655C782.796 386.021 783.177 386.314 783.608 386.51C784.04 386.707 784.51 386.801 784.984 386.787V386.787ZM788.443 378.701V377.124H790V387.515C790.037 388.157 789.943 388.799 789.724 389.404C789.505 390.009 789.165 390.563 788.726 391.032C787.76 391.794 786.581 392.236 785.352 392.297C784.124 392.359 782.906 392.037 781.869 391.376C781.471 391.074 781.143 390.691 780.906 390.251C780.668 389.812 780.528 389.327 780.494 388.829H782.152C782.355 390.203 783.326 390.85 785.045 390.85C785.499 390.908 785.961 390.86 786.394 390.71C786.827 390.56 787.22 390.311 787.541 389.984C787.862 389.658 788.103 389.261 788.246 388.826C788.388 388.39 788.428 387.928 788.362 387.474V386.443C787.951 387.001 787.41 387.449 786.786 387.749C786.162 388.048 785.474 388.19 784.782 388.162C784.103 388.19 783.427 388.065 782.803 387.795C782.18 387.525 781.626 387.119 781.182 386.605C780.289 385.415 779.806 383.968 779.806 382.481C779.806 380.994 780.289 379.547 781.182 378.357C781.629 377.848 782.184 377.446 782.807 377.18C783.43 376.914 784.105 376.791 784.782 376.821C785.498 376.794 786.209 376.948 786.849 377.27C787.489 377.592 788.037 378.07 788.443 378.66" fill="black"/>
<path d="M257.495 73.9089C255.891 74.0038 254.304 73.5393 253.005 72.5949C252.453 72.1033 252.018 71.4935 251.735 70.811C251.451 70.1285 251.325 69.3908 251.366 68.6528H253.167C253.167 71.0989 254.663 72.3119 257.495 72.3119C258.464 72.3812 259.43 72.1328 260.246 71.6043C260.559 71.3715 260.812 71.0657 260.981 70.7135C261.15 70.3613 261.231 69.9732 261.216 69.5827C261.225 69.2638 261.158 68.9474 261.021 68.6593C260.884 68.3711 260.681 68.1196 260.428 67.9251C259.576 67.3976 258.627 67.047 257.636 66.8941L256.342 66.5908C255.114 66.3713 253.961 65.8503 252.984 65.0746C252.604 64.7166 252.307 64.2792 252.115 63.7936C251.923 63.3079 251.84 62.7859 251.872 62.2647C251.852 61.7185 251.965 61.1756 252.201 60.6827C252.437 60.1897 252.789 59.7614 253.227 59.4345C254.293 58.6782 255.582 58.301 256.888 58.363C257.806 58.3513 258.72 58.4808 259.598 58.7471C260.273 58.9375 260.886 59.2998 261.378 59.7984C261.79 60.2302 262.113 60.7384 262.329 61.2943C262.535 61.8582 262.644 62.4528 262.652 63.0531H260.913C260.912 62.6122 260.82 62.1763 260.643 61.7727C260.465 61.3691 260.206 61.0066 259.882 60.7081C259.007 60.1389 257.969 59.8758 256.929 59.9601C256.089 59.9094 255.255 60.1214 254.542 60.5666C254.276 60.7607 254.061 61.0169 253.917 61.3128C253.772 61.6088 253.702 61.9355 253.713 62.2647C253.69 62.5852 253.745 62.9064 253.871 63.2017C253.998 63.497 254.193 63.7579 254.441 63.9628C255.26 64.5185 256.193 64.8845 257.171 65.0342L258.466 65.3375C259.751 65.5513 260.962 66.0868 261.985 66.8941C262.341 67.2429 262.62 67.6622 262.805 68.1252C262.99 68.5882 263.075 69.0847 263.057 69.5827C263.085 70.1973 262.965 70.8097 262.709 71.3688C262.452 71.9279 262.065 72.4176 261.58 72.797C260.408 73.6439 258.979 74.0583 257.535 73.9696" fill="black"/>
<path d="M269.812 67.2379L271.329 62.75H273.048L268.538 75.2837C268.317 76.0429 267.865 76.7142 267.244 77.2042C266.585 77.5955 265.825 77.7853 265.059 77.75H264.068V76.3551H265.039C265.478 76.3795 265.912 76.2605 266.277 76.0162C266.642 75.7718 266.917 75.4153 267.062 75.0007L267.446 73.9899L263.401 62.8106H265.221L266.738 67.3187C267.284 68.9158 267.79 70.4724 268.275 72.0088C268.659 70.6948 269.185 69.1382 269.792 67.2985" fill="black"/>
<path d="M278.024 73.828C275.172 73.828 273.676 72.5948 273.493 70.1487H275.172C275.201 70.8025 275.484 71.4191 275.961 71.8671C276.562 72.2529 277.271 72.437 277.984 72.3927C279.703 72.3927 280.552 71.8266 280.552 70.7148C280.566 70.5001 280.524 70.2856 280.433 70.0912C280.341 69.8968 280.201 69.7288 280.026 69.6029C279.438 69.2512 278.784 69.0241 278.105 68.9358L277.094 68.7336C274.889 68.3091 273.777 67.2579 273.777 65.5396C273.76 65.1137 273.845 64.69 274.024 64.3034C274.203 63.9168 274.472 63.5783 274.808 63.3158C275.639 62.7286 276.643 62.4367 277.66 62.487C280.492 62.487 281.928 63.6797 282.009 66.0652H280.35C280.361 65.7539 280.303 65.444 280.181 65.1575C280.058 64.871 279.875 64.615 279.642 64.4075C279.036 64.0389 278.326 63.8758 277.62 63.9425C277.038 63.8981 276.457 64.0397 275.961 64.3468C275.773 64.478 275.621 64.654 275.519 64.8587C275.416 65.0635 275.367 65.2906 275.374 65.5194C275.364 65.7258 275.404 65.9316 275.493 66.1185C275.581 66.3055 275.714 66.4677 275.88 66.5908C276.387 66.9012 276.951 67.1074 277.539 67.1973L278.489 67.3994C279.507 67.533 280.474 67.9225 281.301 68.5315C281.59 68.7801 281.819 69.0915 281.969 69.4418C282.12 69.7921 282.189 70.1722 282.17 70.5531C282.21 71.0109 282.137 71.4715 281.957 71.8944C281.777 72.3173 281.496 72.6897 281.139 72.9789C280.222 73.5959 279.127 73.8943 278.024 73.828" fill="black"/>
<path d="M288.38 62.6687V64.1445H286.195V71.1795C286.195 71.786 286.6 72.0892 287.409 72.0892H288.38V73.5043H287.207C285.427 73.5043 284.537 72.7563 284.537 71.2604V64.2253H282.777V62.6687H284.537V59.697H286.195V62.6687H288.38Z" fill="black"/>
<path d="M294.346 64.0435C293.951 64.0266 293.557 64.0916 293.188 64.2342C292.819 64.3768 292.483 64.5941 292.202 64.8723C291.609 65.527 291.247 66.3577 291.171 67.2376H297.461C297.417 66.3833 297.082 65.5699 296.51 64.933C296.236 64.6359 295.901 64.4024 295.527 64.2487C295.153 64.095 294.75 64.025 294.346 64.0435V64.0435ZM299.241 68.0866V68.7335H291.151C291.146 69.7041 291.49 70.6441 292.121 71.3818C292.423 71.6872 292.787 71.9245 293.188 72.0779C293.589 72.2313 294.019 72.2972 294.447 72.2713C295.083 72.3284 295.718 72.1558 296.238 71.7849C296.757 71.414 297.127 70.8694 297.279 70.2497H298.998C298.747 71.2621 298.181 72.1683 297.38 72.8373C296.529 73.4883 295.478 73.8241 294.407 73.7875C293.733 73.8136 293.063 73.6893 292.443 73.4235C291.824 73.1577 291.272 72.7572 290.827 72.2511C289.869 71.1271 289.371 69.6832 289.431 68.2079C289.384 66.7381 289.873 65.3013 290.807 64.1648C291.243 63.652 291.79 63.2453 292.407 62.9755C293.024 62.7058 293.694 62.5802 294.366 62.6082C295.052 62.5748 295.735 62.7039 296.361 62.985C296.986 63.2661 297.537 63.6911 297.967 64.2254C298.859 65.38 299.317 66.8109 299.261 68.2686" fill="black"/>
<path d="M312.428 62.5071C312.925 62.4779 313.423 62.5527 313.89 62.7267C314.357 62.9008 314.782 63.1703 315.138 63.5179C315.797 64.2704 316.138 65.2486 316.089 66.247V73.5853H314.451V66.4088C314.451 64.8117 313.702 64.0031 312.206 64.0031C311.815 63.9902 311.428 64.0717 311.075 64.2407C310.723 64.4096 310.417 64.661 310.183 64.9735C309.629 65.7565 309.358 66.7047 309.414 67.6621V73.5853H307.756V66.4088C307.756 64.8117 307.028 64.0031 305.531 64.0031C305.141 63.9885 304.752 64.0693 304.4 64.2383C304.047 64.4074 303.742 64.6597 303.509 64.9735C302.933 65.7471 302.654 66.7006 302.72 67.6621V73.5853H301.061V62.6689H302.639V64.2659C302.923 63.6988 303.364 63.2246 303.908 62.8987C304.453 62.5729 305.079 62.409 305.713 62.4263C306.406 62.37 307.099 62.5356 307.692 62.899C308.285 63.2624 308.746 63.8049 309.01 64.4478C309.303 63.8307 309.768 63.3115 310.349 62.9528C310.931 62.594 311.603 62.4112 312.287 62.4263" fill="black"/>
<path d="M321.793 72.4131C322.642 72.4231 323.467 72.1291 324.119 71.5843C324.453 71.3094 324.718 70.9588 324.89 70.5616C325.062 70.1644 325.138 69.7319 325.11 69.2999V68.0263C324.688 68.3049 324.199 68.4654 323.694 68.4913L322.157 68.6732C321.471 68.705 320.808 68.9216 320.235 69.2999C320.044 69.4588 319.893 69.6606 319.794 69.889C319.696 70.1174 319.653 70.3658 319.669 70.6139C319.654 70.8601 319.695 71.1064 319.79 71.3342C319.884 71.5619 320.03 71.765 320.215 71.9279C320.661 72.2822 321.225 72.4554 321.793 72.4131V72.4131ZM327.294 72.211H327.901V73.5856C327.598 73.607 327.294 73.607 326.991 73.5856C326.767 73.6174 326.54 73.601 326.323 73.5374C326.107 73.4738 325.907 73.3646 325.736 73.217C325.565 73.0695 325.428 72.8871 325.334 72.6822C325.24 72.4772 325.191 72.2545 325.191 72.029C324.816 72.6004 324.297 73.0624 323.686 73.3678C323.075 73.6732 322.394 73.8112 321.712 73.7676C320.724 73.837 319.746 73.5421 318.961 72.9387C318.625 72.6555 318.358 72.2982 318.183 71.8949C318.007 71.4916 317.928 71.0531 317.95 70.6139C317.95 68.5923 319.264 67.5209 321.995 67.2379L323.512 67.0762C324.624 66.9549 325.191 66.4495 325.191 65.5802C325.212 65.3364 325.174 65.0909 325.079 64.8653C324.984 64.6397 324.835 64.4409 324.645 64.2864C324.078 63.9716 323.43 63.831 322.784 63.8821C322.074 63.8139 321.362 63.9846 320.761 64.3673C320.533 64.5781 320.352 64.8348 320.23 65.1205C320.108 65.4061 320.048 65.7144 320.053 66.025H318.415C318.536 63.6395 319.993 62.4468 322.743 62.4468C325.494 62.4468 326.788 63.498 326.788 65.5802V71.6449C326.788 72.0088 326.971 72.1705 327.355 72.1705" fill="black"/>
<path d="M333.605 62.6687V64.1445H331.42V71.1795C331.42 71.786 331.825 72.0892 332.634 72.0892H333.605V73.5043H332.431C330.652 73.5043 329.762 72.7563 329.762 71.2604V64.2253H328.002V62.6687H329.681V59.697H331.339V62.6687H333.605Z" fill="black"/>
<path d="M335.364 73.5855H337.023V62.669H335.364V73.5855ZM335.364 61.1124H337.124V59.0908H335.364V61.1124Z" fill="black"/>
<path d="M343.131 72.1092H347.399V73.5849H338.782V72.3113L343.657 65.9434L344.486 64.8922L345.052 64.1846H342.767H338.985V62.6685H347.075V63.9218L342.201 70.31C341.958 70.593 341.675 70.9569 341.371 71.3612L340.805 72.0687H343.09" fill="black"/>
<path d="M349.158 73.5855H350.817V62.669H349.158V73.5855ZM349.158 61.1124H350.918V59.0908H349.158V61.1124Z" fill="black"/>
<path d="M358.219 62.5069C358.731 62.4468 359.249 62.5022 359.736 62.669C360.223 62.8358 360.666 63.1097 361.033 63.4706C361.4 63.8315 361.681 64.2701 361.856 64.7541C362.03 65.2382 362.094 65.7552 362.042 66.2671V73.5851H360.384V66.4288C360.432 66.0973 360.401 65.7591 360.295 65.4414C360.189 65.1237 360.01 64.8353 359.772 64.5994C359.534 64.3635 359.244 64.1867 358.925 64.0831C358.606 63.9795 358.267 63.952 357.936 64.0029C357.557 64.0081 357.182 64.0895 356.835 64.2423C356.487 64.3951 356.174 64.6162 355.914 64.8924C355.6 65.2387 355.36 65.6445 355.207 66.0856C355.054 66.5267 354.992 66.994 355.024 67.4598V73.5245H353.365V62.6687H354.943V64.2859C355.29 63.709 355.783 63.2334 356.373 62.907C356.962 62.5806 357.627 62.4147 358.3 62.4261" fill="black"/>
<path d="M369.101 72.3113C369.576 72.3312 370.05 72.2412 370.485 72.0484C370.92 71.8555 371.304 71.565 371.609 71.1994C372.214 70.3038 372.537 69.2478 372.537 68.1671C372.537 67.0863 372.214 66.0303 371.609 65.1347C371.304 64.7691 370.92 64.4786 370.485 64.2858C370.05 64.093 369.576 64.003 369.101 64.0229C368.626 64.0038 368.154 64.0964 367.722 64.293C367.29 64.4896 366.91 64.7848 366.613 65.1549C365.997 66.0464 365.667 67.104 365.667 68.1873C365.667 69.2706 365.997 70.3282 366.613 71.2196C366.91 71.5897 367.29 71.885 367.722 72.0816C368.154 72.2782 368.626 72.3707 369.101 72.3517V72.3113ZM372.559 64.2654V62.6684H374.178V73.0795C374.214 73.72 374.117 74.3612 373.895 74.9629C373.672 75.5646 373.328 76.114 372.883 76.5768C372.391 77.0277 371.814 77.3747 371.185 77.597C370.556 77.8193 369.888 77.9124 369.222 77.8706C368.113 77.931 367.014 77.6333 366.087 77.0215C365.693 76.7128 365.369 76.3246 365.136 75.8823C364.902 75.4399 364.765 74.9533 364.732 74.4542H366.37C366.593 75.8288 367.543 76.4757 369.283 76.4757C369.736 76.5379 370.197 76.4934 370.63 76.3458C371.062 76.1981 371.454 75.9515 371.775 75.6255C372.095 75.2994 372.334 74.9031 372.474 74.4681C372.614 74.033 372.65 73.5714 372.58 73.1199V72.0687C372.173 72.6303 371.633 73.0816 371.008 73.3816C370.383 73.6817 369.692 73.821 369 73.787C368.321 73.8153 367.645 73.6899 367.021 73.4204C366.398 73.1509 365.844 72.7441 365.4 72.2304C364.521 71.0386 364.047 69.597 364.047 68.1165C364.047 66.636 364.521 65.1944 365.4 64.0026C365.845 63.4915 366.4 63.0877 367.023 62.8217C367.647 62.5556 368.322 62.4341 369 62.4662C369.715 62.4314 370.427 62.5804 371.067 62.8989C371.708 63.2175 372.257 63.6949 372.661 64.2857" fill="black"/>
<path d="M10.4365 345.183L13.7333 336.935H15.9986V351.874H14.2996V347.083C14.2996 343.929 14.2996 341.402 14.2996 339.462C13.9558 340.391 13.5311 341.483 12.985 342.858L9.34432 351.874H7.94874L4.28787 342.858C3.74177 341.524 3.31703 340.391 2.97319 339.462C2.97319 341.483 2.97319 343.929 2.97319 347.083V351.874H1.3349V336.935H3.62042L7.03858 345.425C7.54422 346.699 8.09032 348.134 8.6971 349.731C9.54658 347.467 10.1331 345.951 10.4365 345.183Z" fill="black"/>
<path d="M21.7023 350.681C22.5495 350.699 23.3748 350.412 24.0283 349.873C24.3629 349.598 24.6273 349.247 24.7996 348.85C24.972 348.453 25.0473 348.021 25.0193 347.588V346.295C24.6016 346.582 24.1103 346.743 23.6035 346.76L22.0664 346.962C21.3811 346.994 20.7171 347.21 20.1449 347.588C19.9536 347.747 19.8025 347.949 19.7041 348.178C19.6056 348.406 19.5627 348.654 19.5786 348.902C19.5663 349.148 19.609 349.394 19.7034 349.621C19.7979 349.848 19.9418 350.052 20.1247 350.217C20.5737 350.564 21.1367 350.73 21.7023 350.681V350.681ZM27.2037 350.5H27.8105V351.874C27.5075 351.896 27.2034 351.896 26.9003 351.874C26.677 351.906 26.4494 351.89 26.233 351.826C26.0165 351.762 25.8163 351.653 25.6456 351.506C25.475 351.358 25.3381 351.176 25.244 350.971C25.1499 350.766 25.1009 350.543 25.1002 350.318C24.726 350.889 24.2068 351.351 23.5957 351.656C22.9846 351.962 22.3033 352.1 21.6214 352.056C20.6356 352.111 19.6619 351.818 18.8707 351.227C18.5325 350.941 18.2652 350.58 18.0898 350.173C17.9144 349.767 17.8355 349.325 17.8594 348.882C17.8594 346.861 19.1741 345.809 21.9046 345.526L23.4215 345.365C24.5339 345.243 25.1002 344.738 25.1002 343.869C25.1221 343.625 25.0837 343.379 24.9885 343.154C24.8933 342.928 24.7442 342.73 24.5542 342.575C23.9872 342.26 23.3399 342.12 22.6934 342.171C21.9839 342.102 21.272 342.273 20.6708 342.656C20.4426 342.867 20.2615 343.123 20.1395 343.409C20.0175 343.695 19.9573 344.003 19.9629 344.314H18.2032C18.3246 341.928 19.7809 340.735 22.5316 340.735C25.2823 340.735 26.5767 341.787 26.5767 343.869V349.933C26.5767 350.277 26.7588 350.459 27.1431 350.459" fill="black"/>
<path d="M34.2625 340.877H34.8288V342.494H34.3839C33.453 342.431 32.5335 342.728 31.8152 343.323C31.4997 343.623 31.2532 343.988 31.0926 344.393C30.9319 344.798 30.8611 345.233 30.8848 345.668V351.854H29.2465V341.038H30.8039V343.06C31.1138 342.422 31.6056 341.889 32.2174 341.53C32.8291 341.17 33.5336 340.999 34.2423 341.038" fill="black"/>
<path d="M45.4474 351.874H43.526L39.9258 346.052L38.0245 347.852V351.874H36.366V336.935H38.0245V345.891L42.9596 341.039H45.1643L41.0989 344.94L45.4474 351.874Z" fill="black"/>
<path d="M50.5645 342.312C50.173 342.3 49.7831 342.368 49.4182 342.51C49.0533 342.652 48.7208 342.867 48.4408 343.141C47.8437 343.801 47.4811 344.639 47.4093 345.526H53.5984C53.5511 344.667 53.2163 343.848 52.6478 343.201C52.3682 342.906 52.0287 342.674 51.6519 342.52C51.2752 342.367 50.8699 342.296 50.4634 342.312H50.5645ZM55.3783 346.355V346.941H47.2879C47.283 347.912 47.6276 348.852 48.2588 349.59C48.5607 349.895 48.9244 350.132 49.3255 350.286C49.7267 350.439 50.156 350.505 50.5848 350.479C51.2198 350.532 51.8531 350.358 52.3716 349.988C52.8902 349.617 53.2604 349.075 53.4164 348.457H55.1153C54.8793 349.471 54.3182 350.38 53.5175 351.045C52.6601 351.699 51.6019 352.035 50.5241 351.995C49.854 352.018 49.187 351.893 48.5715 351.627C47.9559 351.361 47.407 350.962 46.9643 350.459C46.0063 349.335 45.5079 347.891 45.5688 346.416C45.5216 344.946 46.0104 343.509 46.9441 342.373C47.3809 341.867 47.9258 341.467 48.5386 341.201C49.1513 340.935 49.8161 340.81 50.4836 340.836C51.169 340.801 51.8529 340.93 52.4789 341.211C53.1049 341.492 53.655 341.918 54.0838 342.453C54.9831 343.605 55.4484 345.036 55.3985 346.497" fill="black"/>
<path d="M61.3853 341.038V342.514H59.2009V349.529C59.2009 350.156 59.6055 350.459 60.4145 350.459H61.3853V351.874H60.2122C58.4324 351.874 57.5424 351.126 57.5424 349.63V342.454H55.7828V340.978H57.5424V337.925H59.2009V340.978L61.3853 341.038Z" fill="black"/>
<path d="M63.145 351.854H64.7226V341.039H63.0641L63.145 351.854ZM63.145 339.401H64.9046V337.38H63.145V339.401Z" fill="black"/>
<path d="M72.2061 340.796C72.7094 340.764 73.2138 340.834 73.6897 341.001C74.1655 341.168 74.6032 341.428 74.9771 341.766C75.321 342.137 75.5861 342.573 75.7565 343.049C75.9268 343.525 75.9988 344.031 75.9681 344.535V351.874H74.3096V344.717C74.357 344.388 74.3269 344.052 74.2217 343.736C74.1165 343.42 73.939 343.133 73.7035 342.897C73.4679 342.662 73.1807 342.485 72.8646 342.379C72.5485 342.274 72.2123 342.244 71.8825 342.291C71.5033 342.299 71.1294 342.381 70.7822 342.534C70.4351 342.687 70.1216 342.907 69.86 343.181C69.5468 343.527 69.3066 343.933 69.1537 344.374C69.0008 344.815 68.9383 345.283 68.97 345.748V351.813H67.3317V341.038H68.7678V342.655C69.1152 342.078 69.6082 341.603 70.1975 341.276C70.7868 340.95 71.4516 340.784 72.1252 340.796" fill="black"/>
<path d="M83.1079 350.601C83.5804 350.62 84.051 350.53 84.4827 350.337C84.9144 350.144 85.2954 349.854 85.5956 349.489C86.2614 348.623 86.5918 347.546 86.526 346.456C86.5912 345.36 86.2611 344.277 85.5956 343.404C85.2825 343.051 84.8979 342.768 84.4674 342.574C84.0368 342.38 83.5699 342.28 83.0978 342.28C82.6256 342.28 82.1588 342.38 81.7282 342.574C81.2976 342.768 80.913 343.051 80.5999 343.404C79.9437 344.274 79.6144 345.348 79.6695 346.436C79.6105 347.519 79.9404 348.587 80.5999 349.448C80.9012 349.819 81.2847 350.114 81.7201 350.31C82.1554 350.507 82.6306 350.599 83.1079 350.58V350.601ZM86.5463 342.494V340.917H88.1239V351.328C88.1591 351.967 88.0644 352.606 87.8454 353.208C87.6263 353.809 87.2876 354.359 86.8496 354.826C86.3514 355.272 85.7693 355.614 85.1373 355.833C84.5053 356.051 83.836 356.142 83.1685 356.099C82.0321 356.157 80.9085 355.837 79.9729 355.19C79.5791 354.881 79.2549 354.493 79.0214 354.05C78.7879 353.608 78.6504 353.121 78.6177 352.622H80.2762C80.4785 353.997 81.4493 354.644 83.1685 354.644C83.6206 354.702 84.0799 354.654 84.5105 354.505C84.9411 354.356 85.3313 354.109 85.6506 353.784C85.9699 353.459 86.2097 353.065 86.351 352.632C86.4923 352.198 86.5315 351.739 86.4654 351.288V350.237C86.0668 350.807 85.528 351.264 84.9009 351.565C84.2738 351.866 83.5796 352.001 82.8854 351.955C82.2099 351.982 81.5372 351.856 80.9173 351.586C80.2974 351.316 79.7464 350.911 79.3054 350.398C78.4127 349.209 77.9301 347.762 77.9301 346.274C77.9301 344.787 78.4127 343.34 79.3054 342.15C79.7494 341.645 80.3019 341.245 80.9218 340.983C81.5417 340.72 82.2129 340.601 82.8854 340.634C83.6003 340.6 84.3122 340.748 84.9531 341.067C85.594 341.386 86.1425 341.863 86.5463 342.454" fill="black"/>
<path d="M217.994 593.694V595.291H209.984V600.042H217.165V601.639H209.984V608.634H208.245V593.694H217.994Z" fill="black"/>
<path d="M219.228 608.634H220.886V597.798H219.228V608.634ZM219.228 596.181H220.987V594.159H219.228V596.181Z" fill="black"/>
<path d="M228.289 597.556C228.795 597.505 229.307 597.568 229.786 597.739C230.265 597.91 230.701 598.186 231.061 598.545C231.42 598.905 231.696 599.34 231.867 599.819C232.038 600.298 232.101 600.81 232.051 601.316V608.634H230.392V601.477C230.436 601.149 230.403 600.816 230.297 600.502C230.19 600.189 230.012 599.905 229.777 599.672C229.542 599.439 229.256 599.263 228.941 599.159C228.627 599.055 228.293 599.025 227.965 599.072C227.587 599.076 227.214 599.154 226.867 599.304C226.519 599.453 226.205 599.669 225.943 599.941C225.634 600.29 225.398 600.696 225.249 601.137C225.099 601.578 225.04 602.044 225.073 602.509V608.573H223.414V597.738H224.972V599.355C225.321 598.779 225.814 598.305 226.403 597.979C226.992 597.652 227.656 597.486 228.329 597.495" fill="black"/>
<path d="M236.642 606.309C236.954 606.663 237.341 606.942 237.775 607.128C238.209 607.313 238.679 607.399 239.15 607.381C239.625 607.396 240.097 607.304 240.531 607.111C240.965 606.919 241.351 606.631 241.658 606.269C242.317 605.392 242.646 604.311 242.588 603.216C242.647 602.127 242.317 601.053 241.658 600.184C241.345 599.831 240.96 599.548 240.53 599.354C240.099 599.16 239.632 599.06 239.16 599.06C238.688 599.06 238.221 599.16 237.79 599.354C237.36 599.548 236.975 599.831 236.662 600.184C235.993 601.072 235.657 602.166 235.712 603.277C235.643 604.361 235.974 605.432 236.642 606.289V606.309ZM242.507 599.335V593.674H244.166V608.614H242.71V606.936C242.318 607.545 241.775 608.043 241.133 608.379C240.491 608.716 239.773 608.88 239.049 608.856C238.37 608.889 237.692 608.766 237.068 608.496C236.444 608.226 235.89 607.817 235.449 607.3C234.558 606.113 234.076 604.669 234.076 603.186C234.076 601.702 234.558 600.258 235.449 599.072C235.893 598.56 236.448 598.155 237.072 597.889C237.695 597.623 238.371 597.502 239.049 597.535C239.747 597.502 240.442 597.651 241.066 597.966C241.69 598.281 242.221 598.753 242.609 599.335" fill="black"/>
<path d="M246.755 608.634H248.413V597.798H246.755V608.634ZM246.755 596.181H248.515V594.159H246.755V596.181Z" fill="black"/>
<path d="M255.755 597.556C256.262 597.505 256.773 597.568 257.253 597.739C257.732 597.91 258.167 598.186 258.527 598.545C258.887 598.905 259.163 599.34 259.334 599.819C259.505 600.299 259.568 600.81 259.517 601.316V608.634H257.859V601.478C257.904 601.148 257.871 600.812 257.763 600.497C257.655 600.182 257.475 599.896 257.238 599.663C257 599.429 256.711 599.254 256.394 599.152C256.077 599.049 255.741 599.022 255.412 599.072C255.033 599.073 254.659 599.151 254.312 599.3C253.964 599.45 253.65 599.668 253.389 599.941C253.077 600.288 252.837 600.694 252.684 601.135C252.531 601.576 252.468 602.043 252.499 602.509V608.573H250.8V597.738H252.378V599.355C252.722 598.775 253.214 598.297 253.804 597.971C254.394 597.644 255.061 597.48 255.735 597.495" fill="black"/>
<path d="M266.657 607.381C267.129 607.394 267.597 607.302 268.028 607.109C268.459 606.916 268.841 606.629 269.145 606.269C269.81 605.395 270.14 604.312 270.075 603.216C270.145 602.126 269.814 601.048 269.145 600.184C268.832 599.831 268.447 599.548 268.017 599.354C267.586 599.16 267.119 599.06 266.647 599.06C266.175 599.06 265.708 599.16 265.277 599.354C264.847 599.548 264.462 599.831 264.149 600.184C263.49 601.045 263.16 602.113 263.219 603.196C263.164 604.284 263.493 605.358 264.149 606.228C264.452 606.596 264.836 606.89 265.271 607.086C265.706 607.283 266.18 607.376 266.657 607.36V607.381ZM270.095 599.274V597.697H271.673V608.108C271.709 608.749 271.613 609.39 271.39 609.992C271.168 610.593 270.823 611.143 270.379 611.606C269.889 612.06 269.312 612.408 268.682 612.631C268.052 612.853 267.384 612.945 266.718 612.899C265.579 612.949 264.456 612.623 263.522 611.97C263.128 611.661 262.804 611.273 262.571 610.83C262.337 610.388 262.2 609.901 262.167 609.402H263.805C264.028 610.777 264.978 611.424 266.718 611.424C267.171 611.486 267.632 611.441 268.064 611.294C268.497 611.146 268.889 610.899 269.209 610.573C269.53 610.247 269.769 609.851 269.909 609.416C270.049 608.981 270.085 608.519 270.015 608.068V607.017C269.607 607.577 269.066 608.027 268.441 608.327C267.817 608.627 267.127 608.767 266.435 608.735C265.756 608.763 265.08 608.638 264.456 608.368C263.833 608.099 263.279 607.692 262.834 607.178C261.956 605.987 261.482 604.545 261.482 603.065C261.482 601.584 261.956 600.142 262.834 598.951C263.28 598.44 263.835 598.036 264.458 597.77C265.082 597.504 265.757 597.382 266.435 597.414C267.149 597.381 267.86 597.531 268.501 597.85C269.142 598.168 269.69 598.644 270.095 599.234" fill="black"/>
<path d="M282.757 597.798V599.274H280.572V606.309C280.572 606.915 280.957 607.219 281.786 607.219H282.757V608.634H281.584C279.804 608.634 278.914 607.886 278.914 606.39V599.213H277.094V597.737H278.853V594.746H280.512V597.798H282.757Z" fill="black"/>
<path d="M289.431 597.556C289.938 597.505 290.449 597.568 290.929 597.739C291.408 597.91 291.843 598.186 292.203 598.545C292.563 598.905 292.839 599.34 293.01 599.819C293.181 600.298 293.244 600.81 293.193 601.316V608.634H291.535V601.477C291.579 601.149 291.546 600.816 291.439 600.502C291.332 600.189 291.155 599.905 290.919 599.672C290.684 599.439 290.398 599.263 290.084 599.159C289.77 599.055 289.436 599.025 289.108 599.072C288.73 599.076 288.356 599.154 288.009 599.304C287.662 599.453 287.348 599.669 287.085 599.941C286.773 600.288 286.533 600.694 286.381 601.135C286.228 601.576 286.165 602.043 286.195 602.509V608.573H284.557V593.634H286.195V599.234C286.552 598.692 287.038 598.249 287.611 597.945C288.184 597.642 288.824 597.487 289.472 597.495" fill="black"/>
<path d="M300.09 599.092C299.695 599.075 299.301 599.14 298.932 599.283C298.563 599.426 298.227 599.643 297.946 599.921C297.349 600.581 296.987 601.42 296.915 602.307H303.205C303.161 601.446 302.826 600.627 302.254 599.982C301.978 599.688 301.642 599.457 301.269 599.303C300.895 599.15 300.494 599.078 300.09 599.092V599.092ZM304.985 603.135V603.722H296.895C296.901 604.696 297.244 605.639 297.866 606.39C298.17 606.692 298.534 606.928 298.934 607.081C299.335 607.234 299.763 607.302 300.191 607.28C300.826 607.328 301.457 607.153 301.975 606.783C302.492 606.413 302.864 605.874 303.023 605.258H304.742C304.497 606.273 303.929 607.18 303.124 607.846C302.277 608.504 301.223 608.841 300.151 608.796C299.48 608.82 298.811 608.697 298.193 608.435C297.574 608.173 297.02 607.779 296.571 607.28C295.672 606.092 295.186 604.644 295.186 603.156C295.186 601.667 295.672 600.219 296.571 599.032C297.01 598.522 297.558 598.118 298.174 597.848C298.79 597.579 299.459 597.451 300.131 597.475C300.813 597.445 301.492 597.576 302.114 597.856C302.736 598.137 303.283 598.561 303.711 599.092C304.61 600.244 305.075 601.675 305.025 603.135" fill="black"/>
<path d="M315.867 597.636H316.433V599.253H316.028C315.092 599.2 314.17 599.495 313.439 600.082C313.125 600.387 312.881 600.756 312.723 601.165C312.566 601.573 312.5 602.011 312.529 602.448V608.613H310.871V597.778H312.448V599.799C312.755 599.163 313.243 598.631 313.851 598.271C314.46 597.912 315.161 597.74 315.867 597.778" fill="black"/>
<path d="M317.99 608.634H319.568V597.798H317.93L317.99 608.634ZM317.99 596.181H319.75V594.159H317.99V596.181Z" fill="black"/>
<path d="M326.768 607.38C327.243 607.396 327.715 607.304 328.149 607.111C328.584 606.919 328.969 606.631 329.276 606.269C329.942 605.395 330.272 604.312 330.207 603.216C330.276 602.126 329.945 601.048 329.276 600.184C328.972 599.818 328.587 599.528 328.152 599.335C327.717 599.142 327.244 599.052 326.768 599.072C326.294 599.053 325.822 599.145 325.39 599.342C324.957 599.539 324.578 599.834 324.28 600.204C323.621 601.065 323.291 602.133 323.35 603.216C323.295 604.305 323.624 605.378 324.28 606.248C324.581 606.615 324.961 606.908 325.393 607.104C325.824 607.3 326.295 607.395 326.768 607.38ZM330.227 599.294V597.717H331.804V608.128C331.841 608.769 331.744 609.41 331.522 610.012C331.299 610.614 330.955 611.163 330.51 611.626C330.017 612.081 329.437 612.431 328.803 612.653C328.17 612.876 327.498 612.967 326.829 612.92C325.697 612.97 324.58 612.643 323.653 611.99C323.257 611.682 322.93 611.294 322.693 610.852C322.456 610.41 322.314 609.923 322.278 609.422H323.937C324.139 610.797 325.11 611.444 326.829 611.444C327.282 611.505 327.744 611.46 328.177 611.313C328.611 611.165 329.004 610.919 329.325 610.593C329.647 610.268 329.889 609.872 330.031 609.437C330.173 609.002 330.213 608.541 330.146 608.088V607.037C329.738 607.597 329.198 608.047 328.573 608.347C327.948 608.647 327.258 608.787 326.566 608.755C325.887 608.786 325.21 608.662 324.586 608.393C323.962 608.123 323.408 607.714 322.966 607.198C322.087 606.007 321.613 604.565 321.613 603.085C321.613 601.604 322.087 600.162 322.966 598.971C323.411 598.46 323.966 598.056 324.59 597.79C325.213 597.524 325.889 597.402 326.566 597.434C327.281 597.401 327.992 597.551 328.632 597.87C329.273 598.188 329.822 598.664 330.227 599.254" fill="black"/>
<path d="M339.207 597.556C339.714 597.505 340.225 597.568 340.704 597.739C341.184 597.91 341.619 598.186 341.979 598.545C342.339 598.905 342.614 599.34 342.786 599.819C342.957 600.298 343.02 600.81 342.969 601.316V608.634H341.311V601.477C341.355 601.148 341.322 600.812 341.215 600.497C341.107 600.182 340.927 599.896 340.689 599.662C340.452 599.429 340.163 599.254 339.846 599.152C339.529 599.049 339.193 599.022 338.863 599.072C338.485 599.073 338.111 599.151 337.763 599.3C337.416 599.45 337.102 599.668 336.841 599.941C336.529 600.288 336.289 600.694 336.136 601.135C335.983 601.576 335.92 602.043 335.951 602.509V608.573H334.292V593.634H335.951V599.234C336.304 598.69 336.791 598.245 337.364 597.94C337.937 597.636 338.578 597.483 339.227 597.495" fill="black"/>
<path d="M349.704 597.798V599.274H347.52V606.309C347.52 606.915 347.924 607.219 348.733 607.219H349.704V608.634H348.531C346.751 608.674 345.861 607.953 345.861 606.471V599.294H344.102V597.818H345.861V594.746H347.52V597.798H349.704Z" fill="black"/>
<path d="M358.624 607.461C359.467 607.468 360.284 607.174 360.93 606.632C361.264 606.357 361.529 606.007 361.701 605.61C361.873 605.213 361.949 604.78 361.921 604.348V603.074C361.505 603.351 361.023 603.511 360.525 603.539L358.968 603.721C358.285 603.764 357.623 603.98 357.046 604.348C356.871 604.519 356.732 604.724 356.638 604.949C356.543 605.175 356.494 605.417 356.494 605.662C356.494 605.907 356.543 606.149 356.638 606.375C356.732 606.6 356.871 606.805 357.046 606.976C357.5 607.33 358.07 607.503 358.644 607.461H358.624ZM364.146 607.259H364.732V608.634C364.429 608.657 364.125 608.657 363.822 608.634C363.599 608.666 363.371 608.649 363.155 608.586C362.938 608.522 362.738 608.413 362.567 608.265C362.397 608.118 362.26 607.935 362.166 607.73C362.071 607.525 362.022 607.303 362.022 607.077C361.654 607.65 361.139 608.114 360.53 608.419C359.922 608.725 359.243 608.862 358.563 608.816C357.57 608.879 356.587 608.585 355.792 607.987C355.456 607.704 355.189 607.346 355.014 606.943C354.838 606.54 354.759 606.101 354.781 605.662C354.781 603.641 356.116 602.569 358.826 602.306L360.343 602.124C361.476 602.003 362.022 601.498 362.022 600.649C362.045 600.402 362.008 600.153 361.913 599.924C361.817 599.694 361.667 599.492 361.476 599.335C360.874 599.056 360.218 598.911 359.554 598.911C358.891 598.911 358.235 599.056 357.633 599.335C357.404 599.544 357.224 599.801 357.105 600.087C356.986 600.374 356.932 600.683 356.945 600.992H355.287C355.428 598.607 356.864 597.414 359.635 597.414C362.406 597.414 363.68 598.465 363.68 600.568V606.632C363.68 606.996 363.862 607.158 364.267 607.158" fill="black"/>
<path d="M373.186 603.924V597.859H374.845V608.695H373.267V607.077C372.956 607.569 372.542 607.987 372.053 608.304C371.565 608.621 371.014 608.829 370.438 608.913C369.862 608.998 369.274 608.957 368.715 608.794C368.156 608.63 367.639 608.348 367.2 607.967C366.856 607.596 366.591 607.159 366.42 606.683C366.25 606.207 366.178 605.702 366.209 605.197V597.859H367.867V605.015C367.819 605.344 367.848 605.68 367.954 605.995C368.059 606.31 368.237 606.597 368.473 606.831C368.709 607.065 368.997 607.24 369.313 607.343C369.63 607.445 369.966 607.472 370.294 607.421C370.672 607.42 371.047 607.342 371.394 607.192C371.742 607.043 372.056 606.825 372.317 606.552C372.634 606.208 372.877 605.803 373.03 605.361C373.183 604.919 373.243 604.45 373.207 603.984" fill="black"/>
<path d="M379.477 606.309C379.789 606.663 380.176 606.942 380.61 607.128C381.044 607.313 381.513 607.399 381.985 607.381C382.46 607.396 382.932 607.304 383.366 607.111C383.8 606.919 384.185 606.631 384.493 606.269C385.146 605.39 385.469 604.309 385.403 603.216C385.467 602.13 385.145 601.055 384.493 600.184C384.18 599.831 383.795 599.548 383.364 599.354C382.934 599.16 382.467 599.06 381.995 599.06C381.523 599.06 381.056 599.16 380.625 599.354C380.195 599.548 379.81 599.831 379.497 600.184C378.828 601.072 378.491 602.166 378.546 603.277C378.478 604.361 378.809 605.432 379.477 606.289V606.309ZM385.342 599.335V593.674H387.001V608.614H385.423V606.936C385.044 607.552 384.506 608.056 383.866 608.393C383.225 608.731 382.506 608.891 381.782 608.856C381.103 608.889 380.426 608.766 379.802 608.496C379.177 608.226 378.623 607.817 378.182 607.3C377.291 606.113 376.809 604.669 376.809 603.186C376.809 601.702 377.291 600.258 378.182 599.072C378.626 598.56 379.181 598.155 379.805 597.889C380.429 597.623 381.105 597.502 381.782 597.535C382.481 597.502 383.176 597.651 383.8 597.966C384.424 598.281 384.955 598.753 385.342 599.335" fill="black"/>
<path d="M389.488 608.634H391.147V597.798H389.488V608.634ZM389.488 596.181H391.248V594.159H389.488V596.181Z" fill="black"/>
<path d="M398.024 599.092C397.648 599.088 397.276 599.16 396.929 599.302C396.581 599.444 396.266 599.655 396.001 599.921C395.395 600.575 395.031 601.417 394.97 602.307H401.26C401.209 601.444 400.866 600.625 400.289 599.982C400.013 599.688 399.676 599.457 399.303 599.303C398.93 599.15 398.528 599.078 398.125 599.092H398.024ZM403.02 603.135V603.722H394.929C394.935 604.696 395.278 605.639 395.9 606.39C396.201 606.691 396.562 606.925 396.959 607.078C397.356 607.232 397.781 607.3 398.206 607.28C398.841 607.332 399.474 607.158 399.993 606.788C400.511 606.418 400.882 605.876 401.037 605.258H402.757C402.518 606.276 401.949 607.185 401.139 607.846C400.293 608.508 399.238 608.845 398.165 608.796C397.494 608.82 396.825 608.697 396.207 608.435C395.588 608.173 395.035 607.779 394.585 607.28C393.699 606.087 393.22 604.641 393.22 603.156C393.22 601.67 393.699 600.224 394.585 599.032C395.025 598.523 395.573 598.12 396.189 597.85C396.805 597.581 397.473 597.453 398.145 597.475C398.83 597.445 399.512 597.575 400.137 597.856C400.763 598.137 401.313 598.56 401.745 599.092C402.637 600.247 403.095 601.678 403.04 603.135" fill="black"/>
<path d="M409.815 597.556C410.32 597.525 410.826 597.597 411.302 597.767C411.779 597.938 412.215 598.202 412.586 598.546C412.933 598.915 413.2 599.351 413.371 599.828C413.541 600.304 413.612 600.811 413.577 601.316V608.634H411.919V601.477C411.963 601.149 411.93 600.816 411.823 600.502C411.717 600.189 411.539 599.905 411.304 599.672C411.068 599.439 410.782 599.263 410.468 599.159C410.154 599.055 409.82 599.025 409.492 599.072C409.114 599.076 408.74 599.154 408.393 599.304C408.046 599.453 407.732 599.669 407.469 599.941C406.844 600.615 406.51 601.509 406.539 602.428V608.492H404.901V597.657H406.539V599.274C406.886 598.697 407.379 598.221 407.969 597.895C408.558 597.569 409.223 597.403 409.896 597.414" fill="black"/>
<path d="M420.474 608.877C419.799 608.903 419.126 608.777 418.506 608.508C417.886 608.238 417.335 607.832 416.894 607.32C416.016 606.128 415.542 604.687 415.542 603.206C415.542 601.726 416.016 600.284 416.894 599.092C417.337 598.584 417.889 598.182 418.509 597.916C419.129 597.65 419.801 597.527 420.474 597.556C421.613 597.509 422.729 597.883 423.609 598.607C424.441 599.345 424.962 600.371 425.066 601.478H423.346C423.263 600.782 422.916 600.145 422.376 599.699C421.834 599.275 421.162 599.053 420.474 599.072C420.029 599.052 419.586 599.139 419.181 599.325C418.777 599.512 418.422 599.792 418.148 600.144C417.595 601.058 417.303 602.107 417.303 603.176C417.303 604.245 417.595 605.293 418.148 606.208C418.423 606.561 418.776 606.843 419.18 607.033C419.585 607.223 420.028 607.314 420.474 607.3C421.168 607.314 421.843 607.077 422.376 606.633C422.929 606.186 423.285 605.54 423.367 604.834H425.066C424.935 605.952 424.395 606.982 423.549 607.724C422.694 608.453 421.597 608.836 420.474 608.796" fill="black"/>
<path d="M431.235 599.092C430.842 599.074 430.451 599.139 430.085 599.282C429.719 599.425 429.387 599.642 429.111 599.921C428.497 600.572 428.126 601.414 428.059 602.307H434.349C434.315 601.444 433.979 600.621 433.399 599.982C433.122 599.688 432.786 599.457 432.413 599.303C432.04 599.15 431.638 599.078 431.235 599.092V599.092ZM436.129 603.135V603.722H428.039C428.051 604.699 428.401 605.642 429.03 606.39C429.33 606.692 429.691 606.927 430.088 607.08C430.485 607.233 430.91 607.301 431.336 607.28C431.971 607.332 432.604 607.158 433.123 606.788C433.641 606.418 434.011 605.876 434.167 605.258H435.887C435.648 606.275 435.079 607.185 434.268 607.846C433.421 608.504 432.368 608.841 431.295 608.796C430.624 608.82 429.955 608.697 429.337 608.435C428.718 608.173 428.165 607.779 427.715 607.28C426.829 606.087 426.35 604.641 426.35 603.156C426.35 601.67 426.829 600.224 427.715 599.032C428.154 598.522 428.702 598.118 429.318 597.848C429.934 597.579 430.603 597.451 431.275 597.475C431.96 597.445 432.642 597.575 433.267 597.856C433.892 598.137 434.443 598.56 434.875 599.092C435.767 600.247 436.225 601.678 436.17 603.135" fill="black"/>
<path d="M438.779 608.634H437.161L442.44 593.694H444.058L438.779 608.634Z" fill="black"/>
<path d="M449.276 597.555C449.782 597.505 450.294 597.568 450.773 597.739C451.253 597.91 451.688 598.185 452.048 598.545C452.408 598.905 452.683 599.34 452.854 599.819C453.026 600.298 453.088 600.809 453.038 601.316V608.634H451.4V601.477C451.444 601.147 451.411 600.811 451.304 600.496C451.196 600.181 451.016 599.896 450.778 599.662C450.541 599.429 450.252 599.254 449.935 599.151C449.618 599.049 449.282 599.021 448.952 599.072C448.574 599.073 448.2 599.151 447.852 599.3C447.505 599.449 447.191 599.667 446.93 599.941C446.618 600.288 446.378 600.694 446.225 601.135C446.072 601.576 446.009 602.043 446.04 602.508V608.573H444.381V597.737H445.959V599.355C446.302 598.778 446.791 598.302 447.377 597.975C447.963 597.649 448.625 597.483 449.296 597.495" fill="black"/>
<path d="M455.526 608.634H457.103V597.798H455.445L455.526 608.634ZM455.526 596.181H457.285V594.159H455.526V596.181Z" fill="black"/>
<path d="M464.081 608.877C463.406 608.902 462.734 608.775 462.114 608.506C461.494 608.236 460.943 607.831 460.501 607.32C459.623 606.128 459.148 604.687 459.148 603.206C459.148 601.726 459.623 600.284 460.501 599.092C460.944 598.584 461.496 598.182 462.116 597.916C462.736 597.65 463.407 597.527 464.081 597.556C465.221 597.505 466.338 597.88 467.216 598.607C468.048 599.345 468.569 600.371 468.673 601.478H466.953C466.87 600.782 466.523 600.145 465.983 599.699C465.441 599.275 464.769 599.053 464.081 599.072C463.636 599.052 463.193 599.139 462.788 599.325C462.383 599.512 462.029 599.792 461.755 600.143C461.202 601.058 460.91 602.107 460.91 603.176C460.91 604.245 461.202 605.293 461.755 606.208C462.264 606.818 462.992 607.204 463.782 607.283C464.573 607.363 465.363 607.129 465.983 606.633C466.536 606.186 466.892 605.54 466.974 604.834H468.673C468.542 605.952 468.002 606.982 467.156 607.724C466.301 608.453 465.204 608.836 464.081 608.796" fill="black"/>
<path d="M475.307 597.556C475.813 597.505 476.324 597.568 476.804 597.739C477.283 597.91 477.719 598.186 478.078 598.545C478.438 598.905 478.714 599.34 478.885 599.819C479.056 600.298 479.119 600.81 479.069 601.316V608.634H477.41V601.477C477.455 601.148 477.422 600.812 477.314 600.497C477.206 600.182 477.026 599.896 476.789 599.662C476.551 599.429 476.263 599.254 475.946 599.152C475.629 599.049 475.292 599.022 474.963 599.072C474.584 599.073 474.21 599.151 473.863 599.3C473.515 599.45 473.201 599.668 472.94 599.941C472.628 600.288 472.388 600.694 472.236 601.135C472.083 601.576 472.02 602.043 472.05 602.509V608.573H470.392V593.634H472.05V599.234C472.404 598.69 472.89 598.245 473.463 597.94C474.037 597.636 474.678 597.483 475.327 597.495" fill="black"/>
<path d="M486.006 599.092C485.631 599.088 485.258 599.16 484.911 599.302C484.563 599.444 484.248 599.655 483.983 599.921C483.368 600.569 483.003 601.415 482.952 602.307H489.222C489.188 601.444 488.851 600.621 488.271 599.982C487.995 599.688 487.659 599.457 487.286 599.303C486.912 599.15 486.511 599.078 486.107 599.092H486.006ZM491.002 603.135V603.722H482.912C482.917 604.696 483.26 605.639 483.882 606.39C484.183 606.691 484.544 606.925 484.941 607.078C485.338 607.232 485.763 607.3 486.188 607.28C486.823 607.332 487.456 607.158 487.975 606.788C488.494 606.418 488.864 605.876 489.02 605.258H490.739C490.5 606.276 489.931 607.185 489.121 607.846C488.274 608.504 487.22 608.841 486.148 608.796C485.476 608.82 484.808 608.697 484.189 608.435C483.571 608.173 483.017 607.779 482.568 607.28C481.681 606.087 481.202 604.641 481.202 603.156C481.202 601.67 481.681 600.224 482.568 599.032C483.007 598.522 483.554 598.118 484.17 597.849C484.787 597.579 485.455 597.451 486.127 597.475C486.812 597.445 487.494 597.575 488.12 597.856C488.745 598.137 489.296 598.56 489.728 599.092C490.62 600.247 491.078 601.678 491.022 603.135" fill="black"/>
<path d="M251.609 3.67968V0.384521H271.127V3.25515C264.223 10.9573 260.337 20.8938 260.185 31.2336H256.484C256.556 26.227 257.487 21.2699 259.234 16.5773C261.081 11.8775 263.699 7.51846 266.981 3.67968H251.609Z" fill="black"/>
<path d="M273.898 26.907H269.59V31.2331H273.898V26.907Z" fill="black"/>
<path d="M274.06 3.67968V0.384521H293.578V3.25515C286.68 10.9593 282.801 20.8961 282.656 31.2336H278.934C279.007 26.227 279.937 21.2699 281.685 16.5773C283.539 11.8813 286.157 7.52349 289.431 3.67968H274.06Z" fill="black"/>
<path d="M320.438 22.2375C320.438 26.6445 321.732 28.8278 324.321 28.8278C326.91 28.8278 328.204 26.6445 328.204 22.2375C328.204 17.8305 326.91 15.627 324.321 15.627C321.732 15.627 320.438 17.8305 320.438 22.2375ZM329.681 29.1108C329.065 29.9444 328.25 30.6105 327.31 31.0484C326.37 31.4863 325.335 31.6819 324.301 31.6176C323.271 31.6882 322.24 31.4951 321.306 31.0565C320.371 30.6178 319.564 29.9481 318.961 29.1108C317.619 27.08 316.98 24.6659 317.141 22.2375C316.995 19.8014 317.64 17.3835 318.981 15.344C319.644 14.578 320.464 13.9635 321.385 13.5424C322.306 13.1212 323.308 12.9032 324.321 12.9032C325.334 12.9032 326.335 13.1212 327.257 13.5424C328.178 13.9635 328.998 14.578 329.66 15.344C331.001 17.3835 331.647 19.8014 331.501 22.2375C331.638 24.6636 331.001 27.0705 329.681 29.1108V29.1108ZM306.886 31.1324H303.589L319.77 0.283284H323.067L306.886 31.1324ZM298.533 9.36012C298.533 13.7469 299.827 15.9302 302.416 15.9302C305.005 15.9302 306.3 13.7469 306.3 9.36012C306.3 4.97332 305.005 2.72938 302.416 2.72938C299.827 2.72938 298.533 4.93289 298.533 9.36012ZM307.796 16.1728C307.18 17.0064 306.365 17.6725 305.425 18.1104C304.486 18.5482 303.451 18.7439 302.416 18.6795C301.386 18.7502 300.356 18.5571 299.421 18.1184C298.487 17.6798 297.68 17.0101 297.077 16.1728C295.761 14.1546 295.136 11.7638 295.297 9.36012C295.154 6.918 295.799 4.49448 297.137 2.44636C297.798 1.67737 298.617 1.06018 299.539 0.637055C300.461 0.213934 301.463 -0.00512695 302.477 -0.00512695C303.491 -0.00512695 304.493 0.213934 305.415 0.637055C306.337 1.06018 307.156 1.67737 307.817 2.44636C309.155 4.49448 309.8 6.918 309.657 9.36012C309.778 11.7711 309.126 14.1577 307.796 16.1728" fill="black"/>
<path d="M207.76 529.126V525.831H227.277V528.701C220.411 536.42 216.555 546.352 216.416 556.68H212.715C212.79 551.673 213.72 546.717 215.466 542.023C217.312 537.324 219.93 532.965 223.212 529.126H207.76Z" fill="black"/>
<path d="M230.048 552.354H225.74V556.68H230.048V552.354Z" fill="black"/>
<path d="M230.23 529.125V525.83H249.728V528.7C242.83 536.404 238.951 546.341 238.806 556.679H235.085C235.17 551.673 236.1 546.718 237.835 542.022C239.69 537.322 242.314 532.963 245.602 529.125H230.23Z" fill="black"/>
<path d="M276.588 547.845C276.588 552.252 277.882 554.435 280.471 554.435C283.06 554.435 284.355 552.252 284.355 547.845C284.355 543.438 283.06 541.234 280.471 541.234C277.882 541.234 276.588 543.438 276.588 547.845ZM285.851 554.657C285.235 555.491 284.42 556.157 283.48 556.595C282.541 557.033 281.506 557.228 280.471 557.164C279.441 557.235 278.411 557.042 277.476 556.603C276.542 556.164 275.735 555.495 275.132 554.657C273.796 552.646 273.15 550.255 273.291 547.845C273.145 545.409 273.791 542.991 275.132 540.951C275.792 540.182 276.612 539.565 277.533 539.142C278.455 538.719 279.457 538.5 280.471 538.5C281.486 538.5 282.488 538.719 283.409 539.142C284.331 539.565 285.15 540.182 285.811 540.951C287.161 542.986 287.808 545.408 287.651 547.845C287.782 550.248 287.152 552.632 285.851 554.657V554.657ZM263.057 556.78H259.76L275.941 525.931H279.238L263.057 556.78ZM254.683 534.907C254.683 539.294 255.978 541.497 258.567 541.497C261.156 541.497 262.45 539.294 262.45 534.907C262.45 530.52 261.156 528.276 258.567 528.276C255.978 528.276 254.683 530.479 254.683 534.907V534.907ZM263.947 541.699C263.332 542.535 262.517 543.204 261.578 543.645C260.638 544.087 259.603 544.286 258.567 544.226C257.535 544.295 256.503 544.098 255.568 543.656C254.634 543.214 253.828 542.54 253.227 541.699C251.894 539.694 251.248 537.31 251.387 534.907C251.244 532.465 251.889 530.041 253.227 527.993C253.888 527.224 254.707 526.607 255.629 526.184C256.55 525.761 257.553 525.542 258.567 525.542C259.581 525.542 260.583 525.761 261.505 526.184C262.426 526.607 263.246 527.224 263.906 527.993C265.1 530.08 265.728 532.442 265.728 534.846C265.728 537.25 265.1 539.612 263.906 541.699" fill="black"/>
<path d="M602.143 319.509C603.542 319.431 604.943 319.648 606.253 320.146C607.563 320.644 608.754 321.412 609.748 322.4C611.607 324.445 612.588 327.139 612.478 329.9C612.532 331.273 612.305 332.643 611.811 333.925C611.317 335.208 610.567 336.376 609.606 337.359C608.596 338.351 607.392 339.123 606.069 339.627C604.747 340.132 603.334 340.358 601.92 340.291C599.284 340.383 596.711 339.473 594.72 337.743C593.765 336.9 592.995 335.869 592.459 334.714C591.923 333.559 591.632 332.305 591.605 331.032H595.185C595.227 331.865 595.437 332.681 595.802 333.431C596.167 334.182 596.679 334.851 597.309 335.398C598.597 336.48 600.239 337.048 601.92 336.995C602.833 337.024 603.741 336.858 604.585 336.51C605.428 336.161 606.188 335.638 606.815 334.974C608.042 333.544 608.717 331.723 608.717 329.839C608.717 327.955 608.042 326.134 606.815 324.704C606.188 324.04 605.428 323.517 604.585 323.168C603.741 322.82 602.833 322.654 601.92 322.683C600.625 322.587 599.332 322.892 598.217 323.558C597.102 324.224 596.22 325.217 595.691 326.402H592.374L594.922 308.653H610.637V311.928H597.835L596.378 321.632C597.94 320.172 600.004 319.369 602.143 319.388" fill="black"/>
<path d="M630.782 323.188C632.297 323.838 633.588 324.918 634.494 326.294C635.4 327.671 635.882 329.283 635.879 330.931C635.927 332.205 635.69 333.473 635.187 334.645C634.683 335.816 633.925 336.861 632.967 337.703C630.747 339.398 628.027 340.308 625.233 340.29C622.44 340.272 619.732 339.326 617.535 337.602C616.582 336.648 615.844 335.501 615.369 334.239C614.895 332.977 614.695 331.629 614.784 330.284H618.323C618.298 331.213 618.464 332.138 618.812 333.001C619.16 333.863 619.682 334.645 620.346 335.297C621.785 336.501 623.63 337.109 625.504 336.995C627.284 337.091 629.034 336.505 630.398 335.358C631.007 334.798 631.485 334.111 631.8 333.346C632.114 332.581 632.257 331.757 632.218 330.931C632.252 330.095 632.103 329.263 631.782 328.491C631.461 327.72 630.975 327.027 630.358 326.463C628.944 325.287 627.138 324.688 625.301 324.785H622.955V321.753H624.978C626.654 321.856 628.314 321.369 629.67 320.378C630.217 319.9 630.648 319.304 630.932 318.635C631.216 317.966 631.345 317.242 631.308 316.517C631.344 315.803 631.215 315.091 630.931 314.435C630.647 313.78 630.215 313.198 629.67 312.736C628.339 311.821 626.756 311.341 625.14 311.363C623.525 311.385 621.955 311.907 620.649 312.858C620.066 313.429 619.604 314.112 619.292 314.866C618.979 315.619 618.821 316.429 618.829 317.245H615.249C615.205 316.002 615.424 314.763 615.891 313.61C616.358 312.457 617.063 311.416 617.959 310.553C619.954 308.808 622.554 307.915 625.2 308.067C627.746 307.942 630.253 308.738 632.259 310.311C633.138 311.051 633.835 311.982 634.298 313.033C634.761 314.084 634.977 315.228 634.929 316.375C634.954 317.779 634.577 319.16 633.842 320.357C633.108 321.553 632.046 322.514 630.782 323.127" fill="black"/>
<path d="M643.12 335.277H638.812V339.603H643.12V335.277Z" fill="black"/>
<path d="M661.586 312.716C660.257 311.83 658.694 311.357 657.096 311.357C655.498 311.357 653.936 311.83 652.606 312.716C652.036 313.167 651.581 313.747 651.278 314.407C650.976 315.068 650.835 315.791 650.867 316.517C650.836 317.246 650.978 317.971 651.28 318.635C651.583 319.298 652.037 319.882 652.606 320.338C653.941 321.209 655.501 321.673 657.096 321.673C658.691 321.673 660.251 321.209 661.586 320.338C662.156 319.882 662.61 319.298 662.912 318.635C663.214 317.971 663.356 317.246 663.326 316.517C663.358 315.791 663.216 315.068 662.914 314.407C662.612 313.747 662.157 313.167 661.586 312.716ZM651.797 335.358C653.358 336.425 655.205 336.996 657.096 336.996C658.987 336.996 660.834 336.425 662.395 335.358C663.015 334.777 663.509 334.076 663.847 333.297C664.184 332.518 664.359 331.678 664.359 330.83C664.359 329.981 664.184 329.141 663.847 328.362C663.509 327.583 663.015 326.882 662.395 326.301C660.824 325.26 658.981 324.704 657.096 324.704C655.211 324.704 653.368 325.26 651.797 326.301C651.177 326.882 650.683 327.583 650.346 328.362C650.008 329.141 649.834 329.981 649.834 330.83C649.834 331.678 650.008 332.518 650.346 333.297C650.683 334.076 651.177 334.777 651.797 335.358V335.358ZM662.476 323.067C664.084 323.685 665.486 324.743 666.521 326.119C667.527 327.489 668.053 329.151 668.018 330.85C668.072 332.154 667.827 333.454 667.301 334.648C666.775 335.843 665.983 336.902 664.984 337.743C662.65 339.401 659.858 340.291 656.995 340.291C654.132 340.291 651.34 339.401 649.006 337.743C648.007 336.902 647.215 335.843 646.689 334.648C646.163 333.454 645.918 332.154 645.972 330.85C645.937 329.151 646.463 327.489 647.469 326.119C648.527 324.723 649.967 323.663 651.615 323.067C650.287 322.575 649.149 321.677 648.361 320.501C647.573 319.325 647.176 317.931 647.226 316.517C647.171 315.335 647.393 314.157 647.874 313.076C648.355 311.995 649.082 311.041 649.997 310.291C652.044 308.846 654.489 308.071 656.995 308.071C659.501 308.071 661.946 308.846 663.993 310.291C664.908 311.041 665.635 311.995 666.116 313.076C666.597 314.157 666.819 315.335 666.764 316.517C666.814 317.931 666.417 319.325 665.629 320.501C664.841 321.677 663.703 322.575 662.375 323.067" fill="black"/>
<path d="M695.606 330.688C695.606 335.075 696.901 337.258 699.489 337.258C702.078 337.258 703.373 335.075 703.373 330.688C703.373 326.301 702.078 324.057 699.489 324.057C696.901 324.057 695.606 326.261 695.606 330.688ZM704.87 337.48C704.253 338.314 703.438 338.98 702.499 339.418C701.559 339.856 700.524 340.052 699.489 339.987C698.46 340.058 697.429 339.865 696.494 339.426C695.56 338.987 694.753 338.318 694.15 337.48C692.817 335.475 692.171 333.092 692.309 330.688C692.166 328.246 692.811 325.822 694.15 323.774C694.811 323.005 695.63 322.388 696.551 321.965C697.473 321.542 698.475 321.323 699.489 321.323C700.504 321.323 701.506 321.542 702.427 321.965C703.349 322.388 704.168 323.005 704.829 323.774C706.023 325.861 706.651 328.223 706.651 330.627C706.651 333.031 706.023 335.394 704.829 337.48H704.87ZM682.075 339.623H678.778L694.959 308.794H698.256L682.075 339.623ZM673.702 317.75C673.702 322.137 674.996 324.34 677.585 324.34C680.174 324.34 681.468 322.137 681.468 317.75C681.468 313.363 680.174 311.119 677.585 311.119C674.996 311.119 673.702 313.343 673.702 317.75ZM682.965 324.542C682.35 325.378 681.536 326.047 680.596 326.489C679.656 326.93 678.621 327.13 677.585 327.069C676.553 327.138 675.521 326.942 674.587 326.499C673.652 326.057 672.846 325.383 672.245 324.542C670.912 322.537 670.266 320.154 670.405 317.75C670.262 315.308 670.907 312.884 672.245 310.836C672.908 310.07 673.728 309.456 674.649 309.035C675.571 308.613 676.572 308.396 677.585 308.396C678.598 308.396 679.599 308.613 680.521 309.035C681.442 309.456 682.262 310.07 682.925 310.836C684.118 312.923 684.746 315.285 684.746 317.689C684.746 320.093 684.118 322.456 682.925 324.542" fill="black"/>
<path d="M17.9403 278.592C19.4516 279.251 20.7373 280.336 21.6393 281.715C22.5413 283.095 23.0202 284.707 23.017 286.355C23.0676 287.63 22.8322 288.899 22.3283 290.071C21.8243 291.243 21.0645 292.287 20.1045 293.127C18.0173 294.931 15.3165 295.865 12.5602 295.735C9.69038 295.934 6.85732 294.997 4.67216 293.127C3.72971 292.149 3.00609 290.982 2.5493 289.703C2.09251 288.423 1.91296 287.062 2.02258 285.708H5.46097C5.42638 286.627 5.57886 287.544 5.90914 288.402C6.23943 289.26 6.74065 290.043 7.38242 290.702C8.82032 291.923 10.6767 292.539 12.5602 292.42C14.3346 292.516 16.0787 291.93 17.4346 290.782C18.6117 289.597 19.2723 287.995 19.2723 286.325C19.2723 284.655 18.6117 283.053 17.4346 281.867C16.0198 280.695 14.2128 280.103 12.3782 280.21H10.1129V277.177H12.1355C13.809 277.28 15.4647 276.786 16.8077 275.782C17.3558 275.305 17.7881 274.709 18.072 274.04C18.3558 273.371 18.4837 272.647 18.4459 271.921C18.4818 271.208 18.3527 270.495 18.0686 269.84C17.7844 269.184 17.353 268.603 16.8077 268.141C15.5157 267.199 13.9334 266.741 12.3377 266.847C10.6902 266.758 9.06837 267.284 7.78694 268.323C7.227 268.898 6.78673 269.578 6.49162 270.324C6.19652 271.07 6.05244 271.867 6.06774 272.669H2.38664C2.34411 271.426 2.56341 270.188 3.03031 269.036C3.49721 267.883 4.20129 266.841 5.0969 265.978C7.0912 264.232 9.69137 263.34 12.3377 263.491C14.8818 263.359 17.3883 264.148 19.3966 265.715C20.2719 266.458 20.967 267.39 21.4295 268.44C21.8919 269.491 22.1097 270.633 22.0664 271.78C22.1008 273.172 21.7389 274.546 21.0228 275.742C20.3067 276.937 19.2658 277.904 18.0212 278.532" fill="black"/>
<path d="M37.1953 266.847C32.3411 266.847 29.9342 271.113 29.9342 279.664C29.9342 288.215 32.3411 292.481 37.1953 292.481C42.0495 292.481 44.4968 288.154 44.4968 279.603C44.4968 271.052 42.0292 266.847 37.1953 266.847ZM45.4272 291.611C44.5387 292.964 43.3112 294.06 41.8668 294.791C40.4225 295.521 38.8118 295.861 37.1953 295.776C35.5748 295.869 33.9584 295.533 32.5095 294.801C31.0606 294.07 29.8303 292.97 28.9431 291.611C27.1194 287.889 26.1713 283.799 26.1713 279.654C26.1713 275.509 27.1194 271.419 28.9431 267.696C29.8435 266.358 31.0798 265.281 32.5281 264.571C33.9764 263.862 35.5859 263.545 37.1953 263.653C38.8005 263.555 40.4036 263.876 41.847 264.585C43.2904 265.294 44.5242 266.366 45.4272 267.696C47.2509 271.419 48.199 275.509 48.199 279.654C48.199 283.799 47.2509 287.889 45.4272 291.611" fill="black"/>
<path d="M54.3872 290.681H50.0791V295.007H54.3872V290.681Z" fill="black"/>
<path d="M72.8129 268.121C71.4856 267.238 69.927 266.768 68.3329 266.768C66.7388 266.768 65.1803 267.238 63.8529 268.121C63.3021 268.591 62.8599 269.176 62.5567 269.834C62.2534 270.491 62.0964 271.207 62.0964 271.931C62.0964 272.656 62.2534 273.371 62.5567 274.029C62.8599 274.687 63.3021 275.271 63.8529 275.742C65.1803 276.624 66.7388 277.095 68.3329 277.095C69.927 277.095 71.4856 276.624 72.8129 275.742C73.3637 275.271 73.8059 274.687 74.1092 274.029C74.4124 273.371 74.5694 272.656 74.5694 271.931C74.5694 271.207 74.4124 270.491 74.1092 269.834C73.8059 269.176 73.3637 268.591 72.8129 268.121ZM63.0439 290.782C64.562 291.935 66.4388 292.515 68.343 292.42C70.2404 292.51 72.1092 291.931 73.622 290.782C74.2416 290.202 74.7356 289.501 75.0733 288.722C75.4109 287.943 75.5852 287.103 75.5852 286.254C75.5852 285.405 75.4109 284.565 75.0733 283.787C74.7356 283.008 74.2416 282.306 73.622 281.726C72.1065 280.585 70.238 280.012 68.343 280.109C66.4412 280.007 64.5647 280.58 63.0439 281.726C62.4242 282.306 61.9302 283.008 61.5925 283.787C61.2549 284.565 61.0806 285.405 61.0806 286.254C61.0806 287.103 61.2549 287.943 61.5925 288.722C61.9302 289.501 62.4242 290.202 63.0439 290.782V290.782ZM73.7231 278.471C75.3318 279.088 76.7339 280.146 77.7682 281.524C78.7826 282.896 79.3093 284.568 79.265 286.274C79.3176 287.575 79.0716 288.871 78.5457 290.063C78.0199 291.254 77.2281 292.309 76.2311 293.148C73.9748 294.942 71.1422 295.855 68.2621 295.715C65.4071 295.828 62.607 294.909 60.374 293.127C59.377 292.289 58.5853 291.234 58.0594 290.043C57.5335 288.851 57.2875 287.555 57.3402 286.254C57.305 284.549 57.8308 282.88 58.8369 281.503C59.897 280.109 61.3364 279.049 62.9832 278.451C61.6686 277.952 60.5437 277.054 59.7672 275.883C58.9906 274.711 58.6015 273.326 58.6548 271.921C58.6079 270.74 58.8334 269.565 59.3139 268.485C59.7944 267.405 60.517 266.451 61.4258 265.695C63.4391 264.17 65.9199 263.391 68.4441 263.491C70.9617 263.394 73.4351 264.173 75.4423 265.695C76.3511 266.451 77.0737 267.405 77.5542 268.485C78.0347 269.565 78.2602 270.74 78.2132 271.921C78.2695 273.337 77.8749 274.734 77.0862 275.911C76.2974 277.088 75.1553 277.984 73.8242 278.471" fill="black"/>
<path d="M106.873 286.092C106.873 290.479 108.168 292.683 110.757 292.683C113.345 292.683 114.64 290.479 114.64 286.092C114.64 281.706 113.345 279.462 110.757 279.462C108.168 279.462 106.873 281.685 106.873 286.092ZM116.137 292.885C115.522 293.721 114.707 294.39 113.768 294.831C112.828 295.272 111.793 295.472 110.757 295.412C109.725 295.48 108.693 295.284 107.758 294.842C106.824 294.399 106.018 293.726 105.417 292.885C104.081 290.881 103.435 288.496 103.576 286.092C103.433 283.65 104.078 281.227 105.417 279.179C106.078 278.41 106.897 277.792 107.819 277.369C108.74 276.946 109.742 276.727 110.757 276.727C111.771 276.727 112.773 276.946 113.695 277.369C114.616 277.792 115.435 278.41 116.096 279.179C117.29 281.266 117.918 283.628 117.918 286.032C117.918 288.436 117.29 290.798 116.096 292.885H116.137ZM93.3017 295.007H90.0453L106.226 264.179H109.523L93.3017 295.007ZM84.9484 273.134C84.9484 277.541 86.2429 279.724 88.8318 279.724C91.4207 279.724 92.7151 277.541 92.7151 273.134C92.7151 268.727 91.4207 266.524 88.8318 266.524C86.2429 266.524 84.9484 268.727 84.9484 273.134ZM94.2118 279.947C93.5945 280.779 92.7792 281.444 91.8397 281.882C90.9003 282.32 89.8664 282.516 88.8318 282.454C87.8019 282.524 86.771 282.331 85.8367 281.892C84.9023 281.454 84.0953 280.784 83.4921 279.947C82.1561 277.935 81.5102 275.544 81.6516 273.134C81.5057 270.698 82.1513 268.28 83.4921 266.241C84.1548 265.475 84.9747 264.86 85.896 264.439C86.8174 264.018 87.8186 263.8 88.8318 263.8C89.8449 263.8 90.8462 264.018 91.7675 264.439C92.6889 264.86 93.5087 265.475 94.1714 266.241C95.5123 268.28 96.1578 270.698 96.0119 273.134C96.1425 275.538 95.5127 277.921 94.2118 279.947" fill="black"/>
<path d="M298.169 46.4961H250.8M254.319 573.579H206.91H254.319ZM636.87 355.25H589.461H636.87ZM47.4093 314.96H0H47.4093Z" stroke="#241F21" stroke-width="1.14" stroke-miterlimit="10"/>
</g>
<defs>
<clipPath id="clip0">
<rect width="790" height="613" fill="white"/>
</clipPath>
</defs>
</svg>
