<svg id="Layer_1" data-name="Layer 1" xmlns="http://www.w3.org/2000/svg" viewBox="0 0 1080 1080"><defs><style>.cls-1{fill:#231f20;}</style></defs><path class="cls-1" d="M1017.18,779l8.84.27C978,876.48,896.4,968.6,776.38,1025.47c-127,60.17-266.87,75.55-427.28,20.12-49.56-17.12-95.39-44.68-135.41-74.61C116.5,898.3,42.57,789.23,11.84,660.68c-12.38-50-15.75-86.21-14-127.29,1.43-33.09,16.22-101.56,70.21-147.5,51.66-43.95,122.26-78.58,239.65-54.17-25.35,29.12-49.06,64.81-62.46,105.76-45,137.52,3.39,260.31,87.06,335.12,26.84,24,63,46.94,97.36,59,30.49,10.74,69,19.46,96.69,19.8,16.27.2,43.55,1.85,90.24-9.44C616.61,842,873.81,930.45,1017.18,779Z"/><path class="cls-1" d="M64.32,296.88l-8.84-.34c48.89-96.85,131.24-188.26,251.73-244.1C434.7-6.64,574.73-20.82,734.65,36c49.41,17.54,95,45.49,134.77,75.76C966,185.26,1039,295,1068.6,423.76c12,50.11,15,86.34,12.9,127.41-1.71,33.07-17.09,101.42-71.47,146.89-52,43.51-122.93,77.53-240.11,52.12,25.6-28.9,49.62-64.39,63.36-105.23,46.15-137.12-1.16-260.32-84.19-335.84-26.63-24.23-62.62-47.48-96.84-59.87-30.4-11-68.81-20-96.53-20.63-16.26-.34-43.52-2.21-90.3,8.67C465.42,237.28,209,146.62,64.32,296.88Z"/><path class="cls-1" d="M357,572.07a185.49,185.49,0,0,1,150.84-214.8c100.77-17.63,196.85,49.84,214.53,150.88C740,608.92,672.56,705,571.8,722.63,470.75,740.31,374.67,672.84,357,572.07Z"/></svg>